%TF.GenerationSoftware,KiCad,Pcbnew,7.0.6*%
%TF.CreationDate,2023-08-22T16:48:19+01:00*%
%TF.ProjectId,trigger_cable,74726967-6765-4725-9f63-61626c652e6b,rev?*%
%TF.SameCoordinates,Original*%
%TF.FileFunction,Copper,L2,Bot*%
%TF.FilePolarity,Positive*%
%FSLAX46Y46*%
G04 Gerber Fmt 4.6, Leading zero omitted, Abs format (unit mm)*
G04 Created by KiCad (PCBNEW 7.0.6) date 2023-08-22 16:48:19*
%MOMM*%
%LPD*%
G01*
G04 APERTURE LIST*
%TA.AperFunction,ComponentPad*%
%ADD10R,1.600000X1.600000*%
%TD*%
%TA.AperFunction,ComponentPad*%
%ADD11C,1.600000*%
%TD*%
%TA.AperFunction,ComponentPad*%
%ADD12O,1.600000X1.600000*%
%TD*%
%TA.AperFunction,ComponentPad*%
%ADD13O,1.600000X2.500000*%
%TD*%
%TA.AperFunction,ComponentPad*%
%ADD14O,3.500000X7.000000*%
%TD*%
G04 APERTURE END LIST*
D10*
%TO.P,J1,1,1*%
%TO.N,Net-(J6-In)*%
X54250331Y-59115000D03*
D11*
%TO.P,J1,2,2*%
%TO.N,Net-(J5-In)*%
X54250331Y-61885000D03*
%TO.P,J1,3,3*%
%TO.N,Net-(J4-In)*%
X54250331Y-64655000D03*
%TO.P,J1,4,4*%
%TO.N,Net-(J3-In)*%
X54250331Y-67425000D03*
%TO.P,J1,5,5*%
%TO.N,Net-(J1-Pad5)*%
X54250331Y-70195000D03*
%TO.P,J1,6,6*%
%TO.N,Net-(J1-Pad6)*%
X54250331Y-72965000D03*
%TO.P,J1,7,7*%
%TO.N,Net-(J1-Pad7)*%
X54250331Y-75735000D03*
%TO.P,J1,8,8*%
%TO.N,Net-(J1-Pad8)*%
X54250331Y-78505000D03*
%TO.P,J1,9,9*%
%TO.N,GND*%
X54250331Y-81275000D03*
%TO.P,J1,10,10*%
X54250331Y-84045000D03*
%TO.P,J1,11,11*%
X54250331Y-86815000D03*
%TO.P,J1,12,12*%
X54250331Y-89585000D03*
%TO.P,J1,13,13*%
X54250331Y-92355000D03*
%TO.P,J1,14,14*%
X54250331Y-95125000D03*
%TO.P,J1,15,15*%
X54250331Y-97895000D03*
%TO.P,J1,16,16*%
X54250331Y-100665000D03*
%TO.P,J1,17,17*%
%TO.N,unconnected-(J1-Pad17)*%
X54250331Y-103435000D03*
%TO.P,J1,18,18*%
%TO.N,unconnected-(J1-Pad18)*%
X54250331Y-106205000D03*
%TO.P,J1,19,19*%
%TO.N,unconnected-(J1-Pad19)*%
X54250331Y-108975000D03*
%TO.P,J1,20,20*%
%TO.N,unconnected-(J1-Pad20)*%
X51710331Y-60500000D03*
%TO.P,J1,21,21*%
%TO.N,unconnected-(J1-Pad21)*%
X51710331Y-63270000D03*
%TO.P,J1,22,22*%
%TO.N,unconnected-(J1-Pad22)*%
X51710331Y-66040000D03*
%TO.P,J1,23,23*%
%TO.N,unconnected-(J1-Pad23)*%
X51710331Y-68810000D03*
%TO.P,J1,24,24*%
%TO.N,unconnected-(J1-Pad24)*%
X51710331Y-71580000D03*
%TO.P,J1,25,25*%
%TO.N,unconnected-(J1-Pad25)*%
X51710331Y-74350000D03*
%TO.P,J1,26,26*%
%TO.N,unconnected-(J1-Pad26)*%
X51710331Y-77120000D03*
%TO.P,J1,27,27*%
%TO.N,unconnected-(J1-Pad27)*%
X51710331Y-79890000D03*
%TO.P,J1,28,28*%
%TO.N,unconnected-(J1-Pad28)*%
X51710331Y-82660000D03*
%TO.P,J1,29,29*%
%TO.N,unconnected-(J1-Pad29)*%
X51710331Y-85430000D03*
%TO.P,J1,30,30*%
%TO.N,unconnected-(J1-Pad30)*%
X51710331Y-88200000D03*
%TO.P,J1,31,31*%
%TO.N,unconnected-(J1-Pad31)*%
X51710331Y-90970000D03*
%TO.P,J1,32,32*%
%TO.N,unconnected-(J1-Pad32)*%
X51710331Y-93740000D03*
%TO.P,J1,33,33*%
%TO.N,unconnected-(J1-Pad33)*%
X51710331Y-96510000D03*
%TO.P,J1,34,34*%
%TO.N,unconnected-(J1-Pad34)*%
X51710331Y-99280000D03*
%TO.P,J1,35,35*%
%TO.N,unconnected-(J1-Pad35)*%
X51710331Y-102050000D03*
%TO.P,J1,36,36*%
%TO.N,unconnected-(J1-Pad36)*%
X51710331Y-104820000D03*
%TO.P,J1,37,37*%
%TO.N,GND*%
X51710331Y-107590000D03*
%TD*%
%TO.P,R4,1*%
%TO.N,Net-(J6-In)*%
X69500000Y-94800000D03*
D12*
%TO.P,R4,2*%
%TO.N,GND*%
X82200000Y-94800000D03*
%TD*%
D11*
%TO.P,R2,1*%
%TO.N,Net-(J4-In)*%
X69550000Y-80750000D03*
D12*
%TO.P,R2,2*%
%TO.N,GND*%
X82250000Y-80750000D03*
%TD*%
D10*
%TO.P,J7,1,1*%
%TO.N,unconnected-(J7-Pad1)*%
X111760000Y-59275000D03*
D11*
%TO.P,J7,2,2*%
%TO.N,unconnected-(J7-Pad2)*%
X111760000Y-62045000D03*
%TO.P,J7,3,3*%
%TO.N,unconnected-(J7-Pad3)*%
X111760000Y-64815000D03*
%TO.P,J7,4,4*%
%TO.N,unconnected-(J7-Pad4)*%
X111760000Y-67585000D03*
%TO.P,J7,5,5*%
%TO.N,Net-(J1-Pad5)*%
X111760000Y-70355000D03*
%TO.P,J7,6,6*%
%TO.N,Net-(J1-Pad6)*%
X111760000Y-73125000D03*
%TO.P,J7,7,7*%
%TO.N,Net-(J1-Pad7)*%
X111760000Y-75895000D03*
%TO.P,J7,8,8*%
%TO.N,Net-(J1-Pad8)*%
X111760000Y-78665000D03*
%TO.P,J7,9,9*%
%TO.N,GND*%
X111760000Y-81435000D03*
%TO.P,J7,10,10*%
X111760000Y-84205000D03*
%TO.P,J7,11,11*%
X111760000Y-86975000D03*
%TO.P,J7,12,12*%
X111760000Y-89745000D03*
%TO.P,J7,13,13*%
X111760000Y-92515000D03*
%TO.P,J7,14,14*%
X111760000Y-95285000D03*
%TO.P,J7,15,15*%
X111760000Y-98055000D03*
%TO.P,J7,16,16*%
X111760000Y-100825000D03*
%TO.P,J7,17,17*%
%TO.N,unconnected-(J7-Pad17)*%
X111760000Y-103595000D03*
%TO.P,J7,18,18*%
%TO.N,unconnected-(J7-Pad18)*%
X111760000Y-106365000D03*
%TO.P,J7,19,19*%
%TO.N,unconnected-(J7-Pad19)*%
X111760000Y-109135000D03*
%TO.P,J7,20,20*%
%TO.N,unconnected-(J7-Pad20)*%
X114300000Y-60660000D03*
%TO.P,J7,21,21*%
%TO.N,unconnected-(J7-Pad21)*%
X114300000Y-63430000D03*
%TO.P,J7,22,22*%
%TO.N,unconnected-(J7-Pad22)*%
X114300000Y-66200000D03*
%TO.P,J7,23,23*%
%TO.N,unconnected-(J7-Pad23)*%
X114300000Y-68970000D03*
%TO.P,J7,24,24*%
%TO.N,unconnected-(J7-Pad24)*%
X114300000Y-71740000D03*
%TO.P,J7,25,25*%
%TO.N,unconnected-(J7-Pad25)*%
X114300000Y-74510000D03*
%TO.P,J7,26,26*%
%TO.N,unconnected-(J7-Pad26)*%
X114300000Y-77280000D03*
%TO.P,J7,27,27*%
%TO.N,unconnected-(J7-Pad27)*%
X114300000Y-80050000D03*
%TO.P,J7,28,28*%
%TO.N,unconnected-(J7-Pad28)*%
X114300000Y-82820000D03*
%TO.P,J7,29,29*%
%TO.N,unconnected-(J7-Pad29)*%
X114300000Y-85590000D03*
%TO.P,J7,30,30*%
%TO.N,unconnected-(J7-Pad30)*%
X114300000Y-88360000D03*
%TO.P,J7,31,31*%
%TO.N,unconnected-(J7-Pad31)*%
X114300000Y-91130000D03*
%TO.P,J7,32,32*%
%TO.N,unconnected-(J7-Pad32)*%
X114300000Y-93900000D03*
%TO.P,J7,33,33*%
%TO.N,unconnected-(J7-Pad33)*%
X114300000Y-96670000D03*
%TO.P,J7,34,34*%
%TO.N,unconnected-(J7-Pad34)*%
X114300000Y-99440000D03*
%TO.P,J7,35,35*%
%TO.N,unconnected-(J7-Pad35)*%
X114300000Y-102210000D03*
%TO.P,J7,36,36*%
%TO.N,unconnected-(J7-Pad36)*%
X114300000Y-104980000D03*
%TO.P,J7,37,37*%
%TO.N,GND*%
X114300000Y-107750000D03*
%TD*%
D13*
%TO.P,J3,1,In*%
%TO.N,Net-(J3-In)*%
X91740000Y-69200000D03*
D14*
%TO.P,J3,2,Ext*%
%TO.N,GND*%
X86660000Y-64120000D03*
D13*
X89200000Y-69200000D03*
D14*
X96820000Y-64120000D03*
%TD*%
D13*
%TO.P,J4,1,In*%
%TO.N,Net-(J4-In)*%
X74740000Y-69200000D03*
D14*
%TO.P,J4,2,Ext*%
%TO.N,GND*%
X69660000Y-64120000D03*
D13*
X72200000Y-69200000D03*
D14*
X79820000Y-64120000D03*
%TD*%
D13*
%TO.P,J5,1,In*%
%TO.N,Net-(J5-In)*%
X91800000Y-100050000D03*
D14*
%TO.P,J5,2,Ext*%
%TO.N,GND*%
X96880000Y-105130000D03*
D13*
X94340000Y-100050000D03*
D14*
X86720000Y-105130000D03*
%TD*%
D11*
%TO.P,R1,1*%
%TO.N,Net-(J3-In)*%
X84800000Y-80800000D03*
D12*
%TO.P,R1,2*%
%TO.N,GND*%
X97500000Y-80800000D03*
%TD*%
D13*
%TO.P,J6,1,In*%
%TO.N,Net-(J6-In)*%
X74800000Y-100050000D03*
D14*
%TO.P,J6,2,Ext*%
%TO.N,GND*%
X79880000Y-105130000D03*
D13*
X77340000Y-100050000D03*
D14*
X69720000Y-105130000D03*
%TD*%
D11*
%TO.P,R3,1*%
%TO.N,Net-(J5-In)*%
X84800000Y-94800000D03*
D12*
%TO.P,R3,2*%
%TO.N,GND*%
X97500000Y-94800000D03*
%TD*%
M02*
