%TF.GenerationSoftware,KiCad,Pcbnew,7.0.6*%
%TF.CreationDate,2023-08-22T16:48:19+01:00*%
%TF.ProjectId,trigger_cable,74726967-6765-4725-9f63-61626c652e6b,rev?*%
%TF.SameCoordinates,Original*%
%TF.FileFunction,Copper,L1,Top*%
%TF.FilePolarity,Positive*%
%FSLAX46Y46*%
G04 Gerber Fmt 4.6, Leading zero omitted, Abs format (unit mm)*
G04 Created by KiCad (PCBNEW 7.0.6) date 2023-08-22 16:48:19*
%MOMM*%
%LPD*%
G01*
G04 APERTURE LIST*
%TA.AperFunction,ComponentPad*%
%ADD10R,1.600000X1.600000*%
%TD*%
%TA.AperFunction,ComponentPad*%
%ADD11C,1.600000*%
%TD*%
%TA.AperFunction,ComponentPad*%
%ADD12O,1.600000X1.600000*%
%TD*%
%TA.AperFunction,ComponentPad*%
%ADD13O,1.600000X2.500000*%
%TD*%
%TA.AperFunction,ComponentPad*%
%ADD14O,3.500000X7.000000*%
%TD*%
%TA.AperFunction,Conductor*%
%ADD15C,0.500000*%
%TD*%
G04 APERTURE END LIST*
D10*
%TO.P,J1,1,1*%
%TO.N,Net-(J6-In)*%
X54250331Y-59115000D03*
D11*
%TO.P,J1,2,2*%
%TO.N,Net-(J5-In)*%
X54250331Y-61885000D03*
%TO.P,J1,3,3*%
%TO.N,Net-(J4-In)*%
X54250331Y-64655000D03*
%TO.P,J1,4,4*%
%TO.N,Net-(J3-In)*%
X54250331Y-67425000D03*
%TO.P,J1,5,5*%
%TO.N,Net-(J1-Pad5)*%
X54250331Y-70195000D03*
%TO.P,J1,6,6*%
%TO.N,Net-(J1-Pad6)*%
X54250331Y-72965000D03*
%TO.P,J1,7,7*%
%TO.N,Net-(J1-Pad7)*%
X54250331Y-75735000D03*
%TO.P,J1,8,8*%
%TO.N,Net-(J1-Pad8)*%
X54250331Y-78505000D03*
%TO.P,J1,9,9*%
%TO.N,GND*%
X54250331Y-81275000D03*
%TO.P,J1,10,10*%
X54250331Y-84045000D03*
%TO.P,J1,11,11*%
X54250331Y-86815000D03*
%TO.P,J1,12,12*%
X54250331Y-89585000D03*
%TO.P,J1,13,13*%
X54250331Y-92355000D03*
%TO.P,J1,14,14*%
X54250331Y-95125000D03*
%TO.P,J1,15,15*%
X54250331Y-97895000D03*
%TO.P,J1,16,16*%
X54250331Y-100665000D03*
%TO.P,J1,17,17*%
%TO.N,unconnected-(J1-Pad17)*%
X54250331Y-103435000D03*
%TO.P,J1,18,18*%
%TO.N,unconnected-(J1-Pad18)*%
X54250331Y-106205000D03*
%TO.P,J1,19,19*%
%TO.N,unconnected-(J1-Pad19)*%
X54250331Y-108975000D03*
%TO.P,J1,20,20*%
%TO.N,unconnected-(J1-Pad20)*%
X51710331Y-60500000D03*
%TO.P,J1,21,21*%
%TO.N,unconnected-(J1-Pad21)*%
X51710331Y-63270000D03*
%TO.P,J1,22,22*%
%TO.N,unconnected-(J1-Pad22)*%
X51710331Y-66040000D03*
%TO.P,J1,23,23*%
%TO.N,unconnected-(J1-Pad23)*%
X51710331Y-68810000D03*
%TO.P,J1,24,24*%
%TO.N,unconnected-(J1-Pad24)*%
X51710331Y-71580000D03*
%TO.P,J1,25,25*%
%TO.N,unconnected-(J1-Pad25)*%
X51710331Y-74350000D03*
%TO.P,J1,26,26*%
%TO.N,unconnected-(J1-Pad26)*%
X51710331Y-77120000D03*
%TO.P,J1,27,27*%
%TO.N,unconnected-(J1-Pad27)*%
X51710331Y-79890000D03*
%TO.P,J1,28,28*%
%TO.N,unconnected-(J1-Pad28)*%
X51710331Y-82660000D03*
%TO.P,J1,29,29*%
%TO.N,unconnected-(J1-Pad29)*%
X51710331Y-85430000D03*
%TO.P,J1,30,30*%
%TO.N,unconnected-(J1-Pad30)*%
X51710331Y-88200000D03*
%TO.P,J1,31,31*%
%TO.N,unconnected-(J1-Pad31)*%
X51710331Y-90970000D03*
%TO.P,J1,32,32*%
%TO.N,unconnected-(J1-Pad32)*%
X51710331Y-93740000D03*
%TO.P,J1,33,33*%
%TO.N,unconnected-(J1-Pad33)*%
X51710331Y-96510000D03*
%TO.P,J1,34,34*%
%TO.N,unconnected-(J1-Pad34)*%
X51710331Y-99280000D03*
%TO.P,J1,35,35*%
%TO.N,unconnected-(J1-Pad35)*%
X51710331Y-102050000D03*
%TO.P,J1,36,36*%
%TO.N,unconnected-(J1-Pad36)*%
X51710331Y-104820000D03*
%TO.P,J1,37,37*%
%TO.N,GND*%
X51710331Y-107590000D03*
%TD*%
%TO.P,R4,1*%
%TO.N,Net-(J6-In)*%
X69500000Y-94800000D03*
D12*
%TO.P,R4,2*%
%TO.N,GND*%
X82200000Y-94800000D03*
%TD*%
D11*
%TO.P,R2,1*%
%TO.N,Net-(J4-In)*%
X69550000Y-80750000D03*
D12*
%TO.P,R2,2*%
%TO.N,GND*%
X82250000Y-80750000D03*
%TD*%
D10*
%TO.P,J7,1,1*%
%TO.N,unconnected-(J7-Pad1)*%
X111760000Y-59275000D03*
D11*
%TO.P,J7,2,2*%
%TO.N,unconnected-(J7-Pad2)*%
X111760000Y-62045000D03*
%TO.P,J7,3,3*%
%TO.N,unconnected-(J7-Pad3)*%
X111760000Y-64815000D03*
%TO.P,J7,4,4*%
%TO.N,unconnected-(J7-Pad4)*%
X111760000Y-67585000D03*
%TO.P,J7,5,5*%
%TO.N,Net-(J1-Pad5)*%
X111760000Y-70355000D03*
%TO.P,J7,6,6*%
%TO.N,Net-(J1-Pad6)*%
X111760000Y-73125000D03*
%TO.P,J7,7,7*%
%TO.N,Net-(J1-Pad7)*%
X111760000Y-75895000D03*
%TO.P,J7,8,8*%
%TO.N,Net-(J1-Pad8)*%
X111760000Y-78665000D03*
%TO.P,J7,9,9*%
%TO.N,GND*%
X111760000Y-81435000D03*
%TO.P,J7,10,10*%
X111760000Y-84205000D03*
%TO.P,J7,11,11*%
X111760000Y-86975000D03*
%TO.P,J7,12,12*%
X111760000Y-89745000D03*
%TO.P,J7,13,13*%
X111760000Y-92515000D03*
%TO.P,J7,14,14*%
X111760000Y-95285000D03*
%TO.P,J7,15,15*%
X111760000Y-98055000D03*
%TO.P,J7,16,16*%
X111760000Y-100825000D03*
%TO.P,J7,17,17*%
%TO.N,unconnected-(J7-Pad17)*%
X111760000Y-103595000D03*
%TO.P,J7,18,18*%
%TO.N,unconnected-(J7-Pad18)*%
X111760000Y-106365000D03*
%TO.P,J7,19,19*%
%TO.N,unconnected-(J7-Pad19)*%
X111760000Y-109135000D03*
%TO.P,J7,20,20*%
%TO.N,unconnected-(J7-Pad20)*%
X114300000Y-60660000D03*
%TO.P,J7,21,21*%
%TO.N,unconnected-(J7-Pad21)*%
X114300000Y-63430000D03*
%TO.P,J7,22,22*%
%TO.N,unconnected-(J7-Pad22)*%
X114300000Y-66200000D03*
%TO.P,J7,23,23*%
%TO.N,unconnected-(J7-Pad23)*%
X114300000Y-68970000D03*
%TO.P,J7,24,24*%
%TO.N,unconnected-(J7-Pad24)*%
X114300000Y-71740000D03*
%TO.P,J7,25,25*%
%TO.N,unconnected-(J7-Pad25)*%
X114300000Y-74510000D03*
%TO.P,J7,26,26*%
%TO.N,unconnected-(J7-Pad26)*%
X114300000Y-77280000D03*
%TO.P,J7,27,27*%
%TO.N,unconnected-(J7-Pad27)*%
X114300000Y-80050000D03*
%TO.P,J7,28,28*%
%TO.N,unconnected-(J7-Pad28)*%
X114300000Y-82820000D03*
%TO.P,J7,29,29*%
%TO.N,unconnected-(J7-Pad29)*%
X114300000Y-85590000D03*
%TO.P,J7,30,30*%
%TO.N,unconnected-(J7-Pad30)*%
X114300000Y-88360000D03*
%TO.P,J7,31,31*%
%TO.N,unconnected-(J7-Pad31)*%
X114300000Y-91130000D03*
%TO.P,J7,32,32*%
%TO.N,unconnected-(J7-Pad32)*%
X114300000Y-93900000D03*
%TO.P,J7,33,33*%
%TO.N,unconnected-(J7-Pad33)*%
X114300000Y-96670000D03*
%TO.P,J7,34,34*%
%TO.N,unconnected-(J7-Pad34)*%
X114300000Y-99440000D03*
%TO.P,J7,35,35*%
%TO.N,unconnected-(J7-Pad35)*%
X114300000Y-102210000D03*
%TO.P,J7,36,36*%
%TO.N,unconnected-(J7-Pad36)*%
X114300000Y-104980000D03*
%TO.P,J7,37,37*%
%TO.N,GND*%
X114300000Y-107750000D03*
%TD*%
D13*
%TO.P,J3,1,In*%
%TO.N,Net-(J3-In)*%
X91740000Y-69200000D03*
D14*
%TO.P,J3,2,Ext*%
%TO.N,GND*%
X86660000Y-64120000D03*
D13*
X89200000Y-69200000D03*
D14*
X96820000Y-64120000D03*
%TD*%
D13*
%TO.P,J4,1,In*%
%TO.N,Net-(J4-In)*%
X74740000Y-69200000D03*
D14*
%TO.P,J4,2,Ext*%
%TO.N,GND*%
X69660000Y-64120000D03*
D13*
X72200000Y-69200000D03*
D14*
X79820000Y-64120000D03*
%TD*%
D13*
%TO.P,J5,1,In*%
%TO.N,Net-(J5-In)*%
X91800000Y-100050000D03*
D14*
%TO.P,J5,2,Ext*%
%TO.N,GND*%
X96880000Y-105130000D03*
D13*
X94340000Y-100050000D03*
D14*
X86720000Y-105130000D03*
%TD*%
D11*
%TO.P,R1,1*%
%TO.N,Net-(J3-In)*%
X84800000Y-80800000D03*
D12*
%TO.P,R1,2*%
%TO.N,GND*%
X97500000Y-80800000D03*
%TD*%
D13*
%TO.P,J6,1,In*%
%TO.N,Net-(J6-In)*%
X74800000Y-100050000D03*
D14*
%TO.P,J6,2,Ext*%
%TO.N,GND*%
X79880000Y-105130000D03*
D13*
X77340000Y-100050000D03*
D14*
X69720000Y-105130000D03*
%TD*%
D11*
%TO.P,R3,1*%
%TO.N,Net-(J5-In)*%
X84800000Y-94800000D03*
D12*
%TO.P,R3,2*%
%TO.N,GND*%
X97500000Y-94800000D03*
%TD*%
D15*
%TO.N,Net-(J4-In)*%
X57243000Y-64655000D02*
X69550000Y-76962000D01*
X54250331Y-64655000D02*
X57243000Y-64655000D01*
X69550000Y-75850000D02*
X69550000Y-76962000D01*
X69550000Y-76962000D02*
X69550000Y-80750000D01*
%TO.N,Net-(J1-Pad8)*%
X64220000Y-78505000D02*
X69315000Y-83600000D01*
X54250331Y-78505000D02*
X64220000Y-78505000D01*
%TO.N,Net-(J1-Pad7)*%
X50460331Y-80407767D02*
X50460331Y-76539669D01*
X51192564Y-81140000D02*
X50460331Y-80407767D01*
X51265000Y-75735000D02*
X54250331Y-75735000D01*
X52347564Y-81140000D02*
X51192564Y-81140000D01*
X53732564Y-82525000D02*
X52347564Y-81140000D01*
X55855000Y-82525000D02*
X53732564Y-82525000D01*
X50460331Y-76539669D02*
X51265000Y-75735000D01*
X57730000Y-84400000D02*
X55855000Y-82525000D01*
X105084000Y-84400000D02*
X57730000Y-84400000D01*
X109474000Y-80010000D02*
X105084000Y-84400000D01*
X112522000Y-80010000D02*
X109474000Y-80010000D01*
X113030000Y-79502000D02*
X112522000Y-80010000D01*
X113030000Y-77165000D02*
X113030000Y-79502000D01*
X111760000Y-75895000D02*
X113030000Y-77165000D01*
%TO.N,Net-(J1-Pad6)*%
X54183331Y-72898000D02*
X54250331Y-72965000D01*
X51376000Y-72898000D02*
X54183331Y-72898000D01*
X49344000Y-74930000D02*
X51376000Y-72898000D01*
X49344000Y-82061436D02*
X49344000Y-74930000D01*
X51192564Y-83910000D02*
X49344000Y-82061436D01*
X51958098Y-83910000D02*
X51192564Y-83910000D01*
X53343098Y-85295000D02*
X51958098Y-83910000D01*
X71305000Y-85295000D02*
X53343098Y-85295000D01*
X71400000Y-85200000D02*
X71305000Y-85295000D01*
%TO.N,Net-(J1-Pad5)*%
X51327564Y-70195000D02*
X54250331Y-70195000D01*
X48644000Y-72878564D02*
X51327564Y-70195000D01*
X51192564Y-86680000D02*
X48644000Y-84131436D01*
X52347564Y-86680000D02*
X51192564Y-86680000D01*
X53805564Y-88138000D02*
X52347564Y-86680000D01*
X73700000Y-85900000D02*
X71462000Y-88138000D01*
X106124000Y-85900000D02*
X73700000Y-85900000D01*
X106426000Y-85598000D02*
X106124000Y-85900000D01*
X112524233Y-85598000D02*
X106426000Y-85598000D01*
X115066000Y-84070000D02*
X114052233Y-84070000D01*
X114052233Y-84070000D02*
X112524233Y-85598000D01*
X116586000Y-82550000D02*
X115066000Y-84070000D01*
X116586000Y-71882000D02*
X116586000Y-82550000D01*
X71462000Y-88138000D02*
X53805564Y-88138000D01*
X115059000Y-70355000D02*
X116586000Y-71882000D01*
X48644000Y-84131436D02*
X48644000Y-72878564D01*
X111760000Y-70355000D02*
X115059000Y-70355000D01*
%TO.N,Net-(J3-In)*%
X69325050Y-82499719D02*
X54250331Y-67425000D01*
X69325050Y-82600000D02*
X69325050Y-82499719D01*
%TO.N,Net-(J5-In)*%
X83000000Y-93000000D02*
X84800000Y-94800000D01*
X68800000Y-93000000D02*
X83000000Y-93000000D01*
X65340000Y-96460000D02*
X68800000Y-93000000D01*
X65340000Y-101889950D02*
X65340000Y-96460000D01*
X64359950Y-102870000D02*
X65340000Y-101889950D01*
X58674000Y-102870000D02*
X64359950Y-102870000D01*
X56388000Y-105156000D02*
X58674000Y-102870000D01*
X56388000Y-109474000D02*
X56388000Y-105156000D01*
X55118000Y-110744000D02*
X56388000Y-109474000D01*
X50800000Y-58420000D02*
X47944000Y-61276000D01*
X51816000Y-110744000D02*
X55118000Y-110744000D01*
X47944000Y-61276000D02*
X47944000Y-106872000D01*
X53000331Y-58842331D02*
X52578000Y-58420000D01*
X54250331Y-61885000D02*
X53000331Y-60635000D01*
X53000331Y-60635000D02*
X53000331Y-58842331D01*
X52578000Y-58420000D02*
X50800000Y-58420000D01*
X47944000Y-106872000D02*
X51816000Y-110744000D01*
%TO.N,Net-(J6-In)*%
X54250331Y-58060331D02*
X54250331Y-59115000D01*
X53086000Y-56896000D02*
X54250331Y-58060331D01*
X50800000Y-56896000D02*
X53086000Y-56896000D01*
X47244000Y-108204000D02*
X47244000Y-60452000D01*
X60960000Y-111760000D02*
X50800000Y-111760000D01*
X66040000Y-106680000D02*
X60960000Y-111760000D01*
X50800000Y-111760000D02*
X47244000Y-108204000D01*
X69500000Y-98140000D02*
X66040000Y-101600000D01*
X66040000Y-101600000D02*
X66040000Y-106680000D01*
X69500000Y-94800000D02*
X69500000Y-98140000D01*
X47244000Y-60452000D02*
X50800000Y-56896000D01*
X74750000Y-100050000D02*
X69500000Y-94800000D01*
X74800000Y-100050000D02*
X74750000Y-100050000D01*
%TO.N,Net-(J1-Pad8)*%
X101735000Y-78665000D02*
X111760000Y-78665000D01*
X96800000Y-83600000D02*
X101735000Y-78665000D01*
X69315000Y-83600000D02*
X96800000Y-83600000D01*
%TO.N,Net-(J1-Pad6)*%
X114527000Y-73125000D02*
X111760000Y-73125000D01*
X114554000Y-73152000D02*
X114527000Y-73125000D01*
X114709767Y-73152000D02*
X114554000Y-73152000D01*
X115886000Y-80231767D02*
X115886000Y-74328233D01*
X114817767Y-81300000D02*
X115886000Y-80231767D01*
X113772000Y-81300000D02*
X114817767Y-81300000D01*
X112117000Y-82955000D02*
X113772000Y-81300000D01*
X115886000Y-74328233D02*
X114709767Y-73152000D01*
X107909000Y-82955000D02*
X112117000Y-82955000D01*
X105664000Y-85200000D02*
X107909000Y-82955000D01*
X71400000Y-85200000D02*
X105664000Y-85200000D01*
%TO.N,Net-(J5-In)*%
X86550000Y-94800000D02*
X91800000Y-100050000D01*
X84800000Y-94800000D02*
X86550000Y-94800000D01*
%TO.N,Net-(J4-In)*%
X74740000Y-69200000D02*
X74740000Y-70660000D01*
X74740000Y-70660000D02*
X69550000Y-75850000D01*
%TO.N,Net-(J3-In)*%
X69325050Y-82600000D02*
X83000000Y-82600000D01*
X84800000Y-76140000D02*
X91740000Y-69200000D01*
X84800000Y-80800000D02*
X84800000Y-76140000D01*
X83000000Y-82600000D02*
X84800000Y-80800000D01*
%TD*%
%TA.AperFunction,Conductor*%
%TO.N,GND*%
G36*
X53152584Y-55895198D02*
G01*
X53153640Y-55895510D01*
X53156737Y-55895204D01*
X121796190Y-55999811D01*
X121863198Y-56019598D01*
X121908873Y-56072471D01*
X121920000Y-56123811D01*
X121920000Y-111875621D01*
X121900315Y-111942660D01*
X121847511Y-111988415D01*
X121795622Y-111999620D01*
X62262186Y-111818162D01*
X62195207Y-111798274D01*
X62149613Y-111745330D01*
X62139880Y-111676142D01*
X62169099Y-111612675D01*
X62174854Y-111606512D01*
X66525642Y-107255724D01*
X66539271Y-107243947D01*
X66558530Y-107229610D01*
X66592101Y-107189601D01*
X66595761Y-107185606D01*
X66601590Y-107179778D01*
X66621941Y-107154039D01*
X66630639Y-107143673D01*
X66671302Y-107095214D01*
X66671306Y-107095205D01*
X66675274Y-107089175D01*
X66675325Y-107089208D01*
X66679372Y-107082856D01*
X66679320Y-107082824D01*
X66683112Y-107076675D01*
X66715575Y-107007058D01*
X66741601Y-106955236D01*
X67470000Y-106955236D01*
X67485084Y-107180564D01*
X67485086Y-107180573D01*
X67545083Y-107475758D01*
X67545087Y-107475773D01*
X67643901Y-107760343D01*
X67643903Y-107760346D01*
X67779759Y-108029198D01*
X67950254Y-108277564D01*
X68152314Y-108500971D01*
X68382361Y-108695464D01*
X68636271Y-108857554D01*
X68636273Y-108857555D01*
X68909514Y-108984351D01*
X68909528Y-108984356D01*
X69197234Y-109073605D01*
X69470000Y-109119614D01*
X69470000Y-106104625D01*
X69617801Y-106135000D01*
X69770967Y-106135000D01*
X69923348Y-106119504D01*
X69970000Y-106104867D01*
X69970000Y-109116207D01*
X70095076Y-109103624D01*
X70095079Y-109103623D01*
X70388107Y-109033791D01*
X70388116Y-109033789D01*
X70669216Y-108925525D01*
X70669231Y-108925518D01*
X70933395Y-108780751D01*
X70933401Y-108780747D01*
X71175911Y-108602064D01*
X71392451Y-108392644D01*
X71392457Y-108392637D01*
X71579145Y-108156231D01*
X71732657Y-107897051D01*
X71732666Y-107897033D01*
X71850260Y-107619716D01*
X71850265Y-107619699D01*
X71929848Y-107329173D01*
X71970000Y-107030616D01*
X71970000Y-106955236D01*
X77630000Y-106955236D01*
X77645084Y-107180564D01*
X77645086Y-107180573D01*
X77705083Y-107475758D01*
X77705087Y-107475773D01*
X77803901Y-107760343D01*
X77803903Y-107760346D01*
X77939759Y-108029198D01*
X78110254Y-108277564D01*
X78312314Y-108500971D01*
X78542361Y-108695464D01*
X78796271Y-108857554D01*
X78796273Y-108857555D01*
X79069514Y-108984351D01*
X79069528Y-108984356D01*
X79357234Y-109073605D01*
X79630000Y-109119614D01*
X79630000Y-106104625D01*
X79777801Y-106135000D01*
X79930967Y-106135000D01*
X80083348Y-106119504D01*
X80130000Y-106104867D01*
X80130000Y-109116207D01*
X80255076Y-109103624D01*
X80255079Y-109103623D01*
X80548107Y-109033791D01*
X80548116Y-109033789D01*
X80829216Y-108925525D01*
X80829231Y-108925518D01*
X81093395Y-108780751D01*
X81093401Y-108780747D01*
X81335911Y-108602064D01*
X81552451Y-108392644D01*
X81552457Y-108392637D01*
X81739145Y-108156231D01*
X81892657Y-107897051D01*
X81892666Y-107897033D01*
X82010260Y-107619716D01*
X82010265Y-107619699D01*
X82089848Y-107329173D01*
X82130000Y-107030616D01*
X82130000Y-106955236D01*
X84470000Y-106955236D01*
X84485084Y-107180564D01*
X84485086Y-107180573D01*
X84545083Y-107475758D01*
X84545087Y-107475773D01*
X84643901Y-107760343D01*
X84643903Y-107760346D01*
X84779759Y-108029198D01*
X84950254Y-108277564D01*
X85152314Y-108500971D01*
X85382361Y-108695464D01*
X85636271Y-108857554D01*
X85636273Y-108857555D01*
X85909514Y-108984351D01*
X85909528Y-108984356D01*
X86197234Y-109073605D01*
X86470000Y-109119614D01*
X86470000Y-106104625D01*
X86617801Y-106135000D01*
X86770967Y-106135000D01*
X86923348Y-106119504D01*
X86970000Y-106104867D01*
X86970000Y-109116207D01*
X87095076Y-109103624D01*
X87095079Y-109103623D01*
X87388107Y-109033791D01*
X87388116Y-109033789D01*
X87669216Y-108925525D01*
X87669231Y-108925518D01*
X87933395Y-108780751D01*
X87933401Y-108780747D01*
X88175911Y-108602064D01*
X88392451Y-108392644D01*
X88392457Y-108392637D01*
X88579145Y-108156231D01*
X88732657Y-107897051D01*
X88732666Y-107897033D01*
X88850260Y-107619716D01*
X88850265Y-107619699D01*
X88929848Y-107329173D01*
X88970000Y-107030616D01*
X88970000Y-106955236D01*
X94630000Y-106955236D01*
X94645084Y-107180564D01*
X94645086Y-107180573D01*
X94705083Y-107475758D01*
X94705087Y-107475773D01*
X94803901Y-107760343D01*
X94803903Y-107760346D01*
X94939759Y-108029198D01*
X95110254Y-108277564D01*
X95312314Y-108500971D01*
X95542361Y-108695464D01*
X95796271Y-108857554D01*
X95796273Y-108857555D01*
X96069514Y-108984351D01*
X96069528Y-108984356D01*
X96357234Y-109073605D01*
X96630000Y-109119614D01*
X96630000Y-106104625D01*
X96777801Y-106135000D01*
X96930967Y-106135000D01*
X97083348Y-106119504D01*
X97130000Y-106104867D01*
X97130000Y-109116207D01*
X97255076Y-109103624D01*
X97255079Y-109103623D01*
X97548107Y-109033791D01*
X97548116Y-109033789D01*
X97829216Y-108925525D01*
X97829231Y-108925518D01*
X98093395Y-108780751D01*
X98093401Y-108780747D01*
X98335911Y-108602064D01*
X98552451Y-108392644D01*
X98552457Y-108392637D01*
X98739145Y-108156231D01*
X98892657Y-107897051D01*
X98892666Y-107897033D01*
X99010260Y-107619716D01*
X99010265Y-107619699D01*
X99089848Y-107329173D01*
X99130000Y-107030616D01*
X99130000Y-106747763D01*
X104825787Y-106747763D01*
X104855413Y-107017013D01*
X104855415Y-107017024D01*
X104923926Y-107279082D01*
X104923928Y-107279088D01*
X105029870Y-107528390D01*
X105165117Y-107750000D01*
X105170979Y-107759605D01*
X105170986Y-107759615D01*
X105344253Y-107967819D01*
X105344259Y-107967824D01*
X105401106Y-108018759D01*
X105545998Y-108148582D01*
X105771910Y-108298044D01*
X106017176Y-108413020D01*
X106017183Y-108413022D01*
X106017185Y-108413023D01*
X106276557Y-108491057D01*
X106276564Y-108491058D01*
X106276569Y-108491060D01*
X106544561Y-108530500D01*
X106544566Y-108530500D01*
X106747636Y-108530500D01*
X106799133Y-108526730D01*
X106950156Y-108515677D01*
X107062758Y-108490593D01*
X107214546Y-108456782D01*
X107214548Y-108456781D01*
X107214553Y-108456780D01*
X107467558Y-108360014D01*
X107703777Y-108227441D01*
X107918177Y-108061888D01*
X108106186Y-107866881D01*
X108263799Y-107646579D01*
X108374256Y-107431739D01*
X108387649Y-107405690D01*
X108387651Y-107405684D01*
X108387656Y-107405675D01*
X108475118Y-107149305D01*
X108524319Y-106882933D01*
X108534212Y-106612235D01*
X108504586Y-106342982D01*
X108436072Y-106080912D01*
X108330130Y-105831610D01*
X108189018Y-105600390D01*
X108126995Y-105525861D01*
X108015746Y-105392180D01*
X108015740Y-105392175D01*
X107814002Y-105211418D01*
X107588092Y-105061957D01*
X107582919Y-105059532D01*
X107342824Y-104946980D01*
X107342819Y-104946978D01*
X107342814Y-104946976D01*
X107083442Y-104868942D01*
X107083428Y-104868939D01*
X106967791Y-104851921D01*
X106815439Y-104829500D01*
X106612369Y-104829500D01*
X106612364Y-104829500D01*
X106409844Y-104844323D01*
X106409831Y-104844325D01*
X106145453Y-104903217D01*
X106145446Y-104903220D01*
X105892439Y-104999987D01*
X105656226Y-105132557D01*
X105656224Y-105132558D01*
X105656223Y-105132559D01*
X105648839Y-105138261D01*
X105441822Y-105298112D01*
X105253822Y-105493109D01*
X105253816Y-105493116D01*
X105096202Y-105713419D01*
X105096199Y-105713424D01*
X104972350Y-105954309D01*
X104972343Y-105954327D01*
X104884884Y-106210685D01*
X104884882Y-106210695D01*
X104837366Y-106467948D01*
X104835681Y-106477068D01*
X104835680Y-106477075D01*
X104825787Y-106747763D01*
X99130000Y-106747763D01*
X99130000Y-105380000D01*
X97853411Y-105380000D01*
X97878534Y-105282970D01*
X97888886Y-105078835D01*
X97858426Y-104880000D01*
X99130000Y-104880000D01*
X99130000Y-103304764D01*
X99114915Y-103079435D01*
X99114913Y-103079426D01*
X99054916Y-102784241D01*
X99054912Y-102784226D01*
X98956098Y-102499656D01*
X98956096Y-102499653D01*
X98820240Y-102230801D01*
X98649745Y-101982435D01*
X98447685Y-101759028D01*
X98217638Y-101564535D01*
X97963728Y-101402445D01*
X97963726Y-101402444D01*
X97690485Y-101275648D01*
X97690471Y-101275643D01*
X97402765Y-101186394D01*
X97130000Y-101140384D01*
X97130000Y-104155374D01*
X96982199Y-104125000D01*
X96829033Y-104125000D01*
X96676652Y-104140496D01*
X96630000Y-104155132D01*
X96630000Y-101143792D01*
X96504922Y-101156375D01*
X96504920Y-101156376D01*
X96211892Y-101226208D01*
X96211883Y-101226210D01*
X95930783Y-101334474D01*
X95930768Y-101334481D01*
X95666604Y-101479248D01*
X95666598Y-101479252D01*
X95424088Y-101657935D01*
X95207548Y-101867355D01*
X95207542Y-101867362D01*
X95020854Y-102103768D01*
X94867342Y-102362948D01*
X94867333Y-102362966D01*
X94749739Y-102640283D01*
X94749734Y-102640300D01*
X94670151Y-102930826D01*
X94630000Y-103229383D01*
X94630000Y-104880000D01*
X95906589Y-104880000D01*
X95881466Y-104977030D01*
X95871114Y-105181165D01*
X95901574Y-105380000D01*
X94630000Y-105380000D01*
X94630000Y-106955236D01*
X88970000Y-106955236D01*
X88970000Y-105380000D01*
X87693411Y-105380000D01*
X87718534Y-105282970D01*
X87728886Y-105078835D01*
X87698426Y-104880000D01*
X88970000Y-104880000D01*
X88970000Y-103304764D01*
X88954915Y-103079435D01*
X88954913Y-103079426D01*
X88894916Y-102784241D01*
X88894912Y-102784226D01*
X88796098Y-102499656D01*
X88796096Y-102499653D01*
X88660240Y-102230801D01*
X88489745Y-101982435D01*
X88287685Y-101759028D01*
X88057638Y-101564535D01*
X87803728Y-101402445D01*
X87803726Y-101402444D01*
X87530485Y-101275648D01*
X87530471Y-101275643D01*
X87242765Y-101186394D01*
X86970000Y-101140384D01*
X86970000Y-104155374D01*
X86822199Y-104125000D01*
X86669033Y-104125000D01*
X86516652Y-104140496D01*
X86470000Y-104155132D01*
X86470000Y-101143792D01*
X86344922Y-101156375D01*
X86344920Y-101156376D01*
X86051892Y-101226208D01*
X86051883Y-101226210D01*
X85770783Y-101334474D01*
X85770768Y-101334481D01*
X85506604Y-101479248D01*
X85506598Y-101479252D01*
X85264088Y-101657935D01*
X85047548Y-101867355D01*
X85047542Y-101867362D01*
X84860854Y-102103768D01*
X84707342Y-102362948D01*
X84707333Y-102362966D01*
X84589739Y-102640283D01*
X84589734Y-102640300D01*
X84510151Y-102930826D01*
X84470000Y-103229383D01*
X84470000Y-104880000D01*
X85746589Y-104880000D01*
X85721466Y-104977030D01*
X85711114Y-105181165D01*
X85741574Y-105380000D01*
X84470000Y-105380000D01*
X84470000Y-106955236D01*
X82130000Y-106955236D01*
X82130000Y-105380000D01*
X80853411Y-105380000D01*
X80878534Y-105282970D01*
X80888886Y-105078835D01*
X80858426Y-104880000D01*
X82130000Y-104880000D01*
X82130000Y-103304764D01*
X82114915Y-103079435D01*
X82114913Y-103079426D01*
X82054916Y-102784241D01*
X82054912Y-102784226D01*
X81956098Y-102499656D01*
X81956096Y-102499653D01*
X81820240Y-102230801D01*
X81649745Y-101982435D01*
X81447685Y-101759028D01*
X81217638Y-101564535D01*
X80963728Y-101402445D01*
X80963726Y-101402444D01*
X80690485Y-101275648D01*
X80690471Y-101275643D01*
X80402765Y-101186394D01*
X80130000Y-101140384D01*
X80130000Y-104155374D01*
X79982199Y-104125000D01*
X79829033Y-104125000D01*
X79676652Y-104140496D01*
X79630000Y-104155132D01*
X79630000Y-101143792D01*
X79504922Y-101156375D01*
X79504920Y-101156376D01*
X79211892Y-101226208D01*
X79211883Y-101226210D01*
X78930783Y-101334474D01*
X78930768Y-101334481D01*
X78666604Y-101479248D01*
X78666598Y-101479252D01*
X78424088Y-101657935D01*
X78207548Y-101867355D01*
X78207542Y-101867362D01*
X78020854Y-102103768D01*
X77867342Y-102362948D01*
X77867333Y-102362966D01*
X77749739Y-102640283D01*
X77749734Y-102640300D01*
X77670151Y-102930826D01*
X77630000Y-103229383D01*
X77630000Y-104880000D01*
X78906589Y-104880000D01*
X78881466Y-104977030D01*
X78871114Y-105181165D01*
X78901574Y-105380000D01*
X77630000Y-105380000D01*
X77630000Y-106955236D01*
X71970000Y-106955236D01*
X71970000Y-105380000D01*
X70693411Y-105380000D01*
X70718534Y-105282970D01*
X70728886Y-105078835D01*
X70698426Y-104880000D01*
X71970000Y-104880000D01*
X71970000Y-103304764D01*
X71954915Y-103079435D01*
X71954913Y-103079426D01*
X71894916Y-102784241D01*
X71894912Y-102784226D01*
X71796098Y-102499656D01*
X71796096Y-102499653D01*
X71660240Y-102230801D01*
X71489745Y-101982435D01*
X71287685Y-101759028D01*
X71057638Y-101564535D01*
X70803728Y-101402445D01*
X70803726Y-101402444D01*
X70530485Y-101275648D01*
X70530471Y-101275643D01*
X70242765Y-101186394D01*
X69970000Y-101140384D01*
X69970000Y-104155374D01*
X69822199Y-104125000D01*
X69669033Y-104125000D01*
X69516652Y-104140496D01*
X69470000Y-104155132D01*
X69470000Y-101143792D01*
X69344922Y-101156375D01*
X69344920Y-101156376D01*
X69051892Y-101226208D01*
X69051883Y-101226210D01*
X68770783Y-101334474D01*
X68770768Y-101334481D01*
X68506604Y-101479248D01*
X68506598Y-101479252D01*
X68264088Y-101657935D01*
X68047548Y-101867355D01*
X68047542Y-101867362D01*
X67860854Y-102103768D01*
X67707342Y-102362948D01*
X67707333Y-102362966D01*
X67589739Y-102640283D01*
X67589734Y-102640300D01*
X67510151Y-102930826D01*
X67470000Y-103229383D01*
X67470000Y-104880000D01*
X68746589Y-104880000D01*
X68721466Y-104977030D01*
X68711114Y-105181165D01*
X68741574Y-105380000D01*
X67470000Y-105380000D01*
X67470000Y-106955236D01*
X66741601Y-106955236D01*
X66750036Y-106938440D01*
X66750040Y-106938433D01*
X66750042Y-106938421D01*
X66752509Y-106931646D01*
X66752567Y-106931667D01*
X66755043Y-106924546D01*
X66754986Y-106924528D01*
X66757257Y-106917673D01*
X66772792Y-106842434D01*
X66779019Y-106816162D01*
X66790500Y-106767721D01*
X66790500Y-106767710D01*
X66791338Y-106760548D01*
X66791398Y-106760555D01*
X66792164Y-106753055D01*
X66792105Y-106753050D01*
X66792734Y-106745860D01*
X66792644Y-106742782D01*
X66790500Y-106669082D01*
X66790499Y-101962228D01*
X66810184Y-101895190D01*
X66826813Y-101874553D01*
X69985642Y-98715724D01*
X69999271Y-98703947D01*
X70018530Y-98689610D01*
X70052101Y-98649601D01*
X70055761Y-98645606D01*
X70061590Y-98639778D01*
X70081941Y-98614039D01*
X70093761Y-98599953D01*
X70131302Y-98555214D01*
X70131306Y-98555205D01*
X70135274Y-98549175D01*
X70135325Y-98549208D01*
X70139372Y-98542856D01*
X70139320Y-98542824D01*
X70143112Y-98536675D01*
X70175575Y-98467058D01*
X70204957Y-98408553D01*
X70210040Y-98398433D01*
X70210042Y-98398421D01*
X70212509Y-98391646D01*
X70212567Y-98391667D01*
X70215043Y-98384546D01*
X70214986Y-98384528D01*
X70217257Y-98377673D01*
X70232792Y-98302434D01*
X70234665Y-98294532D01*
X70250500Y-98227721D01*
X70250500Y-98227710D01*
X70251338Y-98220548D01*
X70251398Y-98220555D01*
X70252164Y-98213055D01*
X70252105Y-98213050D01*
X70252734Y-98205860D01*
X70250500Y-98129082D01*
X70250500Y-96911229D01*
X70270185Y-96844190D01*
X70322989Y-96798435D01*
X70392147Y-96788491D01*
X70455703Y-96817516D01*
X70462181Y-96823548D01*
X73463181Y-99824548D01*
X73496666Y-99885871D01*
X73499500Y-99912229D01*
X73499500Y-100556784D01*
X73514364Y-100726687D01*
X73514366Y-100726697D01*
X73573258Y-100946488D01*
X73573261Y-100946497D01*
X73669431Y-101152732D01*
X73669432Y-101152734D01*
X73799954Y-101339141D01*
X73960858Y-101500045D01*
X73960861Y-101500047D01*
X74147266Y-101630568D01*
X74353504Y-101726739D01*
X74573308Y-101785635D01*
X74735230Y-101799801D01*
X74799998Y-101805468D01*
X74800000Y-101805468D01*
X74800002Y-101805468D01*
X74856673Y-101800509D01*
X75026692Y-101785635D01*
X75246496Y-101726739D01*
X75452734Y-101630568D01*
X75639139Y-101500047D01*
X75800047Y-101339139D01*
X75930568Y-101152734D01*
X75957895Y-101094129D01*
X76004064Y-101041695D01*
X76071257Y-101022542D01*
X76138139Y-101042757D01*
X76182657Y-101094133D01*
X76209865Y-101152482D01*
X76340342Y-101338820D01*
X76501179Y-101499657D01*
X76687517Y-101630134D01*
X76893673Y-101726265D01*
X76893682Y-101726269D01*
X77089999Y-101778872D01*
X77090000Y-101778871D01*
X77090000Y-100418137D01*
X77144741Y-100455459D01*
X77272927Y-100495000D01*
X77373346Y-100495000D01*
X77472647Y-100480033D01*
X77590000Y-100423518D01*
X77590000Y-101778872D01*
X77786317Y-101726269D01*
X77786326Y-101726265D01*
X77992482Y-101630134D01*
X78178820Y-101499657D01*
X78339657Y-101338820D01*
X78470134Y-101152482D01*
X78566265Y-100946326D01*
X78566269Y-100946317D01*
X78625139Y-100726610D01*
X78625141Y-100726599D01*
X78640000Y-100556763D01*
X78640000Y-100300000D01*
X77709503Y-100300000D01*
X77758917Y-100214413D01*
X77788768Y-100083630D01*
X77778743Y-99949860D01*
X77729734Y-99824987D01*
X77709807Y-99800000D01*
X78640000Y-99800000D01*
X78640000Y-99543237D01*
X78625141Y-99373400D01*
X78625139Y-99373389D01*
X78566269Y-99153682D01*
X78566265Y-99153673D01*
X78470134Y-98947517D01*
X78339657Y-98761179D01*
X78178820Y-98600342D01*
X77992482Y-98469865D01*
X77786328Y-98373734D01*
X77590000Y-98321127D01*
X77590000Y-99681862D01*
X77535259Y-99644541D01*
X77407073Y-99605000D01*
X77306654Y-99605000D01*
X77207353Y-99619967D01*
X77090000Y-99676481D01*
X77090000Y-98321127D01*
X76893671Y-98373734D01*
X76687517Y-98469865D01*
X76501179Y-98600342D01*
X76340342Y-98761179D01*
X76209867Y-98947515D01*
X76182657Y-99005867D01*
X76136484Y-99058306D01*
X76069290Y-99077457D01*
X76002409Y-99057241D01*
X75957893Y-99005865D01*
X75952132Y-98993511D01*
X75930568Y-98947266D01*
X75800047Y-98760861D01*
X75800045Y-98760858D01*
X75639141Y-98599954D01*
X75452734Y-98469432D01*
X75452732Y-98469431D01*
X75246497Y-98373261D01*
X75246488Y-98373258D01*
X75026697Y-98314366D01*
X75026693Y-98314365D01*
X75026692Y-98314365D01*
X75026691Y-98314364D01*
X75026686Y-98314364D01*
X74800002Y-98294532D01*
X74799998Y-98294532D01*
X74573313Y-98314364D01*
X74573302Y-98314366D01*
X74353511Y-98373258D01*
X74353506Y-98373260D01*
X74353503Y-98373261D01*
X74353504Y-98373261D01*
X74282922Y-98406173D01*
X74213846Y-98416664D01*
X74150063Y-98388144D01*
X74142839Y-98381471D01*
X70826716Y-95065348D01*
X70793231Y-95004025D01*
X70790869Y-94966863D01*
X70805468Y-94800000D01*
X70785635Y-94573308D01*
X70739071Y-94399527D01*
X70726741Y-94353511D01*
X70726738Y-94353502D01*
X70630568Y-94147266D01*
X70515836Y-93983410D01*
X70500043Y-93960855D01*
X70496566Y-93956711D01*
X70497810Y-93955666D01*
X70467883Y-93900858D01*
X70472867Y-93831166D01*
X70514739Y-93775233D01*
X70580203Y-93750816D01*
X70589049Y-93750500D01*
X81111660Y-93750500D01*
X81178699Y-93770185D01*
X81224454Y-93822989D01*
X81234398Y-93892147D01*
X81205373Y-93955703D01*
X81200962Y-93960439D01*
X81200346Y-93961174D01*
X81069865Y-94147517D01*
X80973734Y-94353673D01*
X80973730Y-94353682D01*
X80921127Y-94549999D01*
X80921128Y-94550000D01*
X81884314Y-94550000D01*
X81872359Y-94561955D01*
X81814835Y-94674852D01*
X81795014Y-94800000D01*
X81814835Y-94925148D01*
X81872359Y-95038045D01*
X81884314Y-95050000D01*
X80921128Y-95050000D01*
X80973730Y-95246317D01*
X80973734Y-95246326D01*
X81069865Y-95452482D01*
X81200342Y-95638820D01*
X81361179Y-95799657D01*
X81547517Y-95930134D01*
X81753673Y-96026265D01*
X81753682Y-96026269D01*
X81949999Y-96078872D01*
X81950000Y-96078871D01*
X81950000Y-95115686D01*
X81961955Y-95127641D01*
X82074852Y-95185165D01*
X82168519Y-95200000D01*
X82231481Y-95200000D01*
X82325148Y-95185165D01*
X82438045Y-95127641D01*
X82450000Y-95115685D01*
X82450000Y-96078872D01*
X82646317Y-96026269D01*
X82646326Y-96026265D01*
X82852482Y-95930134D01*
X83038820Y-95799657D01*
X83199657Y-95638820D01*
X83330134Y-95452481D01*
X83330135Y-95452479D01*
X83387342Y-95329799D01*
X83433514Y-95277359D01*
X83500707Y-95258207D01*
X83567588Y-95278422D01*
X83612105Y-95329797D01*
X83637551Y-95384365D01*
X83669431Y-95452732D01*
X83669432Y-95452734D01*
X83799954Y-95639141D01*
X83960858Y-95800045D01*
X83960861Y-95800047D01*
X84147266Y-95930568D01*
X84353504Y-96026739D01*
X84573308Y-96085635D01*
X84735230Y-96099801D01*
X84799998Y-96105468D01*
X84800000Y-96105468D01*
X84800002Y-96105468D01*
X84856673Y-96100509D01*
X85026692Y-96085635D01*
X85246496Y-96026739D01*
X85452734Y-95930568D01*
X85639139Y-95800047D01*
X85800047Y-95639139D01*
X85825086Y-95603377D01*
X85879665Y-95559752D01*
X85926663Y-95550500D01*
X86187770Y-95550500D01*
X86254809Y-95570185D01*
X86275451Y-95586819D01*
X90463181Y-99774548D01*
X90496666Y-99835871D01*
X90499500Y-99862229D01*
X90499500Y-100556784D01*
X90514364Y-100726687D01*
X90514366Y-100726697D01*
X90573258Y-100946488D01*
X90573261Y-100946497D01*
X90669431Y-101152732D01*
X90669432Y-101152734D01*
X90799954Y-101339141D01*
X90960858Y-101500045D01*
X90960861Y-101500047D01*
X91147266Y-101630568D01*
X91353504Y-101726739D01*
X91573308Y-101785635D01*
X91735230Y-101799801D01*
X91799998Y-101805468D01*
X91800000Y-101805468D01*
X91800002Y-101805468D01*
X91856672Y-101800509D01*
X92026692Y-101785635D01*
X92246496Y-101726739D01*
X92452734Y-101630568D01*
X92639139Y-101500047D01*
X92800047Y-101339139D01*
X92930568Y-101152734D01*
X92957895Y-101094129D01*
X93004064Y-101041695D01*
X93071257Y-101022542D01*
X93138139Y-101042757D01*
X93182657Y-101094133D01*
X93209865Y-101152482D01*
X93340342Y-101338820D01*
X93501179Y-101499657D01*
X93687517Y-101630134D01*
X93893673Y-101726265D01*
X93893682Y-101726269D01*
X94089999Y-101778872D01*
X94090000Y-101778871D01*
X94089999Y-100418136D01*
X94144741Y-100455459D01*
X94272927Y-100495000D01*
X94373346Y-100495000D01*
X94472647Y-100480033D01*
X94590000Y-100423518D01*
X94590000Y-101778872D01*
X94786317Y-101726269D01*
X94786326Y-101726265D01*
X94992482Y-101630134D01*
X95178820Y-101499657D01*
X95339657Y-101338820D01*
X95470134Y-101152482D01*
X95566265Y-100946326D01*
X95566269Y-100946317D01*
X95625139Y-100726610D01*
X95625141Y-100726599D01*
X95640000Y-100556763D01*
X95640000Y-100300000D01*
X94709503Y-100300000D01*
X94758917Y-100214413D01*
X94788768Y-100083630D01*
X94778743Y-99949860D01*
X94729734Y-99824987D01*
X94709807Y-99800000D01*
X95640000Y-99800000D01*
X95640000Y-99543237D01*
X95625141Y-99373400D01*
X95625139Y-99373389D01*
X95566269Y-99153682D01*
X95566265Y-99153673D01*
X95470134Y-98947517D01*
X95339657Y-98761179D01*
X95178820Y-98600342D01*
X94992482Y-98469865D01*
X94786328Y-98373734D01*
X94590000Y-98321127D01*
X94590000Y-99681862D01*
X94535259Y-99644541D01*
X94407073Y-99605000D01*
X94306654Y-99605000D01*
X94207353Y-99619967D01*
X94089999Y-99676481D01*
X94089999Y-98321127D01*
X93893671Y-98373734D01*
X93687517Y-98469865D01*
X93501179Y-98600342D01*
X93340342Y-98761179D01*
X93209867Y-98947515D01*
X93182657Y-99005867D01*
X93136484Y-99058306D01*
X93069290Y-99077457D01*
X93002409Y-99057241D01*
X92957893Y-99005865D01*
X92952132Y-98993511D01*
X92930568Y-98947266D01*
X92800047Y-98760861D01*
X92800045Y-98760858D01*
X92639141Y-98599954D01*
X92452734Y-98469432D01*
X92452732Y-98469431D01*
X92246497Y-98373261D01*
X92246488Y-98373258D01*
X92026697Y-98314366D01*
X92026693Y-98314365D01*
X92026692Y-98314365D01*
X92026691Y-98314364D01*
X92026686Y-98314364D01*
X91800002Y-98294532D01*
X91799998Y-98294532D01*
X91573313Y-98314364D01*
X91573302Y-98314366D01*
X91353511Y-98373258D01*
X91353496Y-98373263D01*
X91317021Y-98390272D01*
X91247944Y-98400763D01*
X91184160Y-98372241D01*
X91176938Y-98365570D01*
X87361367Y-94549999D01*
X96221127Y-94549999D01*
X96221128Y-94550000D01*
X97184314Y-94550000D01*
X97172359Y-94561955D01*
X97114835Y-94674852D01*
X97095014Y-94800000D01*
X97114835Y-94925148D01*
X97172359Y-95038045D01*
X97184314Y-95050000D01*
X96221128Y-95050000D01*
X96273730Y-95246317D01*
X96273734Y-95246326D01*
X96369865Y-95452482D01*
X96500342Y-95638820D01*
X96661179Y-95799657D01*
X96847517Y-95930134D01*
X97053673Y-96026265D01*
X97053682Y-96026269D01*
X97249999Y-96078872D01*
X97249999Y-96078871D01*
X97249999Y-95115685D01*
X97261955Y-95127641D01*
X97374852Y-95185165D01*
X97468519Y-95200000D01*
X97531481Y-95200000D01*
X97625148Y-95185165D01*
X97738045Y-95127641D01*
X97750000Y-95115686D01*
X97750000Y-96078872D01*
X97946317Y-96026269D01*
X97946326Y-96026265D01*
X98152482Y-95930134D01*
X98338820Y-95799657D01*
X98499657Y-95638820D01*
X98630134Y-95452482D01*
X98726265Y-95246326D01*
X98726269Y-95246317D01*
X98778872Y-95050000D01*
X97815686Y-95050000D01*
X97827641Y-95038045D01*
X97885165Y-94925148D01*
X97904986Y-94800000D01*
X97885165Y-94674852D01*
X97827641Y-94561955D01*
X97815686Y-94550000D01*
X98778872Y-94550000D01*
X98778872Y-94549999D01*
X98726269Y-94353682D01*
X98726265Y-94353673D01*
X98630134Y-94147517D01*
X98499657Y-93961179D01*
X98338820Y-93800342D01*
X98152482Y-93669865D01*
X97946328Y-93573734D01*
X97750000Y-93521127D01*
X97750000Y-94484314D01*
X97738045Y-94472359D01*
X97625148Y-94414835D01*
X97531481Y-94400000D01*
X97468519Y-94400000D01*
X97374852Y-94414835D01*
X97261955Y-94472359D01*
X97250000Y-94484314D01*
X97250000Y-93521127D01*
X97053671Y-93573734D01*
X96847517Y-93669865D01*
X96661179Y-93800342D01*
X96500342Y-93961179D01*
X96369865Y-94147517D01*
X96273734Y-94353673D01*
X96273730Y-94353682D01*
X96221127Y-94549999D01*
X87361367Y-94549999D01*
X87125729Y-94314361D01*
X87113949Y-94300730D01*
X87106482Y-94290701D01*
X87099612Y-94281472D01*
X87099610Y-94281470D01*
X87059587Y-94247886D01*
X87055612Y-94244244D01*
X87052690Y-94241322D01*
X87049780Y-94238411D01*
X87024040Y-94218059D01*
X87009638Y-94205974D01*
X86965214Y-94168698D01*
X86965213Y-94168697D01*
X86965209Y-94168694D01*
X86959180Y-94164729D01*
X86959212Y-94164680D01*
X86952853Y-94160628D01*
X86952822Y-94160679D01*
X86946680Y-94156891D01*
X86946678Y-94156890D01*
X86946677Y-94156889D01*
X86907474Y-94138608D01*
X86877058Y-94124424D01*
X86842894Y-94107267D01*
X86808433Y-94089960D01*
X86808431Y-94089959D01*
X86808430Y-94089959D01*
X86801645Y-94087489D01*
X86801665Y-94087433D01*
X86794549Y-94084959D01*
X86794531Y-94085015D01*
X86787671Y-94082742D01*
X86759841Y-94076996D01*
X86712434Y-94067207D01*
X86663472Y-94055603D01*
X86637719Y-94049499D01*
X86630547Y-94048661D01*
X86630553Y-94048601D01*
X86623055Y-94047835D01*
X86623050Y-94047895D01*
X86615860Y-94047265D01*
X86539083Y-94049500D01*
X85926663Y-94049500D01*
X85859624Y-94029815D01*
X85825088Y-93996623D01*
X85800045Y-93960858D01*
X85639141Y-93799954D01*
X85452734Y-93669432D01*
X85452732Y-93669431D01*
X85246497Y-93573261D01*
X85246488Y-93573258D01*
X85026697Y-93514366D01*
X85026693Y-93514365D01*
X85026692Y-93514365D01*
X85026691Y-93514364D01*
X85026686Y-93514364D01*
X84800002Y-93494532D01*
X84799997Y-93494532D01*
X84633137Y-93509129D01*
X84564637Y-93495362D01*
X84534650Y-93473282D01*
X83575729Y-92514361D01*
X83563949Y-92500730D01*
X83556482Y-92490701D01*
X83549612Y-92481472D01*
X83549610Y-92481470D01*
X83509587Y-92447886D01*
X83505612Y-92444244D01*
X83499777Y-92438409D01*
X83474040Y-92418059D01*
X83415214Y-92368698D01*
X83415213Y-92368697D01*
X83415209Y-92368694D01*
X83409180Y-92364729D01*
X83409212Y-92364680D01*
X83402853Y-92360628D01*
X83402822Y-92360679D01*
X83396680Y-92356891D01*
X83396678Y-92356890D01*
X83396677Y-92356889D01*
X83348530Y-92334437D01*
X83327058Y-92324424D01*
X83288691Y-92305156D01*
X83258433Y-92289960D01*
X83258431Y-92289959D01*
X83258430Y-92289959D01*
X83251645Y-92287489D01*
X83251665Y-92287433D01*
X83244549Y-92284959D01*
X83244531Y-92285015D01*
X83237671Y-92282742D01*
X83209841Y-92276996D01*
X83162434Y-92267207D01*
X83113472Y-92255603D01*
X83087719Y-92249499D01*
X83080547Y-92248661D01*
X83080553Y-92248601D01*
X83073055Y-92247835D01*
X83073050Y-92247895D01*
X83065860Y-92247265D01*
X82989083Y-92249500D01*
X68863705Y-92249500D01*
X68845735Y-92248191D01*
X68821972Y-92244710D01*
X68777512Y-92248601D01*
X68769931Y-92249264D01*
X68764530Y-92249500D01*
X68756289Y-92249500D01*
X68734579Y-92252037D01*
X68723724Y-92253306D01*
X68708419Y-92254645D01*
X68647199Y-92260001D01*
X68640132Y-92261460D01*
X68640120Y-92261404D01*
X68632763Y-92263035D01*
X68632777Y-92263092D01*
X68625743Y-92264759D01*
X68553575Y-92291025D01*
X68480675Y-92315181D01*
X68474126Y-92318236D01*
X68474101Y-92318183D01*
X68467308Y-92321471D01*
X68467334Y-92321523D01*
X68460880Y-92324764D01*
X68396708Y-92366971D01*
X68331347Y-92407285D01*
X68325683Y-92411765D01*
X68325647Y-92411719D01*
X68319798Y-92416484D01*
X68319835Y-92416528D01*
X68314310Y-92421164D01*
X68314304Y-92421169D01*
X68314304Y-92421170D01*
X68271831Y-92466188D01*
X68261597Y-92477035D01*
X64854358Y-95884272D01*
X64840729Y-95896051D01*
X64821468Y-95910390D01*
X64787898Y-95950397D01*
X64784253Y-95954376D01*
X64778409Y-95960222D01*
X64758059Y-95985959D01*
X64708695Y-96044789D01*
X64704729Y-96050819D01*
X64704682Y-96050788D01*
X64700630Y-96057147D01*
X64700679Y-96057177D01*
X64696889Y-96063321D01*
X64664424Y-96132941D01*
X64629960Y-96201566D01*
X64627488Y-96208357D01*
X64627432Y-96208336D01*
X64624960Y-96215450D01*
X64625015Y-96215469D01*
X64622742Y-96222327D01*
X64607207Y-96297566D01*
X64589501Y-96372270D01*
X64588663Y-96379443D01*
X64588605Y-96379436D01*
X64587837Y-96386950D01*
X64587894Y-96386955D01*
X64587265Y-96394137D01*
X64589500Y-96470916D01*
X64589500Y-101527720D01*
X64569815Y-101594759D01*
X64553181Y-101615401D01*
X64085401Y-102083181D01*
X64024078Y-102116666D01*
X63997720Y-102119500D01*
X58737705Y-102119500D01*
X58719735Y-102118191D01*
X58695972Y-102114710D01*
X58650890Y-102118655D01*
X58643933Y-102119264D01*
X58638532Y-102119500D01*
X58630287Y-102119500D01*
X58604222Y-102122546D01*
X58597705Y-102123308D01*
X58592403Y-102123771D01*
X58521201Y-102130001D01*
X58514134Y-102131461D01*
X58514122Y-102131404D01*
X58506753Y-102133038D01*
X58506767Y-102133095D01*
X58499739Y-102134760D01*
X58427840Y-102160929D01*
X58427568Y-102161028D01*
X58354665Y-102185186D01*
X58354663Y-102185186D01*
X58354660Y-102185188D01*
X58348123Y-102188236D01*
X58348098Y-102188184D01*
X58341310Y-102191470D01*
X58341336Y-102191521D01*
X58334885Y-102194761D01*
X58270723Y-102236961D01*
X58205346Y-102277285D01*
X58199682Y-102281765D01*
X58199646Y-102281719D01*
X58193798Y-102286484D01*
X58193835Y-102286528D01*
X58188310Y-102291164D01*
X58135614Y-102347017D01*
X55902358Y-104580272D01*
X55888729Y-104592051D01*
X55869468Y-104606390D01*
X55835898Y-104646397D01*
X55832253Y-104650376D01*
X55826409Y-104656222D01*
X55806059Y-104681959D01*
X55756695Y-104740789D01*
X55752729Y-104746819D01*
X55752682Y-104746788D01*
X55748630Y-104753147D01*
X55748679Y-104753177D01*
X55744889Y-104759321D01*
X55712424Y-104828941D01*
X55677960Y-104897566D01*
X55675488Y-104904357D01*
X55675432Y-104904336D01*
X55672960Y-104911450D01*
X55673015Y-104911469D01*
X55670742Y-104918327D01*
X55668087Y-104931188D01*
X55655207Y-104993565D01*
X55642616Y-105046692D01*
X55637498Y-105068286D01*
X55636661Y-105075454D01*
X55636601Y-105075447D01*
X55635835Y-105082945D01*
X55635895Y-105082951D01*
X55635265Y-105090140D01*
X55637500Y-105166916D01*
X55637500Y-105543221D01*
X55617815Y-105610260D01*
X55565011Y-105656015D01*
X55495853Y-105665959D01*
X55432297Y-105636934D01*
X55401118Y-105595626D01*
X55380899Y-105552266D01*
X55250378Y-105365861D01*
X55250376Y-105365858D01*
X55089472Y-105204954D01*
X54903065Y-105074432D01*
X54903063Y-105074431D01*
X54696828Y-104978261D01*
X54696819Y-104978258D01*
X54574297Y-104945429D01*
X54553193Y-104939774D01*
X54493533Y-104903410D01*
X54463004Y-104840563D01*
X54471299Y-104771188D01*
X54515784Y-104717310D01*
X54553193Y-104700225D01*
X54696827Y-104661739D01*
X54903065Y-104565568D01*
X55089470Y-104435047D01*
X55250378Y-104274139D01*
X55380899Y-104087734D01*
X55477070Y-103881496D01*
X55477071Y-103881488D01*
X55477074Y-103881483D01*
X55511431Y-103753258D01*
X55535966Y-103661692D01*
X55555799Y-103435000D01*
X55535966Y-103208308D01*
X55491247Y-103041415D01*
X55477072Y-102988511D01*
X55477069Y-102988502D01*
X55380899Y-102782267D01*
X55380898Y-102782265D01*
X55325210Y-102702734D01*
X55250378Y-102595861D01*
X55250376Y-102595858D01*
X55089472Y-102434954D01*
X54903065Y-102304432D01*
X54903063Y-102304431D01*
X54696828Y-102208261D01*
X54696819Y-102208258D01*
X54552229Y-102169516D01*
X54492568Y-102133151D01*
X54462039Y-102070304D01*
X54470334Y-102000929D01*
X54514819Y-101947051D01*
X54552229Y-101929966D01*
X54696648Y-101891269D01*
X54696662Y-101891264D01*
X54902809Y-101795136D01*
X54975803Y-101744025D01*
X54382865Y-101151086D01*
X54392646Y-101149680D01*
X54523431Y-101089952D01*
X54632092Y-100995798D01*
X54709824Y-100874844D01*
X54733408Y-100794523D01*
X55329356Y-101390472D01*
X55380467Y-101317478D01*
X55476595Y-101111331D01*
X55476600Y-101111317D01*
X55535470Y-100891610D01*
X55535472Y-100891599D01*
X55555297Y-100665002D01*
X55555297Y-100664997D01*
X55535472Y-100438400D01*
X55535470Y-100438389D01*
X55476600Y-100218682D01*
X55476596Y-100218673D01*
X55380464Y-100012516D01*
X55380462Y-100012512D01*
X55329357Y-99939526D01*
X55329356Y-99939526D01*
X54733407Y-100535474D01*
X54709824Y-100455156D01*
X54632092Y-100334202D01*
X54523431Y-100240048D01*
X54392646Y-100180320D01*
X54382864Y-100178913D01*
X54975803Y-99585974D01*
X54975802Y-99585973D01*
X54902814Y-99534866D01*
X54902812Y-99534865D01*
X54696657Y-99438734D01*
X54696648Y-99438730D01*
X54551263Y-99399775D01*
X54491602Y-99363410D01*
X54461073Y-99300563D01*
X54469368Y-99231188D01*
X54513853Y-99177310D01*
X54551263Y-99160225D01*
X54696648Y-99121269D01*
X54696662Y-99121264D01*
X54902809Y-99025136D01*
X54975803Y-98974025D01*
X54382865Y-98381086D01*
X54392646Y-98379680D01*
X54523431Y-98319952D01*
X54632092Y-98225798D01*
X54709824Y-98104844D01*
X54733407Y-98024523D01*
X55329356Y-98620472D01*
X55380467Y-98547478D01*
X55476595Y-98341331D01*
X55476600Y-98341317D01*
X55535470Y-98121610D01*
X55535472Y-98121599D01*
X55555297Y-97895002D01*
X55555297Y-97894997D01*
X55535472Y-97668400D01*
X55535470Y-97668389D01*
X55476600Y-97448682D01*
X55476596Y-97448673D01*
X55380464Y-97242516D01*
X55380462Y-97242512D01*
X55329357Y-97169526D01*
X55329356Y-97169526D01*
X54733407Y-97765475D01*
X54709824Y-97685156D01*
X54632092Y-97564202D01*
X54523431Y-97470048D01*
X54392646Y-97410320D01*
X54382864Y-97408913D01*
X54975803Y-96815974D01*
X54975802Y-96815973D01*
X54902814Y-96764866D01*
X54902812Y-96764865D01*
X54696657Y-96668734D01*
X54696648Y-96668730D01*
X54551263Y-96629775D01*
X54491602Y-96593410D01*
X54461073Y-96530563D01*
X54469368Y-96461188D01*
X54513853Y-96407310D01*
X54551263Y-96390225D01*
X54696648Y-96351269D01*
X54696662Y-96351264D01*
X54902809Y-96255136D01*
X54975803Y-96204025D01*
X54382865Y-95611086D01*
X54392646Y-95609680D01*
X54523431Y-95549952D01*
X54632092Y-95455798D01*
X54709824Y-95334844D01*
X54733407Y-95254523D01*
X55329356Y-95850472D01*
X55380467Y-95777478D01*
X55476595Y-95571331D01*
X55476600Y-95571317D01*
X55535470Y-95351610D01*
X55535472Y-95351599D01*
X55555297Y-95125002D01*
X55555297Y-95124997D01*
X55535472Y-94898400D01*
X55535470Y-94898389D01*
X55476600Y-94678682D01*
X55476596Y-94678673D01*
X55380464Y-94472516D01*
X55380462Y-94472512D01*
X55329357Y-94399526D01*
X55329356Y-94399526D01*
X54733407Y-94995475D01*
X54709824Y-94915156D01*
X54632092Y-94794202D01*
X54523431Y-94700048D01*
X54392646Y-94640320D01*
X54382864Y-94638913D01*
X54975803Y-94045974D01*
X54975802Y-94045973D01*
X54902814Y-93994866D01*
X54902812Y-93994865D01*
X54696657Y-93898734D01*
X54696650Y-93898731D01*
X54551262Y-93859774D01*
X54491602Y-93823408D01*
X54461073Y-93760561D01*
X54469368Y-93691186D01*
X54513853Y-93637308D01*
X54551263Y-93620224D01*
X54696648Y-93581269D01*
X54696662Y-93581264D01*
X54902809Y-93485136D01*
X54975803Y-93434025D01*
X54382865Y-92841086D01*
X54392646Y-92839680D01*
X54523431Y-92779952D01*
X54632092Y-92685798D01*
X54709824Y-92564844D01*
X54733407Y-92484523D01*
X55329356Y-93080472D01*
X55380467Y-93007478D01*
X55476595Y-92801331D01*
X55476600Y-92801317D01*
X55535470Y-92581610D01*
X55535472Y-92581599D01*
X55555297Y-92355002D01*
X55555297Y-92354997D01*
X55535472Y-92128400D01*
X55535470Y-92128389D01*
X55476600Y-91908682D01*
X55476596Y-91908673D01*
X55380464Y-91702516D01*
X55380462Y-91702512D01*
X55329357Y-91629526D01*
X55329356Y-91629526D01*
X54733407Y-92225475D01*
X54709824Y-92145156D01*
X54632092Y-92024202D01*
X54523431Y-91930048D01*
X54392646Y-91870320D01*
X54382864Y-91868913D01*
X54975803Y-91275974D01*
X54975802Y-91275973D01*
X54902814Y-91224866D01*
X54902812Y-91224865D01*
X54696657Y-91128734D01*
X54696648Y-91128730D01*
X54551263Y-91089775D01*
X54491602Y-91053410D01*
X54461073Y-90990563D01*
X54469368Y-90921188D01*
X54513853Y-90867310D01*
X54551263Y-90850225D01*
X54696648Y-90811269D01*
X54696662Y-90811264D01*
X54902809Y-90715136D01*
X54975803Y-90664025D01*
X54382865Y-90071086D01*
X54392646Y-90069680D01*
X54523431Y-90009952D01*
X54632092Y-89915798D01*
X54709824Y-89794844D01*
X54733407Y-89714523D01*
X55329356Y-90310472D01*
X55380467Y-90237478D01*
X55476595Y-90031331D01*
X55476600Y-90031317D01*
X55535470Y-89811610D01*
X55535472Y-89811599D01*
X55555297Y-89585002D01*
X55555297Y-89584997D01*
X55535472Y-89358400D01*
X55535470Y-89358389D01*
X55476600Y-89138682D01*
X55476597Y-89138673D01*
X55442198Y-89064905D01*
X55431706Y-88995828D01*
X55460226Y-88932044D01*
X55518702Y-88893804D01*
X55554580Y-88888500D01*
X71398295Y-88888500D01*
X71416265Y-88889809D01*
X71440023Y-88893289D01*
X71492068Y-88888735D01*
X71497470Y-88888500D01*
X71505704Y-88888500D01*
X71505709Y-88888500D01*
X71517327Y-88887141D01*
X71538276Y-88884693D01*
X71551028Y-88883577D01*
X71614797Y-88877999D01*
X71614805Y-88877996D01*
X71621866Y-88876539D01*
X71621878Y-88876598D01*
X71629243Y-88874965D01*
X71629229Y-88874906D01*
X71636246Y-88873241D01*
X71636255Y-88873241D01*
X71708423Y-88846974D01*
X71781334Y-88822814D01*
X71781343Y-88822807D01*
X71787882Y-88819760D01*
X71787908Y-88819816D01*
X71794690Y-88816532D01*
X71794663Y-88816478D01*
X71801106Y-88813240D01*
X71801117Y-88813237D01*
X71865283Y-88771034D01*
X71930656Y-88730712D01*
X71930662Y-88730705D01*
X71936325Y-88726229D01*
X71936363Y-88726277D01*
X71942200Y-88721522D01*
X71942161Y-88721475D01*
X71947696Y-88716830D01*
X72000385Y-88660982D01*
X73974549Y-86686819D01*
X74035872Y-86653334D01*
X74062230Y-86650500D01*
X106060295Y-86650500D01*
X106078265Y-86651809D01*
X106102023Y-86655289D01*
X106154068Y-86650735D01*
X106159470Y-86650500D01*
X106167704Y-86650500D01*
X106167709Y-86650500D01*
X106179327Y-86649141D01*
X106200276Y-86646693D01*
X106213028Y-86645577D01*
X106276797Y-86639999D01*
X106276805Y-86639996D01*
X106283866Y-86638539D01*
X106283878Y-86638598D01*
X106291243Y-86636965D01*
X106291229Y-86636906D01*
X106298246Y-86635241D01*
X106298255Y-86635241D01*
X106370423Y-86608974D01*
X106443334Y-86584814D01*
X106443343Y-86584807D01*
X106449882Y-86581760D01*
X106449908Y-86581816D01*
X106456690Y-86578532D01*
X106456663Y-86578478D01*
X106463106Y-86575240D01*
X106463117Y-86575237D01*
X106527283Y-86533034D01*
X106592656Y-86492712D01*
X106592662Y-86492705D01*
X106598325Y-86488229D01*
X106598363Y-86488277D01*
X106604195Y-86483526D01*
X106604156Y-86483479D01*
X106609691Y-86478833D01*
X106609696Y-86478830D01*
X106656576Y-86429139D01*
X106662389Y-86422978D01*
X106700550Y-86384818D01*
X106761874Y-86351333D01*
X106788230Y-86348500D01*
X110423109Y-86348500D01*
X110490148Y-86368185D01*
X110535903Y-86420989D01*
X110545847Y-86490147D01*
X110535492Y-86524903D01*
X110533734Y-86528672D01*
X110533730Y-86528682D01*
X110474860Y-86748389D01*
X110474858Y-86748400D01*
X110455034Y-86974997D01*
X110455034Y-86975002D01*
X110474858Y-87201599D01*
X110474860Y-87201610D01*
X110533730Y-87421317D01*
X110533734Y-87421326D01*
X110629865Y-87627481D01*
X110629866Y-87627483D01*
X110680973Y-87700471D01*
X110680973Y-87700472D01*
X111276922Y-87104522D01*
X111300507Y-87184844D01*
X111378239Y-87305798D01*
X111486900Y-87399952D01*
X111617685Y-87459680D01*
X111627466Y-87461086D01*
X111034526Y-88054025D01*
X111034526Y-88054026D01*
X111107512Y-88105131D01*
X111107516Y-88105133D01*
X111313673Y-88201265D01*
X111313679Y-88201268D01*
X111459068Y-88240225D01*
X111518728Y-88276590D01*
X111549257Y-88339437D01*
X111540962Y-88408813D01*
X111496477Y-88462690D01*
X111459068Y-88479775D01*
X111313679Y-88518731D01*
X111313673Y-88518734D01*
X111107513Y-88614868D01*
X111034526Y-88665973D01*
X111627465Y-89258913D01*
X111617685Y-89260320D01*
X111486900Y-89320048D01*
X111378239Y-89414202D01*
X111300507Y-89535156D01*
X111276923Y-89615476D01*
X110680973Y-89019526D01*
X110680972Y-89019527D01*
X110629868Y-89092513D01*
X110533734Y-89298673D01*
X110533730Y-89298682D01*
X110474860Y-89518389D01*
X110474858Y-89518400D01*
X110455034Y-89744997D01*
X110455034Y-89745002D01*
X110474858Y-89971599D01*
X110474860Y-89971610D01*
X110533730Y-90191317D01*
X110533734Y-90191326D01*
X110629865Y-90397481D01*
X110629866Y-90397483D01*
X110680973Y-90470471D01*
X110680974Y-90470472D01*
X111276922Y-89874523D01*
X111300507Y-89954844D01*
X111378239Y-90075798D01*
X111486900Y-90169952D01*
X111617685Y-90229680D01*
X111627466Y-90231086D01*
X111034526Y-90824025D01*
X111034526Y-90824026D01*
X111107512Y-90875131D01*
X111107516Y-90875133D01*
X111313673Y-90971265D01*
X111313679Y-90971268D01*
X111459068Y-91010225D01*
X111518728Y-91046590D01*
X111549257Y-91109437D01*
X111540962Y-91178813D01*
X111496477Y-91232690D01*
X111459068Y-91249775D01*
X111313679Y-91288731D01*
X111313673Y-91288734D01*
X111107513Y-91384868D01*
X111034527Y-91435972D01*
X111034526Y-91435973D01*
X111627467Y-92028913D01*
X111617685Y-92030320D01*
X111486900Y-92090048D01*
X111378239Y-92184202D01*
X111300507Y-92305156D01*
X111276923Y-92385476D01*
X110680973Y-91789526D01*
X110680972Y-91789527D01*
X110629868Y-91862513D01*
X110533734Y-92068673D01*
X110533730Y-92068682D01*
X110474860Y-92288389D01*
X110474858Y-92288400D01*
X110455034Y-92514997D01*
X110455034Y-92515002D01*
X110474858Y-92741599D01*
X110474860Y-92741610D01*
X110533730Y-92961317D01*
X110533734Y-92961326D01*
X110629865Y-93167481D01*
X110629866Y-93167483D01*
X110680973Y-93240471D01*
X110680974Y-93240472D01*
X111276922Y-92644523D01*
X111300507Y-92724844D01*
X111378239Y-92845798D01*
X111486900Y-92939952D01*
X111617685Y-92999680D01*
X111627466Y-93001086D01*
X111034526Y-93594025D01*
X111034526Y-93594026D01*
X111107512Y-93645131D01*
X111107516Y-93645133D01*
X111313673Y-93741265D01*
X111313679Y-93741268D01*
X111459068Y-93780225D01*
X111518728Y-93816590D01*
X111549257Y-93879437D01*
X111540962Y-93948813D01*
X111496477Y-94002690D01*
X111459068Y-94019775D01*
X111313679Y-94058731D01*
X111313673Y-94058734D01*
X111107513Y-94154868D01*
X111034527Y-94205972D01*
X111034526Y-94205973D01*
X111627467Y-94798913D01*
X111617685Y-94800320D01*
X111486900Y-94860048D01*
X111378239Y-94954202D01*
X111300507Y-95075156D01*
X111276923Y-95155476D01*
X110680973Y-94559526D01*
X110680972Y-94559527D01*
X110629868Y-94632513D01*
X110533734Y-94838673D01*
X110533730Y-94838682D01*
X110474860Y-95058389D01*
X110474858Y-95058400D01*
X110455034Y-95284997D01*
X110455034Y-95285002D01*
X110474858Y-95511599D01*
X110474860Y-95511610D01*
X110533730Y-95731317D01*
X110533734Y-95731326D01*
X110629865Y-95937481D01*
X110629866Y-95937483D01*
X110680973Y-96010471D01*
X110680974Y-96010472D01*
X111276922Y-95414523D01*
X111300507Y-95494844D01*
X111378239Y-95615798D01*
X111486900Y-95709952D01*
X111617685Y-95769680D01*
X111627466Y-95771086D01*
X111034526Y-96364025D01*
X111034526Y-96364026D01*
X111107512Y-96415131D01*
X111107516Y-96415133D01*
X111313673Y-96511265D01*
X111313679Y-96511268D01*
X111459068Y-96550225D01*
X111518728Y-96586590D01*
X111549257Y-96649437D01*
X111540962Y-96718813D01*
X111496477Y-96772690D01*
X111459068Y-96789775D01*
X111313679Y-96828731D01*
X111313673Y-96828734D01*
X111107513Y-96924868D01*
X111034527Y-96975972D01*
X111034526Y-96975973D01*
X111627467Y-97568913D01*
X111617685Y-97570320D01*
X111486900Y-97630048D01*
X111378239Y-97724202D01*
X111300507Y-97845156D01*
X111276923Y-97925476D01*
X110680973Y-97329526D01*
X110680972Y-97329527D01*
X110629868Y-97402513D01*
X110533734Y-97608673D01*
X110533730Y-97608682D01*
X110474860Y-97828389D01*
X110474858Y-97828400D01*
X110455034Y-98054997D01*
X110455034Y-98055002D01*
X110474858Y-98281599D01*
X110474860Y-98281610D01*
X110533730Y-98501317D01*
X110533734Y-98501326D01*
X110629865Y-98707481D01*
X110629866Y-98707483D01*
X110680973Y-98780471D01*
X110680974Y-98780472D01*
X111276922Y-98184523D01*
X111300507Y-98264844D01*
X111378239Y-98385798D01*
X111486900Y-98479952D01*
X111617685Y-98539680D01*
X111627466Y-98541086D01*
X111034526Y-99134025D01*
X111034526Y-99134026D01*
X111107512Y-99185131D01*
X111107516Y-99185133D01*
X111313673Y-99281265D01*
X111313679Y-99281268D01*
X111459068Y-99320225D01*
X111518728Y-99356590D01*
X111549257Y-99419437D01*
X111540962Y-99488813D01*
X111496477Y-99542690D01*
X111459068Y-99559775D01*
X111313679Y-99598731D01*
X111313673Y-99598734D01*
X111107513Y-99694868D01*
X111034527Y-99745972D01*
X111034526Y-99745973D01*
X111627467Y-100338913D01*
X111617685Y-100340320D01*
X111486900Y-100400048D01*
X111378239Y-100494202D01*
X111300507Y-100615156D01*
X111276923Y-100695476D01*
X110680973Y-100099526D01*
X110680972Y-100099527D01*
X110629868Y-100172513D01*
X110533734Y-100378673D01*
X110533730Y-100378682D01*
X110474860Y-100598389D01*
X110474858Y-100598400D01*
X110455034Y-100824997D01*
X110455034Y-100825002D01*
X110474858Y-101051599D01*
X110474860Y-101051610D01*
X110533730Y-101271317D01*
X110533734Y-101271326D01*
X110629865Y-101477481D01*
X110629866Y-101477483D01*
X110680973Y-101550471D01*
X110680974Y-101550472D01*
X111276922Y-100954523D01*
X111300507Y-101034844D01*
X111378239Y-101155798D01*
X111486900Y-101249952D01*
X111617685Y-101309680D01*
X111627466Y-101311086D01*
X111034526Y-101904025D01*
X111034526Y-101904026D01*
X111107512Y-101955131D01*
X111107516Y-101955133D01*
X111313673Y-102051265D01*
X111313682Y-102051269D01*
X111458101Y-102089966D01*
X111517762Y-102126331D01*
X111548291Y-102189178D01*
X111539996Y-102258553D01*
X111495511Y-102312431D01*
X111458102Y-102329516D01*
X111313508Y-102368259D01*
X111313502Y-102368261D01*
X111107267Y-102464431D01*
X111107265Y-102464432D01*
X110920858Y-102594954D01*
X110759954Y-102755858D01*
X110629432Y-102942265D01*
X110629431Y-102942267D01*
X110533261Y-103148502D01*
X110533258Y-103148511D01*
X110474366Y-103368302D01*
X110474364Y-103368313D01*
X110454532Y-103594998D01*
X110454532Y-103595001D01*
X110474364Y-103821686D01*
X110474366Y-103821697D01*
X110533258Y-104041488D01*
X110533261Y-104041497D01*
X110629431Y-104247732D01*
X110629432Y-104247734D01*
X110759954Y-104434141D01*
X110920858Y-104595045D01*
X110920861Y-104595047D01*
X111107266Y-104725568D01*
X111313504Y-104821739D01*
X111313509Y-104821740D01*
X111313511Y-104821741D01*
X111457136Y-104860225D01*
X111516797Y-104896590D01*
X111547326Y-104959437D01*
X111539031Y-105028812D01*
X111494546Y-105082690D01*
X111457136Y-105099775D01*
X111313511Y-105138258D01*
X111313502Y-105138261D01*
X111107267Y-105234431D01*
X111107265Y-105234432D01*
X110920858Y-105364954D01*
X110759954Y-105525858D01*
X110629432Y-105712265D01*
X110629431Y-105712267D01*
X110533261Y-105918502D01*
X110533258Y-105918511D01*
X110474366Y-106138302D01*
X110474364Y-106138313D01*
X110454532Y-106364998D01*
X110454532Y-106365001D01*
X110474364Y-106591686D01*
X110474366Y-106591697D01*
X110533258Y-106811488D01*
X110533261Y-106811497D01*
X110629431Y-107017732D01*
X110629432Y-107017734D01*
X110759954Y-107204141D01*
X110920858Y-107365045D01*
X110920861Y-107365047D01*
X111107266Y-107495568D01*
X111313504Y-107591739D01*
X111313509Y-107591740D01*
X111313511Y-107591741D01*
X111457136Y-107630225D01*
X111516797Y-107666590D01*
X111547326Y-107729437D01*
X111539031Y-107798812D01*
X111494546Y-107852690D01*
X111457136Y-107869775D01*
X111313511Y-107908258D01*
X111313502Y-107908261D01*
X111107267Y-108004431D01*
X111107265Y-108004432D01*
X110920858Y-108134954D01*
X110759954Y-108295858D01*
X110629432Y-108482265D01*
X110629431Y-108482267D01*
X110533261Y-108688502D01*
X110533258Y-108688511D01*
X110474366Y-108908302D01*
X110474364Y-108908313D01*
X110454532Y-109134998D01*
X110454532Y-109135001D01*
X110474364Y-109361686D01*
X110474366Y-109361697D01*
X110533258Y-109581488D01*
X110533261Y-109581497D01*
X110629431Y-109787732D01*
X110629432Y-109787734D01*
X110759954Y-109974141D01*
X110920858Y-110135045D01*
X110920861Y-110135047D01*
X111107266Y-110265568D01*
X111313504Y-110361739D01*
X111533308Y-110420635D01*
X111695230Y-110434801D01*
X111759998Y-110440468D01*
X111760000Y-110440468D01*
X111760002Y-110440468D01*
X111816673Y-110435509D01*
X111986692Y-110420635D01*
X112206496Y-110361739D01*
X112412734Y-110265568D01*
X112599139Y-110135047D01*
X112760047Y-109974139D01*
X112890568Y-109787734D01*
X112986739Y-109581496D01*
X113045635Y-109361692D01*
X113065468Y-109135000D01*
X113045635Y-108908308D01*
X112988604Y-108695464D01*
X112986741Y-108688511D01*
X112986738Y-108688502D01*
X112918943Y-108543117D01*
X112890568Y-108482266D01*
X112773779Y-108315472D01*
X112760045Y-108295858D01*
X112599141Y-108134954D01*
X112412734Y-108004432D01*
X112412732Y-108004431D01*
X112206497Y-107908261D01*
X112206488Y-107908258D01*
X112083966Y-107875429D01*
X112062862Y-107869774D01*
X112003202Y-107833410D01*
X111972673Y-107770563D01*
X111980968Y-107701188D01*
X112025453Y-107647310D01*
X112062862Y-107630225D01*
X112206496Y-107591739D01*
X112412734Y-107495568D01*
X112599139Y-107365047D01*
X112760047Y-107204139D01*
X112890568Y-107017734D01*
X112986739Y-106811496D01*
X113045635Y-106591692D01*
X113063735Y-106384809D01*
X113065468Y-106365001D01*
X113065468Y-106364998D01*
X113055763Y-106254070D01*
X113045635Y-106138308D01*
X112996333Y-105954309D01*
X112986741Y-105918511D01*
X112986738Y-105918502D01*
X112940827Y-105820047D01*
X112890568Y-105712266D01*
X112778535Y-105552265D01*
X112760045Y-105525858D01*
X112599141Y-105364954D01*
X112412734Y-105234432D01*
X112412732Y-105234431D01*
X112206497Y-105138261D01*
X112206488Y-105138258D01*
X112083966Y-105105429D01*
X112062862Y-105099774D01*
X112003202Y-105063410D01*
X111972673Y-105000563D01*
X111980968Y-104931188D01*
X112025453Y-104877310D01*
X112062862Y-104860225D01*
X112206496Y-104821739D01*
X112412734Y-104725568D01*
X112599139Y-104595047D01*
X112760047Y-104434139D01*
X112890568Y-104247734D01*
X112986739Y-104041496D01*
X113045635Y-103821692D01*
X113064278Y-103608598D01*
X113065468Y-103595001D01*
X113065468Y-103594998D01*
X113053269Y-103455562D01*
X113045635Y-103368308D01*
X113000916Y-103201415D01*
X112986741Y-103148511D01*
X112986738Y-103148502D01*
X112940827Y-103050047D01*
X112890568Y-102942266D01*
X112760047Y-102755861D01*
X112760045Y-102755858D01*
X112599141Y-102594954D01*
X112412734Y-102464432D01*
X112412732Y-102464431D01*
X112206497Y-102368261D01*
X112206488Y-102368258D01*
X112061898Y-102329516D01*
X112002237Y-102293151D01*
X111971708Y-102230304D01*
X111980003Y-102160929D01*
X112024488Y-102107051D01*
X112061898Y-102089966D01*
X112206317Y-102051269D01*
X112206331Y-102051264D01*
X112412478Y-101955136D01*
X112485472Y-101904025D01*
X111892534Y-101311086D01*
X111902315Y-101309680D01*
X112033100Y-101249952D01*
X112141761Y-101155798D01*
X112219493Y-101034844D01*
X112243076Y-100954523D01*
X112839025Y-101550472D01*
X112890136Y-101477478D01*
X112986264Y-101271331D01*
X112986269Y-101271317D01*
X113045139Y-101051610D01*
X113045141Y-101051599D01*
X113064966Y-100825002D01*
X113064966Y-100824997D01*
X113045141Y-100598400D01*
X113045139Y-100598389D01*
X112986269Y-100378682D01*
X112986265Y-100378673D01*
X112890133Y-100172516D01*
X112890131Y-100172512D01*
X112839026Y-100099526D01*
X112839025Y-100099526D01*
X112243076Y-100695475D01*
X112219493Y-100615156D01*
X112141761Y-100494202D01*
X112033100Y-100400048D01*
X111902315Y-100340320D01*
X111892533Y-100338913D01*
X112485472Y-99745974D01*
X112485471Y-99745973D01*
X112412483Y-99694866D01*
X112412481Y-99694865D01*
X112206326Y-99598734D01*
X112206317Y-99598730D01*
X112060932Y-99559775D01*
X112001271Y-99523410D01*
X111970742Y-99460563D01*
X111979037Y-99391188D01*
X112023522Y-99337310D01*
X112060932Y-99320225D01*
X112206317Y-99281269D01*
X112206331Y-99281264D01*
X112412478Y-99185136D01*
X112485472Y-99134025D01*
X111892534Y-98541086D01*
X111902315Y-98539680D01*
X112033100Y-98479952D01*
X112141761Y-98385798D01*
X112219493Y-98264844D01*
X112243076Y-98184523D01*
X112839025Y-98780472D01*
X112890136Y-98707478D01*
X112986264Y-98501331D01*
X112986269Y-98501317D01*
X113045139Y-98281610D01*
X113045141Y-98281599D01*
X113064966Y-98055002D01*
X113064966Y-98054997D01*
X113045141Y-97828400D01*
X113045139Y-97828389D01*
X112986269Y-97608682D01*
X112986265Y-97608673D01*
X112890133Y-97402516D01*
X112890131Y-97402512D01*
X112839026Y-97329526D01*
X112839025Y-97329526D01*
X112243076Y-97925475D01*
X112219493Y-97845156D01*
X112141761Y-97724202D01*
X112033100Y-97630048D01*
X111902315Y-97570320D01*
X111892533Y-97568913D01*
X112485472Y-96975974D01*
X112485471Y-96975973D01*
X112412483Y-96924866D01*
X112412481Y-96924865D01*
X112206326Y-96828734D01*
X112206319Y-96828731D01*
X112060931Y-96789774D01*
X112001271Y-96753408D01*
X111970742Y-96690561D01*
X111979037Y-96621186D01*
X112023522Y-96567308D01*
X112060932Y-96550224D01*
X112206317Y-96511269D01*
X112206331Y-96511264D01*
X112412478Y-96415136D01*
X112485472Y-96364025D01*
X111892534Y-95771086D01*
X111902315Y-95769680D01*
X112033100Y-95709952D01*
X112141761Y-95615798D01*
X112219493Y-95494844D01*
X112243076Y-95414523D01*
X112839025Y-96010472D01*
X112890136Y-95937478D01*
X112986264Y-95731331D01*
X112986269Y-95731317D01*
X113045139Y-95511610D01*
X113045141Y-95511599D01*
X113064966Y-95285002D01*
X113064966Y-95284997D01*
X113045141Y-95058400D01*
X113045139Y-95058389D01*
X112986269Y-94838682D01*
X112986265Y-94838673D01*
X112890133Y-94632516D01*
X112890131Y-94632512D01*
X112839026Y-94559526D01*
X112839025Y-94559526D01*
X112243076Y-95155475D01*
X112219493Y-95075156D01*
X112141761Y-94954202D01*
X112033100Y-94860048D01*
X111902315Y-94800320D01*
X111892533Y-94798913D01*
X112485472Y-94205974D01*
X112485471Y-94205973D01*
X112412483Y-94154866D01*
X112412481Y-94154865D01*
X112206326Y-94058734D01*
X112206317Y-94058730D01*
X112060932Y-94019775D01*
X112001271Y-93983410D01*
X111970742Y-93920563D01*
X111979037Y-93851188D01*
X112023522Y-93797310D01*
X112060932Y-93780225D01*
X112206317Y-93741269D01*
X112206331Y-93741264D01*
X112412478Y-93645136D01*
X112485472Y-93594025D01*
X111892534Y-93001086D01*
X111902315Y-92999680D01*
X112033100Y-92939952D01*
X112141761Y-92845798D01*
X112219493Y-92724844D01*
X112243077Y-92644523D01*
X112839025Y-93240472D01*
X112890136Y-93167478D01*
X112986264Y-92961331D01*
X112986269Y-92961317D01*
X113045139Y-92741610D01*
X113045141Y-92741599D01*
X113064966Y-92515002D01*
X113064966Y-92514997D01*
X113045141Y-92288400D01*
X113045139Y-92288389D01*
X112986269Y-92068682D01*
X112986265Y-92068673D01*
X112890133Y-91862516D01*
X112890131Y-91862512D01*
X112839026Y-91789526D01*
X112839025Y-91789526D01*
X112243076Y-92385474D01*
X112219493Y-92305156D01*
X112141761Y-92184202D01*
X112033100Y-92090048D01*
X111902315Y-92030320D01*
X111892533Y-92028913D01*
X112485472Y-91435974D01*
X112485471Y-91435973D01*
X112412483Y-91384866D01*
X112412481Y-91384865D01*
X112206326Y-91288734D01*
X112206317Y-91288730D01*
X112060932Y-91249775D01*
X112001271Y-91213410D01*
X111970742Y-91150563D01*
X111979037Y-91081188D01*
X112023522Y-91027310D01*
X112060932Y-91010225D01*
X112206317Y-90971269D01*
X112206331Y-90971264D01*
X112412478Y-90875136D01*
X112485472Y-90824025D01*
X111892534Y-90231086D01*
X111902315Y-90229680D01*
X112033100Y-90169952D01*
X112141761Y-90075798D01*
X112219493Y-89954844D01*
X112243076Y-89874523D01*
X112839025Y-90470472D01*
X112890136Y-90397478D01*
X112986264Y-90191331D01*
X112986269Y-90191317D01*
X113045139Y-89971610D01*
X113045141Y-89971599D01*
X113064966Y-89745002D01*
X113064966Y-89744997D01*
X113045141Y-89518400D01*
X113045139Y-89518389D01*
X112986269Y-89298682D01*
X112986265Y-89298673D01*
X112890133Y-89092516D01*
X112890131Y-89092512D01*
X112839026Y-89019526D01*
X112839025Y-89019526D01*
X112243076Y-89615475D01*
X112219493Y-89535156D01*
X112141761Y-89414202D01*
X112033100Y-89320048D01*
X111902315Y-89260320D01*
X111892531Y-89258913D01*
X112485472Y-88665973D01*
X112412483Y-88614866D01*
X112412481Y-88614865D01*
X112206326Y-88518734D01*
X112206317Y-88518730D01*
X112060932Y-88479775D01*
X112001271Y-88443410D01*
X111970742Y-88380563D01*
X111979037Y-88311188D01*
X112023522Y-88257310D01*
X112060932Y-88240225D01*
X112206317Y-88201269D01*
X112206331Y-88201264D01*
X112412478Y-88105136D01*
X112485472Y-88054025D01*
X111892534Y-87461086D01*
X111902315Y-87459680D01*
X112033100Y-87399952D01*
X112141761Y-87305798D01*
X112219493Y-87184844D01*
X112243076Y-87104523D01*
X112839025Y-87700472D01*
X112890136Y-87627478D01*
X112986264Y-87421331D01*
X112986269Y-87421317D01*
X113045139Y-87201610D01*
X113045141Y-87201599D01*
X113064966Y-86975002D01*
X113064966Y-86974997D01*
X113045141Y-86748400D01*
X113045139Y-86748389D01*
X112986269Y-86528682D01*
X112986265Y-86528673D01*
X112911990Y-86369388D01*
X112901498Y-86300310D01*
X112930018Y-86236526D01*
X112959275Y-86211445D01*
X112988542Y-86193393D01*
X112992565Y-86190911D01*
X113059956Y-86172471D01*
X113126620Y-86193393D01*
X113165499Y-86238744D01*
X113166721Y-86238039D01*
X113169430Y-86242731D01*
X113299954Y-86429141D01*
X113460858Y-86590045D01*
X113460861Y-86590047D01*
X113647266Y-86720568D01*
X113853504Y-86816739D01*
X113853509Y-86816740D01*
X113853511Y-86816741D01*
X113997136Y-86855225D01*
X114056797Y-86891590D01*
X114087326Y-86954437D01*
X114079031Y-87023812D01*
X114034546Y-87077690D01*
X113997136Y-87094775D01*
X113853511Y-87133258D01*
X113853502Y-87133261D01*
X113647267Y-87229431D01*
X113647265Y-87229432D01*
X113460858Y-87359954D01*
X113299954Y-87520858D01*
X113169432Y-87707265D01*
X113169431Y-87707267D01*
X113073261Y-87913502D01*
X113073258Y-87913511D01*
X113014366Y-88133302D01*
X113014364Y-88133313D01*
X112994532Y-88359998D01*
X112994532Y-88360001D01*
X113014364Y-88586686D01*
X113014366Y-88586697D01*
X113073258Y-88806488D01*
X113073261Y-88806497D01*
X113169431Y-89012732D01*
X113169432Y-89012734D01*
X113299954Y-89199141D01*
X113460858Y-89360045D01*
X113460861Y-89360047D01*
X113647266Y-89490568D01*
X113853504Y-89586739D01*
X113853509Y-89586740D01*
X113853511Y-89586741D01*
X113997136Y-89625225D01*
X114056797Y-89661590D01*
X114087326Y-89724437D01*
X114079031Y-89793812D01*
X114034546Y-89847690D01*
X113997136Y-89864775D01*
X113853511Y-89903258D01*
X113853502Y-89903261D01*
X113647267Y-89999431D01*
X113647265Y-89999432D01*
X113460858Y-90129954D01*
X113299954Y-90290858D01*
X113169432Y-90477265D01*
X113169431Y-90477267D01*
X113073261Y-90683502D01*
X113073258Y-90683511D01*
X113014366Y-90903302D01*
X113014364Y-90903313D01*
X112994532Y-91129998D01*
X112994532Y-91130001D01*
X113014364Y-91356686D01*
X113014366Y-91356697D01*
X113073258Y-91576488D01*
X113073261Y-91576497D01*
X113169431Y-91782732D01*
X113169432Y-91782734D01*
X113299954Y-91969141D01*
X113460858Y-92130045D01*
X113460861Y-92130047D01*
X113647266Y-92260568D01*
X113853504Y-92356739D01*
X113853509Y-92356740D01*
X113853511Y-92356741D01*
X113997136Y-92395225D01*
X114056797Y-92431590D01*
X114087326Y-92494437D01*
X114079031Y-92563812D01*
X114034546Y-92617690D01*
X113997136Y-92634775D01*
X113853511Y-92673258D01*
X113853502Y-92673261D01*
X113647267Y-92769431D01*
X113647265Y-92769432D01*
X113460858Y-92899954D01*
X113299954Y-93060858D01*
X113169432Y-93247265D01*
X113169431Y-93247267D01*
X113073261Y-93453502D01*
X113073258Y-93453511D01*
X113014366Y-93673302D01*
X113014364Y-93673313D01*
X112994532Y-93899998D01*
X112994532Y-93900001D01*
X113014364Y-94126686D01*
X113014366Y-94126697D01*
X113073258Y-94346488D01*
X113073261Y-94346497D01*
X113169431Y-94552732D01*
X113169432Y-94552734D01*
X113299954Y-94739141D01*
X113460858Y-94900045D01*
X113460861Y-94900047D01*
X113647266Y-95030568D01*
X113853504Y-95126739D01*
X113853509Y-95126740D01*
X113853511Y-95126741D01*
X113997136Y-95165225D01*
X114056797Y-95201590D01*
X114087326Y-95264437D01*
X114079031Y-95333812D01*
X114034546Y-95387690D01*
X113997136Y-95404775D01*
X113853511Y-95443258D01*
X113853502Y-95443261D01*
X113647267Y-95539431D01*
X113647265Y-95539432D01*
X113460858Y-95669954D01*
X113299954Y-95830858D01*
X113169432Y-96017265D01*
X113169431Y-96017267D01*
X113073261Y-96223502D01*
X113073258Y-96223511D01*
X113014366Y-96443302D01*
X113014364Y-96443313D01*
X112994532Y-96669998D01*
X112994532Y-96670001D01*
X113014364Y-96896686D01*
X113014366Y-96896697D01*
X113073258Y-97116488D01*
X113073261Y-97116497D01*
X113169431Y-97322732D01*
X113169432Y-97322734D01*
X113299954Y-97509141D01*
X113460858Y-97670045D01*
X113460861Y-97670047D01*
X113647266Y-97800568D01*
X113853504Y-97896739D01*
X113853509Y-97896740D01*
X113853511Y-97896741D01*
X113997136Y-97935225D01*
X114056797Y-97971590D01*
X114087326Y-98034437D01*
X114079031Y-98103812D01*
X114034546Y-98157690D01*
X113997136Y-98174775D01*
X113853511Y-98213258D01*
X113853502Y-98213261D01*
X113647267Y-98309431D01*
X113647265Y-98309432D01*
X113460858Y-98439954D01*
X113299954Y-98600858D01*
X113169432Y-98787265D01*
X113169431Y-98787267D01*
X113073261Y-98993502D01*
X113073258Y-98993511D01*
X113014366Y-99213302D01*
X113014364Y-99213313D01*
X112994532Y-99439998D01*
X112994532Y-99440001D01*
X113014364Y-99666686D01*
X113014366Y-99666697D01*
X113073258Y-99886488D01*
X113073261Y-99886497D01*
X113169431Y-100092732D01*
X113169432Y-100092734D01*
X113299954Y-100279141D01*
X113460858Y-100440045D01*
X113460861Y-100440047D01*
X113647266Y-100570568D01*
X113853504Y-100666739D01*
X113853509Y-100666740D01*
X113853511Y-100666741D01*
X113997136Y-100705225D01*
X114056797Y-100741590D01*
X114087326Y-100804437D01*
X114079031Y-100873812D01*
X114034546Y-100927690D01*
X113997136Y-100944775D01*
X113853511Y-100983258D01*
X113853502Y-100983261D01*
X113647267Y-101079431D01*
X113647265Y-101079432D01*
X113460858Y-101209954D01*
X113299954Y-101370858D01*
X113169432Y-101557265D01*
X113169431Y-101557267D01*
X113073261Y-101763502D01*
X113073258Y-101763511D01*
X113014366Y-101983302D01*
X113014364Y-101983313D01*
X112994532Y-102209998D01*
X112994532Y-102210001D01*
X113014364Y-102436686D01*
X113014366Y-102436697D01*
X113073258Y-102656488D01*
X113073261Y-102656497D01*
X113169431Y-102862732D01*
X113169432Y-102862734D01*
X113299954Y-103049141D01*
X113460858Y-103210045D01*
X113460861Y-103210047D01*
X113647266Y-103340568D01*
X113853504Y-103436739D01*
X113853509Y-103436740D01*
X113853511Y-103436741D01*
X113997136Y-103475225D01*
X114056797Y-103511590D01*
X114087326Y-103574437D01*
X114079031Y-103643812D01*
X114034546Y-103697690D01*
X113997136Y-103714775D01*
X113853511Y-103753258D01*
X113853502Y-103753261D01*
X113647267Y-103849431D01*
X113647265Y-103849432D01*
X113460858Y-103979954D01*
X113299954Y-104140858D01*
X113169432Y-104327265D01*
X113169431Y-104327267D01*
X113073261Y-104533502D01*
X113073258Y-104533511D01*
X113014366Y-104753302D01*
X113014364Y-104753313D01*
X112994532Y-104979998D01*
X112994532Y-104980001D01*
X113014364Y-105206686D01*
X113014366Y-105206697D01*
X113073258Y-105426488D01*
X113073261Y-105426497D01*
X113169431Y-105632732D01*
X113169432Y-105632734D01*
X113299954Y-105819141D01*
X113460858Y-105980045D01*
X113460861Y-105980047D01*
X113647266Y-106110568D01*
X113853504Y-106206739D01*
X113998102Y-106245483D01*
X114057761Y-106281848D01*
X114088291Y-106344694D01*
X114079997Y-106414070D01*
X114035512Y-106467948D01*
X113998102Y-106485033D01*
X113853680Y-106523731D01*
X113853673Y-106523734D01*
X113647513Y-106619868D01*
X113574527Y-106670972D01*
X113574526Y-106670973D01*
X114167467Y-107263913D01*
X114157685Y-107265320D01*
X114026900Y-107325048D01*
X113918239Y-107419202D01*
X113840507Y-107540156D01*
X113816923Y-107620476D01*
X113220973Y-107024526D01*
X113220972Y-107024527D01*
X113169868Y-107097513D01*
X113073734Y-107303673D01*
X113073730Y-107303682D01*
X113014860Y-107523389D01*
X113014858Y-107523400D01*
X112995034Y-107749997D01*
X112995034Y-107750002D01*
X113014858Y-107976599D01*
X113014860Y-107976610D01*
X113073730Y-108196317D01*
X113073734Y-108196326D01*
X113169865Y-108402481D01*
X113169866Y-108402483D01*
X113220973Y-108475471D01*
X113220974Y-108475472D01*
X113816922Y-107879523D01*
X113840507Y-107959844D01*
X113918239Y-108080798D01*
X114026900Y-108174952D01*
X114157685Y-108234680D01*
X114167466Y-108236086D01*
X113574526Y-108829025D01*
X113574526Y-108829026D01*
X113647512Y-108880131D01*
X113647516Y-108880133D01*
X113853673Y-108976265D01*
X113853682Y-108976269D01*
X114073389Y-109035139D01*
X114073400Y-109035141D01*
X114299998Y-109054966D01*
X114300002Y-109054966D01*
X114526599Y-109035141D01*
X114526610Y-109035139D01*
X114746317Y-108976269D01*
X114746331Y-108976264D01*
X114952478Y-108880136D01*
X115025472Y-108829025D01*
X114432534Y-108236086D01*
X114442315Y-108234680D01*
X114573100Y-108174952D01*
X114681761Y-108080798D01*
X114759493Y-107959844D01*
X114783076Y-107879523D01*
X115379025Y-108475472D01*
X115430136Y-108402478D01*
X115526264Y-108196331D01*
X115526269Y-108196317D01*
X115585139Y-107976610D01*
X115585141Y-107976599D01*
X115604966Y-107750002D01*
X115604966Y-107749997D01*
X115585141Y-107523400D01*
X115585139Y-107523389D01*
X115526269Y-107303682D01*
X115526265Y-107303673D01*
X115430133Y-107097516D01*
X115430131Y-107097512D01*
X115379026Y-107024526D01*
X115379025Y-107024526D01*
X114783076Y-107620475D01*
X114759493Y-107540156D01*
X114681761Y-107419202D01*
X114573100Y-107325048D01*
X114442315Y-107265320D01*
X114432533Y-107263913D01*
X115025472Y-106670974D01*
X115025471Y-106670973D01*
X114952483Y-106619866D01*
X114952481Y-106619865D01*
X114746326Y-106523734D01*
X114746319Y-106523731D01*
X114601897Y-106485033D01*
X114542237Y-106448668D01*
X114511708Y-106385821D01*
X114520003Y-106316445D01*
X114564488Y-106262567D01*
X114601894Y-106245484D01*
X114746496Y-106206739D01*
X114952734Y-106110568D01*
X115139139Y-105980047D01*
X115300047Y-105819139D01*
X115430568Y-105632734D01*
X115526739Y-105426496D01*
X115585635Y-105206692D01*
X115605468Y-104980000D01*
X115601197Y-104931188D01*
X115591470Y-104820000D01*
X115585635Y-104753308D01*
X115539270Y-104580272D01*
X115526741Y-104533511D01*
X115526738Y-104533502D01*
X115480827Y-104435047D01*
X115430568Y-104327266D01*
X115300047Y-104140861D01*
X115300045Y-104140858D01*
X115139141Y-103979954D01*
X114952734Y-103849432D01*
X114952732Y-103849431D01*
X114746497Y-103753261D01*
X114746490Y-103753259D01*
X114602862Y-103714774D01*
X114543202Y-103678409D01*
X114512673Y-103615562D01*
X114520968Y-103546186D01*
X114565453Y-103492308D01*
X114602859Y-103475226D01*
X114708127Y-103447019D01*
X114746486Y-103436742D01*
X114746489Y-103436740D01*
X114746496Y-103436739D01*
X114952734Y-103340568D01*
X115139139Y-103210047D01*
X115300047Y-103049139D01*
X115430568Y-102862734D01*
X115526739Y-102656496D01*
X115585635Y-102436692D01*
X115605468Y-102210000D01*
X115585635Y-101983308D01*
X115526739Y-101763504D01*
X115430568Y-101557266D01*
X115300047Y-101370861D01*
X115300045Y-101370858D01*
X115139141Y-101209954D01*
X114952734Y-101079432D01*
X114952732Y-101079431D01*
X114746497Y-100983261D01*
X114746488Y-100983258D01*
X114609286Y-100946496D01*
X114602862Y-100944774D01*
X114543202Y-100908410D01*
X114512673Y-100845563D01*
X114520968Y-100776188D01*
X114565453Y-100722310D01*
X114602862Y-100705225D01*
X114746496Y-100666739D01*
X114952734Y-100570568D01*
X115139139Y-100440047D01*
X115300047Y-100279139D01*
X115430568Y-100092734D01*
X115526739Y-99886496D01*
X115585635Y-99666692D01*
X115605468Y-99440000D01*
X115601197Y-99391188D01*
X115591581Y-99281269D01*
X115585635Y-99213308D01*
X115526739Y-98993504D01*
X115430568Y-98787266D01*
X115300047Y-98600861D01*
X115300045Y-98600858D01*
X115139141Y-98439954D01*
X114952734Y-98309432D01*
X114952732Y-98309431D01*
X114746497Y-98213261D01*
X114746488Y-98213258D01*
X114623966Y-98180429D01*
X114602862Y-98174774D01*
X114543202Y-98138410D01*
X114512673Y-98075563D01*
X114520968Y-98006188D01*
X114565453Y-97952310D01*
X114602862Y-97935225D01*
X114746496Y-97896739D01*
X114952734Y-97800568D01*
X115139139Y-97670047D01*
X115300047Y-97509139D01*
X115430568Y-97322734D01*
X115526739Y-97116496D01*
X115585635Y-96896692D01*
X115605468Y-96670000D01*
X115585635Y-96443308D01*
X115526739Y-96223504D01*
X115430568Y-96017266D01*
X115300047Y-95830861D01*
X115300045Y-95830858D01*
X115139141Y-95669954D01*
X114952734Y-95539432D01*
X114952732Y-95539431D01*
X114746497Y-95443261D01*
X114746490Y-95443259D01*
X114602862Y-95404774D01*
X114543202Y-95368409D01*
X114512673Y-95305562D01*
X114520968Y-95236186D01*
X114565453Y-95182308D01*
X114602859Y-95165226D01*
X114708127Y-95137019D01*
X114746486Y-95126742D01*
X114746489Y-95126740D01*
X114746496Y-95126739D01*
X114952734Y-95030568D01*
X115139139Y-94900047D01*
X115300047Y-94739139D01*
X115430568Y-94552734D01*
X115526739Y-94346496D01*
X115585635Y-94126692D01*
X115605468Y-93900000D01*
X115601197Y-93851188D01*
X115594552Y-93775233D01*
X115585635Y-93673308D01*
X115535213Y-93485131D01*
X115526741Y-93453511D01*
X115526738Y-93453502D01*
X115517656Y-93434025D01*
X115430568Y-93247266D01*
X115300047Y-93060861D01*
X115300045Y-93060858D01*
X115139141Y-92899954D01*
X114952734Y-92769432D01*
X114952732Y-92769431D01*
X114746497Y-92673261D01*
X114746488Y-92673258D01*
X114623966Y-92640429D01*
X114602862Y-92634774D01*
X114543202Y-92598410D01*
X114512673Y-92535563D01*
X114520968Y-92466188D01*
X114565453Y-92412310D01*
X114602862Y-92395225D01*
X114746496Y-92356739D01*
X114952734Y-92260568D01*
X115139139Y-92130047D01*
X115300047Y-91969139D01*
X115430568Y-91782734D01*
X115526739Y-91576496D01*
X115585635Y-91356692D01*
X115605468Y-91130000D01*
X115601197Y-91081188D01*
X115591581Y-90971269D01*
X115585635Y-90903308D01*
X115526739Y-90683504D01*
X115430568Y-90477266D01*
X115300047Y-90290861D01*
X115300045Y-90290858D01*
X115139141Y-90129954D01*
X114952734Y-89999432D01*
X114952732Y-89999431D01*
X114746497Y-89903261D01*
X114746490Y-89903259D01*
X114602862Y-89864774D01*
X114543202Y-89828409D01*
X114512673Y-89765562D01*
X114520968Y-89696186D01*
X114565453Y-89642308D01*
X114602859Y-89625226D01*
X114708127Y-89597019D01*
X114746486Y-89586742D01*
X114746489Y-89586740D01*
X114746496Y-89586739D01*
X114952734Y-89490568D01*
X115139139Y-89360047D01*
X115300047Y-89199139D01*
X115430568Y-89012734D01*
X115526739Y-88806496D01*
X115585635Y-88586692D01*
X115605468Y-88360000D01*
X115601197Y-88311188D01*
X115591581Y-88201269D01*
X115585635Y-88133308D01*
X115526739Y-87913504D01*
X115430568Y-87707266D01*
X115300047Y-87520861D01*
X115300045Y-87520858D01*
X115139141Y-87359954D01*
X114952734Y-87229432D01*
X114952732Y-87229431D01*
X114746497Y-87133261D01*
X114746488Y-87133258D01*
X114623966Y-87100429D01*
X114602862Y-87094774D01*
X114543202Y-87058410D01*
X114512673Y-86995563D01*
X114520968Y-86926188D01*
X114565453Y-86872310D01*
X114602862Y-86855225D01*
X114746496Y-86816739D01*
X114952734Y-86720568D01*
X115139139Y-86590047D01*
X115300047Y-86429139D01*
X115430568Y-86242734D01*
X115526739Y-86036496D01*
X115585635Y-85816692D01*
X115605468Y-85590000D01*
X115585635Y-85363308D01*
X115526739Y-85143504D01*
X115430568Y-84937266D01*
X115403702Y-84898898D01*
X115381376Y-84832693D01*
X115398386Y-84764926D01*
X115437140Y-84724175D01*
X115469283Y-84703034D01*
X115490933Y-84689680D01*
X115534656Y-84662712D01*
X115534662Y-84662705D01*
X115540325Y-84658229D01*
X115540362Y-84658277D01*
X115546204Y-84653518D01*
X115546164Y-84653471D01*
X115551686Y-84648836D01*
X115551696Y-84648830D01*
X115581470Y-84617271D01*
X115604386Y-84592982D01*
X116336420Y-83860945D01*
X117071638Y-83125727D01*
X117085267Y-83113950D01*
X117104530Y-83099610D01*
X117104532Y-83099606D01*
X117104534Y-83099606D01*
X117133546Y-83065029D01*
X117138113Y-83059585D01*
X117141767Y-83055599D01*
X117147591Y-83049776D01*
X117167930Y-83024052D01*
X117217302Y-82965214D01*
X117217306Y-82965205D01*
X117221274Y-82959175D01*
X117221325Y-82959208D01*
X117225369Y-82952860D01*
X117225317Y-82952828D01*
X117229104Y-82946685D01*
X117229111Y-82946677D01*
X117261572Y-82877063D01*
X117296040Y-82808433D01*
X117296041Y-82808427D01*
X117298508Y-82801650D01*
X117298566Y-82801671D01*
X117301043Y-82794544D01*
X117300986Y-82794526D01*
X117303255Y-82787679D01*
X117303256Y-82787674D01*
X117303257Y-82787672D01*
X117318790Y-82712441D01*
X117336500Y-82637721D01*
X117336500Y-82637719D01*
X117337339Y-82630548D01*
X117337398Y-82630554D01*
X117338164Y-82623054D01*
X117338105Y-82623049D01*
X117338734Y-82615859D01*
X117336500Y-82539082D01*
X117336500Y-71945705D01*
X117337809Y-71927735D01*
X117341289Y-71903974D01*
X117336736Y-71851939D01*
X117336500Y-71846532D01*
X117336500Y-71838296D01*
X117336500Y-71838291D01*
X117332691Y-71805705D01*
X117325998Y-71729203D01*
X117325995Y-71729194D01*
X117324538Y-71722135D01*
X117324598Y-71722122D01*
X117322966Y-71714764D01*
X117322908Y-71714778D01*
X117321241Y-71707747D01*
X117321241Y-71707745D01*
X117294969Y-71635563D01*
X117289887Y-71620225D01*
X117270815Y-71562668D01*
X117267762Y-71556121D01*
X117267815Y-71556095D01*
X117264531Y-71549311D01*
X117264479Y-71549338D01*
X117261236Y-71542882D01*
X117241788Y-71513313D01*
X117219034Y-71478716D01*
X117183890Y-71421739D01*
X117178714Y-71413347D01*
X117174234Y-71407681D01*
X117174280Y-71407643D01*
X117169519Y-71401799D01*
X117169474Y-71401838D01*
X117164834Y-71396308D01*
X117108982Y-71343613D01*
X115634729Y-69869361D01*
X115622949Y-69855730D01*
X115615482Y-69845701D01*
X115608612Y-69836472D01*
X115608610Y-69836470D01*
X115568587Y-69802886D01*
X115564612Y-69799244D01*
X115561690Y-69796322D01*
X115558780Y-69793411D01*
X115533040Y-69773059D01*
X115481891Y-69730139D01*
X115443189Y-69671967D01*
X115442081Y-69602107D01*
X115449215Y-69582745D01*
X115526739Y-69416496D01*
X115585635Y-69196692D01*
X115605468Y-68970000D01*
X115601197Y-68921188D01*
X115596775Y-68870635D01*
X115585635Y-68743308D01*
X115540916Y-68576415D01*
X115526741Y-68523511D01*
X115526738Y-68523502D01*
X115430568Y-68317266D01*
X115300047Y-68130861D01*
X115300045Y-68130858D01*
X115139141Y-67969954D01*
X114952734Y-67839432D01*
X114952732Y-67839431D01*
X114746497Y-67743261D01*
X114746488Y-67743258D01*
X114623966Y-67710429D01*
X114602862Y-67704774D01*
X114543202Y-67668410D01*
X114512673Y-67605563D01*
X114520968Y-67536188D01*
X114565453Y-67482310D01*
X114602862Y-67465225D01*
X114746496Y-67426739D01*
X114952734Y-67330568D01*
X115139139Y-67200047D01*
X115300047Y-67039139D01*
X115430568Y-66852734D01*
X115526739Y-66646496D01*
X115585635Y-66426692D01*
X115605468Y-66200000D01*
X115602893Y-66170573D01*
X115591470Y-66040000D01*
X115585635Y-65973308D01*
X115540916Y-65806415D01*
X115526741Y-65753511D01*
X115526738Y-65753502D01*
X115480827Y-65655047D01*
X115430568Y-65547266D01*
X115300047Y-65360861D01*
X115300045Y-65360858D01*
X115139141Y-65199954D01*
X114952734Y-65069432D01*
X114952732Y-65069431D01*
X114746497Y-64973261D01*
X114746490Y-64973259D01*
X114602862Y-64934774D01*
X114543202Y-64898409D01*
X114512673Y-64835562D01*
X114520968Y-64766186D01*
X114565453Y-64712308D01*
X114602859Y-64695226D01*
X114708127Y-64667019D01*
X114746486Y-64656742D01*
X114746489Y-64656740D01*
X114746496Y-64656739D01*
X114952734Y-64560568D01*
X115139139Y-64430047D01*
X115300047Y-64269139D01*
X115430568Y-64082734D01*
X115526739Y-63876496D01*
X115585635Y-63656692D01*
X115605468Y-63430000D01*
X115601197Y-63381188D01*
X115591470Y-63270000D01*
X115585635Y-63203308D01*
X115540916Y-63036415D01*
X115526741Y-62983511D01*
X115526738Y-62983502D01*
X115480827Y-62885047D01*
X115430568Y-62777266D01*
X115300047Y-62590861D01*
X115300045Y-62590858D01*
X115139141Y-62429954D01*
X114952734Y-62299432D01*
X114952732Y-62299431D01*
X114746497Y-62203261D01*
X114746488Y-62203258D01*
X114623966Y-62170429D01*
X114602862Y-62164774D01*
X114543202Y-62128410D01*
X114512673Y-62065563D01*
X114520968Y-61996188D01*
X114565453Y-61942310D01*
X114602862Y-61925225D01*
X114746496Y-61886739D01*
X114952734Y-61790568D01*
X115139139Y-61660047D01*
X115300047Y-61499139D01*
X115430568Y-61312734D01*
X115526739Y-61106496D01*
X115585635Y-60886692D01*
X115605468Y-60660000D01*
X115604412Y-60647935D01*
X115593114Y-60518793D01*
X115585635Y-60433308D01*
X115540710Y-60265643D01*
X115526741Y-60213511D01*
X115526738Y-60213502D01*
X115517442Y-60193566D01*
X115430568Y-60007266D01*
X115300047Y-59820861D01*
X115300045Y-59820858D01*
X115139141Y-59659954D01*
X114952734Y-59529432D01*
X114952732Y-59529431D01*
X114746497Y-59433261D01*
X114746488Y-59433258D01*
X114526697Y-59374366D01*
X114526693Y-59374365D01*
X114526692Y-59374365D01*
X114526691Y-59374364D01*
X114526686Y-59374364D01*
X114300002Y-59354532D01*
X114299998Y-59354532D01*
X114073313Y-59374364D01*
X114073302Y-59374366D01*
X113853511Y-59433258D01*
X113853502Y-59433261D01*
X113647267Y-59529431D01*
X113647265Y-59529432D01*
X113460858Y-59659954D01*
X113299955Y-59820857D01*
X113286072Y-59840684D01*
X113231493Y-59884307D01*
X113161995Y-59891498D01*
X113099641Y-59859973D01*
X113064229Y-59799742D01*
X113060499Y-59769563D01*
X113060499Y-58427128D01*
X113054091Y-58367517D01*
X113016648Y-58267128D01*
X113003797Y-58232671D01*
X113003793Y-58232664D01*
X112917547Y-58117455D01*
X112917544Y-58117452D01*
X112802335Y-58031206D01*
X112802328Y-58031202D01*
X112667482Y-57980908D01*
X112667483Y-57980908D01*
X112607883Y-57974501D01*
X112607881Y-57974500D01*
X112607873Y-57974500D01*
X112607864Y-57974500D01*
X110912129Y-57974500D01*
X110912123Y-57974501D01*
X110852516Y-57980908D01*
X110717671Y-58031202D01*
X110717664Y-58031206D01*
X110602455Y-58117452D01*
X110602452Y-58117455D01*
X110516206Y-58232664D01*
X110516202Y-58232671D01*
X110465908Y-58367517D01*
X110459501Y-58427116D01*
X110459501Y-58427123D01*
X110459500Y-58427135D01*
X110459500Y-60122870D01*
X110459501Y-60122876D01*
X110465908Y-60182483D01*
X110516202Y-60317328D01*
X110516206Y-60317335D01*
X110602452Y-60432544D01*
X110602455Y-60432547D01*
X110717664Y-60518793D01*
X110717671Y-60518797D01*
X110852517Y-60569091D01*
X110852516Y-60569091D01*
X110859444Y-60569835D01*
X110912127Y-60575500D01*
X111277628Y-60575499D01*
X111344665Y-60595183D01*
X111390420Y-60647987D01*
X111400364Y-60717146D01*
X111371339Y-60780701D01*
X111318063Y-60814939D01*
X111318598Y-60816407D01*
X111313502Y-60818261D01*
X111107267Y-60914431D01*
X111107265Y-60914432D01*
X110920858Y-61044954D01*
X110759954Y-61205858D01*
X110629432Y-61392265D01*
X110629431Y-61392267D01*
X110533261Y-61598502D01*
X110533258Y-61598511D01*
X110474366Y-61818302D01*
X110474364Y-61818313D01*
X110454532Y-62044998D01*
X110454532Y-62045001D01*
X110474364Y-62271686D01*
X110474366Y-62271697D01*
X110533258Y-62491488D01*
X110533261Y-62491497D01*
X110629431Y-62697732D01*
X110629432Y-62697734D01*
X110759954Y-62884141D01*
X110920858Y-63045045D01*
X110920861Y-63045047D01*
X111107266Y-63175568D01*
X111313504Y-63271739D01*
X111313509Y-63271740D01*
X111313511Y-63271741D01*
X111457136Y-63310225D01*
X111516797Y-63346590D01*
X111547326Y-63409437D01*
X111539031Y-63478812D01*
X111494546Y-63532690D01*
X111457136Y-63549775D01*
X111313511Y-63588258D01*
X111313502Y-63588261D01*
X111107267Y-63684431D01*
X111107265Y-63684432D01*
X110920858Y-63814954D01*
X110759954Y-63975858D01*
X110629432Y-64162265D01*
X110629431Y-64162267D01*
X110533261Y-64368502D01*
X110533258Y-64368511D01*
X110474366Y-64588302D01*
X110474364Y-64588313D01*
X110454532Y-64814998D01*
X110454532Y-64815001D01*
X110474364Y-65041686D01*
X110474366Y-65041697D01*
X110533258Y-65261488D01*
X110533261Y-65261497D01*
X110629431Y-65467732D01*
X110629432Y-65467734D01*
X110759954Y-65654141D01*
X110920858Y-65815045D01*
X110920861Y-65815047D01*
X111107266Y-65945568D01*
X111313504Y-66041739D01*
X111313509Y-66041740D01*
X111313511Y-66041741D01*
X111457136Y-66080225D01*
X111516797Y-66116590D01*
X111547326Y-66179437D01*
X111539031Y-66248812D01*
X111494546Y-66302690D01*
X111457136Y-66319775D01*
X111313511Y-66358258D01*
X111313502Y-66358261D01*
X111107267Y-66454431D01*
X111107265Y-66454432D01*
X110920858Y-66584954D01*
X110759954Y-66745858D01*
X110629432Y-66932265D01*
X110629431Y-66932267D01*
X110533261Y-67138502D01*
X110533258Y-67138511D01*
X110474366Y-67358302D01*
X110474364Y-67358313D01*
X110454532Y-67584998D01*
X110454532Y-67585001D01*
X110474364Y-67811686D01*
X110474366Y-67811697D01*
X110533258Y-68031488D01*
X110533261Y-68031497D01*
X110629431Y-68237732D01*
X110629432Y-68237734D01*
X110759954Y-68424141D01*
X110920858Y-68585045D01*
X110920861Y-68585047D01*
X111107266Y-68715568D01*
X111313504Y-68811739D01*
X111313509Y-68811740D01*
X111313511Y-68811741D01*
X111457136Y-68850225D01*
X111516797Y-68886590D01*
X111547326Y-68949437D01*
X111539031Y-69018812D01*
X111494546Y-69072690D01*
X111457136Y-69089775D01*
X111313511Y-69128258D01*
X111313502Y-69128261D01*
X111107267Y-69224431D01*
X111107265Y-69224432D01*
X110920858Y-69354954D01*
X110759954Y-69515858D01*
X110629432Y-69702265D01*
X110629431Y-69702267D01*
X110533261Y-69908502D01*
X110533258Y-69908511D01*
X110474366Y-70128302D01*
X110474364Y-70128313D01*
X110454532Y-70354998D01*
X110454532Y-70355001D01*
X110474364Y-70581686D01*
X110474366Y-70581697D01*
X110533258Y-70801488D01*
X110533261Y-70801497D01*
X110629431Y-71007732D01*
X110629432Y-71007734D01*
X110759954Y-71194141D01*
X110920858Y-71355045D01*
X110920861Y-71355047D01*
X111107266Y-71485568D01*
X111313504Y-71581739D01*
X111313509Y-71581740D01*
X111313511Y-71581741D01*
X111457136Y-71620225D01*
X111516797Y-71656590D01*
X111547326Y-71719437D01*
X111539031Y-71788812D01*
X111494546Y-71842690D01*
X111457136Y-71859775D01*
X111313511Y-71898258D01*
X111313502Y-71898261D01*
X111107267Y-71994431D01*
X111107265Y-71994432D01*
X110920858Y-72124954D01*
X110759954Y-72285858D01*
X110629432Y-72472265D01*
X110629431Y-72472267D01*
X110533261Y-72678502D01*
X110533258Y-72678511D01*
X110474366Y-72898302D01*
X110474364Y-72898313D01*
X110454532Y-73124998D01*
X110454532Y-73125001D01*
X110474364Y-73351686D01*
X110474366Y-73351697D01*
X110533258Y-73571488D01*
X110533261Y-73571497D01*
X110629431Y-73777732D01*
X110629432Y-73777734D01*
X110759954Y-73964141D01*
X110920858Y-74125045D01*
X110920861Y-74125047D01*
X111107266Y-74255568D01*
X111313504Y-74351739D01*
X111313509Y-74351740D01*
X111313511Y-74351741D01*
X111457136Y-74390225D01*
X111516797Y-74426590D01*
X111547326Y-74489437D01*
X111539031Y-74558812D01*
X111494546Y-74612690D01*
X111457136Y-74629775D01*
X111313511Y-74668258D01*
X111313502Y-74668261D01*
X111107267Y-74764431D01*
X111107265Y-74764432D01*
X110920858Y-74894954D01*
X110759954Y-75055858D01*
X110629432Y-75242265D01*
X110629431Y-75242267D01*
X110533261Y-75448502D01*
X110533258Y-75448511D01*
X110474366Y-75668302D01*
X110474364Y-75668313D01*
X110454532Y-75894998D01*
X110454532Y-75895001D01*
X110474364Y-76121686D01*
X110474366Y-76121697D01*
X110533258Y-76341488D01*
X110533261Y-76341497D01*
X110629431Y-76547732D01*
X110629432Y-76547734D01*
X110759954Y-76734141D01*
X110920858Y-76895045D01*
X110920861Y-76895047D01*
X111107266Y-77025568D01*
X111313504Y-77121739D01*
X111313509Y-77121740D01*
X111313511Y-77121741D01*
X111457136Y-77160225D01*
X111516797Y-77196590D01*
X111547326Y-77259437D01*
X111539031Y-77328812D01*
X111494546Y-77382690D01*
X111457136Y-77399775D01*
X111313511Y-77438258D01*
X111313502Y-77438261D01*
X111107267Y-77534431D01*
X111107265Y-77534432D01*
X110920858Y-77664954D01*
X110759954Y-77825858D01*
X110734912Y-77861623D01*
X110680335Y-77905248D01*
X110633337Y-77914500D01*
X101798705Y-77914500D01*
X101780735Y-77913191D01*
X101756972Y-77909710D01*
X101711533Y-77913686D01*
X101704931Y-77914264D01*
X101699530Y-77914500D01*
X101691289Y-77914500D01*
X101669579Y-77917037D01*
X101658724Y-77918306D01*
X101643419Y-77919645D01*
X101582199Y-77925001D01*
X101575132Y-77926460D01*
X101575120Y-77926404D01*
X101567763Y-77928035D01*
X101567777Y-77928092D01*
X101560743Y-77929759D01*
X101488575Y-77956025D01*
X101415675Y-77980181D01*
X101409126Y-77983236D01*
X101409101Y-77983183D01*
X101402308Y-77986471D01*
X101402334Y-77986523D01*
X101395880Y-77989764D01*
X101331708Y-78031971D01*
X101266347Y-78072285D01*
X101260683Y-78076765D01*
X101260647Y-78076719D01*
X101254798Y-78081484D01*
X101254835Y-78081528D01*
X101249310Y-78086164D01*
X101196597Y-78142035D01*
X98932802Y-80405828D01*
X98871479Y-80439313D01*
X98801787Y-80434329D01*
X98745854Y-80392457D01*
X98729292Y-80358342D01*
X98728121Y-80358769D01*
X98726265Y-80353673D01*
X98630134Y-80147517D01*
X98499657Y-79961179D01*
X98338820Y-79800342D01*
X98152482Y-79669865D01*
X97946328Y-79573734D01*
X97750000Y-79521127D01*
X97750000Y-80484314D01*
X97738045Y-80472359D01*
X97625148Y-80414835D01*
X97531481Y-80400000D01*
X97468519Y-80400000D01*
X97374852Y-80414835D01*
X97261955Y-80472359D01*
X97250000Y-80484314D01*
X97250000Y-79521127D01*
X97053671Y-79573734D01*
X96847517Y-79669865D01*
X96661179Y-79800342D01*
X96500342Y-79961179D01*
X96369865Y-80147517D01*
X96273734Y-80353673D01*
X96273730Y-80353682D01*
X96221127Y-80549999D01*
X96221128Y-80550000D01*
X97184314Y-80550000D01*
X97172359Y-80561955D01*
X97114835Y-80674852D01*
X97095014Y-80800000D01*
X97114835Y-80925148D01*
X97172359Y-81038045D01*
X97184314Y-81050000D01*
X96221128Y-81050000D01*
X96273730Y-81246317D01*
X96273734Y-81246326D01*
X96369865Y-81452482D01*
X96500342Y-81638820D01*
X96661179Y-81799657D01*
X96847517Y-81930134D01*
X97053673Y-82026265D01*
X97058769Y-82028121D01*
X97058046Y-82030104D01*
X97109902Y-82061714D01*
X97140430Y-82124561D01*
X97132134Y-82193936D01*
X97105828Y-82232803D01*
X96525451Y-82813181D01*
X96464128Y-82846666D01*
X96437770Y-82849500D01*
X84111230Y-82849500D01*
X84044191Y-82829815D01*
X83998436Y-82777011D01*
X83988492Y-82707853D01*
X84017517Y-82644297D01*
X84023549Y-82637819D01*
X84406559Y-82254808D01*
X84534652Y-82126714D01*
X84595973Y-82093231D01*
X84633135Y-82090869D01*
X84776366Y-82103400D01*
X84799999Y-82105468D01*
X84800000Y-82105468D01*
X84800002Y-82105468D01*
X84856673Y-82100509D01*
X85026692Y-82085635D01*
X85246496Y-82026739D01*
X85452734Y-81930568D01*
X85639139Y-81800047D01*
X85800047Y-81639139D01*
X85930568Y-81452734D01*
X86026739Y-81246496D01*
X86085635Y-81026692D01*
X86105468Y-80800000D01*
X86104083Y-80784175D01*
X86095758Y-80689016D01*
X86085635Y-80573308D01*
X86026739Y-80353504D01*
X85930568Y-80147266D01*
X85834477Y-80010033D01*
X85800048Y-79960862D01*
X85729184Y-79889998D01*
X85639139Y-79799953D01*
X85621450Y-79787567D01*
X85603375Y-79774910D01*
X85559751Y-79720332D01*
X85550500Y-79673336D01*
X85550500Y-76502228D01*
X85570185Y-76435189D01*
X85586814Y-76414552D01*
X91116939Y-70884426D01*
X91178260Y-70850943D01*
X91247952Y-70855927D01*
X91257006Y-70859719D01*
X91293504Y-70876739D01*
X91293510Y-70876740D01*
X91293511Y-70876741D01*
X91322200Y-70884428D01*
X91513308Y-70935635D01*
X91675230Y-70949801D01*
X91739998Y-70955468D01*
X91740000Y-70955468D01*
X91740002Y-70955468D01*
X91796673Y-70950509D01*
X91966692Y-70935635D01*
X92186496Y-70876739D01*
X92392734Y-70780568D01*
X92579139Y-70650047D01*
X92740047Y-70489139D01*
X92870568Y-70302734D01*
X92966739Y-70096496D01*
X93025635Y-69876692D01*
X93040500Y-69706784D01*
X93040500Y-68693216D01*
X93025635Y-68523308D01*
X92970427Y-68317267D01*
X92966741Y-68303511D01*
X92966738Y-68303502D01*
X92870568Y-68097266D01*
X92740047Y-67910861D01*
X92740045Y-67910858D01*
X92579141Y-67749954D01*
X92392734Y-67619432D01*
X92392732Y-67619431D01*
X92186497Y-67523261D01*
X92186488Y-67523258D01*
X91966697Y-67464366D01*
X91966693Y-67464365D01*
X91966692Y-67464365D01*
X91966691Y-67464364D01*
X91966686Y-67464364D01*
X91740002Y-67444532D01*
X91739998Y-67444532D01*
X91513313Y-67464364D01*
X91513302Y-67464366D01*
X91293511Y-67523258D01*
X91293502Y-67523261D01*
X91087267Y-67619431D01*
X91087265Y-67619432D01*
X90900858Y-67749954D01*
X90739954Y-67910858D01*
X90611982Y-68093624D01*
X90609432Y-68097266D01*
X90609315Y-68097518D01*
X90582106Y-68155867D01*
X90535933Y-68208306D01*
X90468739Y-68227457D01*
X90401858Y-68207241D01*
X90357342Y-68155865D01*
X90330135Y-68097520D01*
X90330134Y-68097518D01*
X90199657Y-67911179D01*
X90038820Y-67750342D01*
X89852482Y-67619865D01*
X89646328Y-67523734D01*
X89450000Y-67471127D01*
X89450000Y-68831862D01*
X89395259Y-68794541D01*
X89267073Y-68755000D01*
X89166654Y-68755000D01*
X89067353Y-68769967D01*
X88950000Y-68826481D01*
X88950000Y-67471127D01*
X88753671Y-67523734D01*
X88547517Y-67619865D01*
X88361179Y-67750342D01*
X88200342Y-67911179D01*
X88069865Y-68097517D01*
X87973734Y-68303673D01*
X87973730Y-68303682D01*
X87914860Y-68523389D01*
X87914858Y-68523400D01*
X87900000Y-68693237D01*
X87900000Y-68950000D01*
X88830497Y-68950000D01*
X88781083Y-69035587D01*
X88751232Y-69166370D01*
X88761257Y-69300140D01*
X88810266Y-69425013D01*
X88830193Y-69450000D01*
X87900000Y-69450000D01*
X87900000Y-69706763D01*
X87914858Y-69876599D01*
X87914860Y-69876610D01*
X87973730Y-70096317D01*
X87973734Y-70096326D01*
X88069865Y-70302482D01*
X88200342Y-70488820D01*
X88361179Y-70649657D01*
X88547517Y-70780134D01*
X88758582Y-70878555D01*
X88758047Y-70879700D01*
X88809364Y-70917486D01*
X88834298Y-70982755D01*
X88819987Y-71051143D01*
X88798369Y-71080260D01*
X84314358Y-75564272D01*
X84300729Y-75576051D01*
X84281468Y-75590390D01*
X84247898Y-75630397D01*
X84244253Y-75634376D01*
X84238409Y-75640222D01*
X84218059Y-75665959D01*
X84168695Y-75724789D01*
X84164729Y-75730819D01*
X84164682Y-75730788D01*
X84160630Y-75737147D01*
X84160679Y-75737177D01*
X84156889Y-75743321D01*
X84124424Y-75812941D01*
X84089960Y-75881566D01*
X84087488Y-75888357D01*
X84087432Y-75888336D01*
X84084960Y-75895450D01*
X84085015Y-75895469D01*
X84082742Y-75902327D01*
X84074974Y-75939945D01*
X84067207Y-75977565D01*
X84054001Y-76033284D01*
X84049498Y-76052286D01*
X84048661Y-76059454D01*
X84048601Y-76059447D01*
X84047835Y-76066945D01*
X84047895Y-76066951D01*
X84047265Y-76074140D01*
X84049500Y-76150916D01*
X84049500Y-79673336D01*
X84029815Y-79740375D01*
X83996625Y-79774910D01*
X83960863Y-79799951D01*
X83799951Y-79960862D01*
X83669433Y-80147264D01*
X83648764Y-80191589D01*
X83602591Y-80244028D01*
X83535397Y-80263179D01*
X83468516Y-80242963D01*
X83424000Y-80191588D01*
X83380134Y-80097517D01*
X83249657Y-79911179D01*
X83088820Y-79750342D01*
X82902482Y-79619865D01*
X82696328Y-79523734D01*
X82500000Y-79471127D01*
X82500000Y-80434314D01*
X82488045Y-80422359D01*
X82375148Y-80364835D01*
X82281481Y-80350000D01*
X82218519Y-80350000D01*
X82124852Y-80364835D01*
X82011955Y-80422359D01*
X82000000Y-80434314D01*
X82000000Y-79471127D01*
X81803671Y-79523734D01*
X81597517Y-79619865D01*
X81411179Y-79750342D01*
X81250342Y-79911179D01*
X81119865Y-80097517D01*
X81023734Y-80303673D01*
X81023730Y-80303682D01*
X80971127Y-80499999D01*
X80971128Y-80500000D01*
X81934314Y-80500000D01*
X81922359Y-80511955D01*
X81864835Y-80624852D01*
X81845014Y-80750000D01*
X81864835Y-80875148D01*
X81922359Y-80988045D01*
X81934314Y-81000000D01*
X80971128Y-81000000D01*
X81023730Y-81196317D01*
X81023734Y-81196326D01*
X81119865Y-81402482D01*
X81250342Y-81588820D01*
X81299341Y-81637819D01*
X81332826Y-81699142D01*
X81327842Y-81768834D01*
X81285970Y-81824767D01*
X81220506Y-81849184D01*
X81211660Y-81849500D01*
X70589049Y-81849500D01*
X70522010Y-81829815D01*
X70476255Y-81777011D01*
X70466311Y-81707853D01*
X70495336Y-81644297D01*
X70501368Y-81637819D01*
X70550045Y-81589141D01*
X70550045Y-81589140D01*
X70550047Y-81589139D01*
X70680568Y-81402734D01*
X70776739Y-81196496D01*
X70835635Y-80976692D01*
X70854549Y-80760500D01*
X70855468Y-80750001D01*
X70855468Y-80749998D01*
X70845795Y-80639437D01*
X70835635Y-80523308D01*
X70776739Y-80303504D01*
X70680568Y-80097266D01*
X70550047Y-79910861D01*
X70389139Y-79749953D01*
X70384373Y-79746615D01*
X70353375Y-79724910D01*
X70309751Y-79670332D01*
X70300500Y-79623336D01*
X70300500Y-77025705D01*
X70301809Y-77007735D01*
X70305289Y-76983974D01*
X70300736Y-76931939D01*
X70300500Y-76926532D01*
X70300500Y-76212228D01*
X70320185Y-76145189D01*
X70336814Y-76124552D01*
X75225638Y-71235727D01*
X75239267Y-71223950D01*
X75258530Y-71209610D01*
X75258532Y-71209606D01*
X75258534Y-71209606D01*
X75276663Y-71187999D01*
X75292113Y-71169585D01*
X75295767Y-71165599D01*
X75301589Y-71159778D01*
X75321928Y-71134054D01*
X75332122Y-71121905D01*
X75371302Y-71075214D01*
X75371304Y-71075209D01*
X75375272Y-71069179D01*
X75375323Y-71069212D01*
X75379369Y-71062860D01*
X75379317Y-71062828D01*
X75383109Y-71056679D01*
X75383111Y-71056677D01*
X75415569Y-70987069D01*
X75450040Y-70918433D01*
X75450043Y-70918417D01*
X75452510Y-70911644D01*
X75452568Y-70911665D01*
X75455043Y-70904546D01*
X75454985Y-70904527D01*
X75457256Y-70897672D01*
X75461579Y-70876738D01*
X75472784Y-70822467D01*
X75489737Y-70750938D01*
X75524351Y-70690248D01*
X75539273Y-70677961D01*
X75579140Y-70650046D01*
X75740045Y-70489141D01*
X75740047Y-70489139D01*
X75870568Y-70302734D01*
X75966739Y-70096496D01*
X76025635Y-69876692D01*
X76040500Y-69706784D01*
X76040500Y-68693216D01*
X76025635Y-68523308D01*
X75970427Y-68317267D01*
X75966741Y-68303511D01*
X75966738Y-68303502D01*
X75870568Y-68097266D01*
X75740047Y-67910861D01*
X75740045Y-67910858D01*
X75579141Y-67749954D01*
X75392734Y-67619432D01*
X75392732Y-67619431D01*
X75186497Y-67523261D01*
X75186488Y-67523258D01*
X74966697Y-67464366D01*
X74966693Y-67464365D01*
X74966692Y-67464365D01*
X74966691Y-67464364D01*
X74966686Y-67464364D01*
X74740002Y-67444532D01*
X74739998Y-67444532D01*
X74513313Y-67464364D01*
X74513302Y-67464366D01*
X74293511Y-67523258D01*
X74293502Y-67523261D01*
X74087267Y-67619431D01*
X74087265Y-67619432D01*
X73900858Y-67749954D01*
X73739954Y-67910858D01*
X73611982Y-68093624D01*
X73609432Y-68097266D01*
X73609315Y-68097518D01*
X73582106Y-68155867D01*
X73535933Y-68208306D01*
X73468739Y-68227457D01*
X73401858Y-68207241D01*
X73357342Y-68155865D01*
X73330135Y-68097520D01*
X73330134Y-68097518D01*
X73199657Y-67911179D01*
X73038820Y-67750342D01*
X72852482Y-67619865D01*
X72646328Y-67523734D01*
X72450000Y-67471127D01*
X72450000Y-68831862D01*
X72395259Y-68794541D01*
X72267073Y-68755000D01*
X72166654Y-68755000D01*
X72067353Y-68769967D01*
X71950000Y-68826481D01*
X71950000Y-67471127D01*
X71753671Y-67523734D01*
X71547517Y-67619865D01*
X71361179Y-67750342D01*
X71200342Y-67911179D01*
X71069865Y-68097517D01*
X70973734Y-68303673D01*
X70973730Y-68303682D01*
X70914860Y-68523389D01*
X70914858Y-68523400D01*
X70900000Y-68693237D01*
X70900000Y-68950000D01*
X71830497Y-68950000D01*
X71781083Y-69035587D01*
X71751232Y-69166370D01*
X71761257Y-69300140D01*
X71810266Y-69425013D01*
X71830193Y-69450000D01*
X70900000Y-69450000D01*
X70900000Y-69706763D01*
X70914858Y-69876599D01*
X70914860Y-69876610D01*
X70973730Y-70096317D01*
X70973734Y-70096326D01*
X71069865Y-70302482D01*
X71200342Y-70488820D01*
X71361179Y-70649657D01*
X71547517Y-70780134D01*
X71753673Y-70876265D01*
X71753682Y-70876269D01*
X71949999Y-70928872D01*
X71950000Y-70928871D01*
X71950000Y-69568137D01*
X72004741Y-69605459D01*
X72132927Y-69645000D01*
X72233346Y-69645000D01*
X72332647Y-69630033D01*
X72450000Y-69573518D01*
X72450000Y-70928872D01*
X72646317Y-70876269D01*
X72646326Y-70876265D01*
X72852482Y-70780134D01*
X73038820Y-70649657D01*
X73199657Y-70488820D01*
X73330132Y-70302484D01*
X73357341Y-70244134D01*
X73403513Y-70191695D01*
X73470707Y-70172542D01*
X73537588Y-70192757D01*
X73582106Y-70244133D01*
X73609431Y-70302732D01*
X73609432Y-70302734D01*
X73725386Y-70468335D01*
X73747713Y-70534541D01*
X73730703Y-70602309D01*
X73711492Y-70627139D01*
X69081680Y-75256950D01*
X69020357Y-75290435D01*
X68950665Y-75285451D01*
X68906318Y-75256950D01*
X59594604Y-65945236D01*
X67410000Y-65945236D01*
X67425084Y-66170564D01*
X67425086Y-66170573D01*
X67485083Y-66465758D01*
X67485087Y-66465773D01*
X67583901Y-66750343D01*
X67583903Y-66750346D01*
X67719759Y-67019198D01*
X67890254Y-67267564D01*
X68092314Y-67490971D01*
X68322361Y-67685464D01*
X68576271Y-67847554D01*
X68576273Y-67847555D01*
X68849514Y-67974351D01*
X68849528Y-67974356D01*
X69137234Y-68063605D01*
X69410000Y-68109614D01*
X69410000Y-65094625D01*
X69557801Y-65125000D01*
X69710967Y-65125000D01*
X69863348Y-65109504D01*
X69910000Y-65094867D01*
X69910000Y-68106207D01*
X70035076Y-68093624D01*
X70035079Y-68093623D01*
X70328107Y-68023791D01*
X70328116Y-68023789D01*
X70609216Y-67915525D01*
X70609231Y-67915518D01*
X70873395Y-67770751D01*
X70873401Y-67770747D01*
X71115911Y-67592064D01*
X71332451Y-67382644D01*
X71332457Y-67382637D01*
X71519145Y-67146231D01*
X71672657Y-66887051D01*
X71672666Y-66887033D01*
X71790260Y-66609716D01*
X71790265Y-66609699D01*
X71869848Y-66319173D01*
X71910000Y-66020616D01*
X71910000Y-65945236D01*
X77570000Y-65945236D01*
X77585084Y-66170564D01*
X77585086Y-66170573D01*
X77645083Y-66465758D01*
X77645087Y-66465773D01*
X77743901Y-66750343D01*
X77743903Y-66750346D01*
X77879759Y-67019198D01*
X78050254Y-67267564D01*
X78252314Y-67490971D01*
X78482361Y-67685464D01*
X78736271Y-67847554D01*
X78736273Y-67847555D01*
X79009514Y-67974351D01*
X79009528Y-67974356D01*
X79297234Y-68063605D01*
X79570000Y-68109614D01*
X79570000Y-65094625D01*
X79717801Y-65125000D01*
X79870967Y-65125000D01*
X80023348Y-65109504D01*
X80070000Y-65094867D01*
X80070000Y-68106207D01*
X80195076Y-68093624D01*
X80195079Y-68093623D01*
X80488107Y-68023791D01*
X80488116Y-68023789D01*
X80769216Y-67915525D01*
X80769231Y-67915518D01*
X81033395Y-67770751D01*
X81033401Y-67770747D01*
X81275911Y-67592064D01*
X81492451Y-67382644D01*
X81492457Y-67382637D01*
X81679145Y-67146231D01*
X81832657Y-66887051D01*
X81832666Y-66887033D01*
X81950260Y-66609716D01*
X81950265Y-66609699D01*
X82029848Y-66319173D01*
X82070000Y-66020616D01*
X82070000Y-65945236D01*
X84410000Y-65945236D01*
X84425084Y-66170564D01*
X84425086Y-66170573D01*
X84485083Y-66465758D01*
X84485087Y-66465773D01*
X84583901Y-66750343D01*
X84583903Y-66750346D01*
X84719759Y-67019198D01*
X84890254Y-67267564D01*
X85092314Y-67490971D01*
X85322361Y-67685464D01*
X85576271Y-67847554D01*
X85576273Y-67847555D01*
X85849514Y-67974351D01*
X85849528Y-67974356D01*
X86137234Y-68063605D01*
X86410000Y-68109614D01*
X86410000Y-65094625D01*
X86557801Y-65125000D01*
X86710967Y-65125000D01*
X86863348Y-65109504D01*
X86910000Y-65094867D01*
X86910000Y-68106207D01*
X87035076Y-68093624D01*
X87035079Y-68093623D01*
X87328107Y-68023791D01*
X87328116Y-68023789D01*
X87609216Y-67915525D01*
X87609231Y-67915518D01*
X87873395Y-67770751D01*
X87873401Y-67770747D01*
X88115911Y-67592064D01*
X88332451Y-67382644D01*
X88332457Y-67382637D01*
X88519145Y-67146231D01*
X88672657Y-66887051D01*
X88672666Y-66887033D01*
X88790260Y-66609716D01*
X88790265Y-66609699D01*
X88869848Y-66319173D01*
X88910000Y-66020616D01*
X88910000Y-65945236D01*
X94570000Y-65945236D01*
X94585084Y-66170564D01*
X94585086Y-66170573D01*
X94645083Y-66465758D01*
X94645087Y-66465773D01*
X94743901Y-66750343D01*
X94743903Y-66750346D01*
X94879759Y-67019198D01*
X95050254Y-67267564D01*
X95252314Y-67490971D01*
X95482361Y-67685464D01*
X95736271Y-67847554D01*
X95736273Y-67847555D01*
X96009514Y-67974351D01*
X96009528Y-67974356D01*
X96297234Y-68063605D01*
X96570000Y-68109614D01*
X96570000Y-65094625D01*
X96717801Y-65125000D01*
X96870967Y-65125000D01*
X97023348Y-65109504D01*
X97070000Y-65094867D01*
X97070000Y-68106207D01*
X97195076Y-68093624D01*
X97195079Y-68093623D01*
X97488107Y-68023791D01*
X97488116Y-68023789D01*
X97769216Y-67915525D01*
X97769231Y-67915518D01*
X98033395Y-67770751D01*
X98033401Y-67770747D01*
X98275911Y-67592064D01*
X98492451Y-67382644D01*
X98492457Y-67382637D01*
X98679145Y-67146231D01*
X98832657Y-66887051D01*
X98832666Y-66887033D01*
X98950260Y-66609716D01*
X98950265Y-66609699D01*
X99029848Y-66319173D01*
X99070000Y-66020616D01*
X99070000Y-64370000D01*
X97793411Y-64370000D01*
X97818534Y-64272970D01*
X97828886Y-64068835D01*
X97798426Y-63870000D01*
X99070000Y-63870000D01*
X99070000Y-62294764D01*
X99054915Y-62069435D01*
X99054913Y-62069426D01*
X98994916Y-61774241D01*
X98994912Y-61774226D01*
X98896098Y-61489656D01*
X98896096Y-61489653D01*
X98760240Y-61220801D01*
X98627726Y-61027763D01*
X104825787Y-61027763D01*
X104855413Y-61297013D01*
X104855415Y-61297024D01*
X104908493Y-61500050D01*
X104923928Y-61559088D01*
X105029870Y-61808390D01*
X105161722Y-62024437D01*
X105170979Y-62039605D01*
X105170986Y-62039615D01*
X105344253Y-62247819D01*
X105344259Y-62247824D01*
X105437629Y-62331483D01*
X105545998Y-62428582D01*
X105771910Y-62578044D01*
X106017176Y-62693020D01*
X106017183Y-62693022D01*
X106017185Y-62693023D01*
X106276557Y-62771057D01*
X106276564Y-62771058D01*
X106276569Y-62771060D01*
X106544561Y-62810500D01*
X106544566Y-62810500D01*
X106747636Y-62810500D01*
X106799133Y-62806730D01*
X106950156Y-62795677D01*
X107062758Y-62770593D01*
X107214546Y-62736782D01*
X107214548Y-62736781D01*
X107214553Y-62736780D01*
X107467558Y-62640014D01*
X107703777Y-62507441D01*
X107918177Y-62341888D01*
X108106186Y-62146881D01*
X108263799Y-61926579D01*
X108366544Y-61726739D01*
X108387649Y-61685690D01*
X108387651Y-61685684D01*
X108387656Y-61685675D01*
X108475118Y-61429305D01*
X108524319Y-61162933D01*
X108534212Y-60892235D01*
X108504586Y-60622982D01*
X108436072Y-60360912D01*
X108330130Y-60111610D01*
X108189018Y-59880390D01*
X108139478Y-59820861D01*
X108015746Y-59672180D01*
X108015740Y-59672175D01*
X107814002Y-59491418D01*
X107588092Y-59341957D01*
X107588090Y-59341956D01*
X107342824Y-59226980D01*
X107342819Y-59226978D01*
X107342814Y-59226976D01*
X107083442Y-59148942D01*
X107083428Y-59148939D01*
X106967791Y-59131921D01*
X106815439Y-59109500D01*
X106612369Y-59109500D01*
X106612364Y-59109500D01*
X106409844Y-59124323D01*
X106409831Y-59124325D01*
X106145453Y-59183217D01*
X106145446Y-59183220D01*
X105892439Y-59279987D01*
X105656226Y-59412557D01*
X105441822Y-59578112D01*
X105253822Y-59773109D01*
X105253816Y-59773116D01*
X105096202Y-59993419D01*
X105096199Y-59993424D01*
X104972350Y-60234309D01*
X104972343Y-60234327D01*
X104884884Y-60490685D01*
X104884881Y-60490699D01*
X104835681Y-60757068D01*
X104835680Y-60757075D01*
X104825787Y-61027763D01*
X98627726Y-61027763D01*
X98589745Y-60972435D01*
X98387685Y-60749028D01*
X98157638Y-60554535D01*
X97903728Y-60392445D01*
X97903726Y-60392444D01*
X97630485Y-60265648D01*
X97630471Y-60265643D01*
X97342765Y-60176394D01*
X97070000Y-60130384D01*
X97070000Y-63145374D01*
X96922199Y-63115000D01*
X96769033Y-63115000D01*
X96616652Y-63130496D01*
X96570000Y-63145132D01*
X96570000Y-60133792D01*
X96444922Y-60146375D01*
X96444920Y-60146376D01*
X96151892Y-60216208D01*
X96151883Y-60216210D01*
X95870783Y-60324474D01*
X95870768Y-60324481D01*
X95606604Y-60469248D01*
X95606598Y-60469252D01*
X95364088Y-60647935D01*
X95147548Y-60857355D01*
X95147542Y-60857362D01*
X94960854Y-61093768D01*
X94807342Y-61352948D01*
X94807333Y-61352966D01*
X94689739Y-61630283D01*
X94689734Y-61630300D01*
X94610151Y-61920826D01*
X94570000Y-62219383D01*
X94570000Y-63870000D01*
X95846589Y-63870000D01*
X95821466Y-63967030D01*
X95811114Y-64171165D01*
X95841574Y-64370000D01*
X94570000Y-64370000D01*
X94570000Y-65945236D01*
X88910000Y-65945236D01*
X88910000Y-64370000D01*
X87633411Y-64370000D01*
X87658534Y-64272970D01*
X87668886Y-64068835D01*
X87638426Y-63870000D01*
X88910000Y-63870000D01*
X88910000Y-62294764D01*
X88894915Y-62069435D01*
X88894913Y-62069426D01*
X88834916Y-61774241D01*
X88834912Y-61774226D01*
X88736098Y-61489656D01*
X88736096Y-61489653D01*
X88600240Y-61220801D01*
X88429745Y-60972435D01*
X88227685Y-60749028D01*
X87997638Y-60554535D01*
X87743728Y-60392445D01*
X87743726Y-60392444D01*
X87470485Y-60265648D01*
X87470471Y-60265643D01*
X87182765Y-60176394D01*
X86910000Y-60130384D01*
X86910000Y-63145374D01*
X86762199Y-63115000D01*
X86609033Y-63115000D01*
X86456652Y-63130496D01*
X86410000Y-63145132D01*
X86410000Y-60133792D01*
X86284922Y-60146375D01*
X86284920Y-60146376D01*
X85991892Y-60216208D01*
X85991883Y-60216210D01*
X85710783Y-60324474D01*
X85710768Y-60324481D01*
X85446604Y-60469248D01*
X85446598Y-60469252D01*
X85204088Y-60647935D01*
X84987548Y-60857355D01*
X84987542Y-60857362D01*
X84800854Y-61093768D01*
X84647342Y-61352948D01*
X84647333Y-61352966D01*
X84529739Y-61630283D01*
X84529734Y-61630300D01*
X84450151Y-61920826D01*
X84410000Y-62219383D01*
X84410000Y-63870000D01*
X85686589Y-63870000D01*
X85661466Y-63967030D01*
X85651114Y-64171165D01*
X85681574Y-64370000D01*
X84410000Y-64370000D01*
X84410000Y-65945236D01*
X82070000Y-65945236D01*
X82070000Y-64370000D01*
X80793411Y-64370000D01*
X80818534Y-64272970D01*
X80828886Y-64068835D01*
X80798426Y-63870000D01*
X82070000Y-63870000D01*
X82070000Y-62294764D01*
X82054915Y-62069435D01*
X82054913Y-62069426D01*
X81994916Y-61774241D01*
X81994912Y-61774226D01*
X81896098Y-61489656D01*
X81896096Y-61489653D01*
X81760240Y-61220801D01*
X81589745Y-60972435D01*
X81387685Y-60749028D01*
X81157638Y-60554535D01*
X80903728Y-60392445D01*
X80903726Y-60392444D01*
X80630485Y-60265648D01*
X80630471Y-60265643D01*
X80342765Y-60176394D01*
X80070000Y-60130384D01*
X80070000Y-63145374D01*
X79922199Y-63115000D01*
X79769033Y-63115000D01*
X79616652Y-63130496D01*
X79570000Y-63145132D01*
X79570000Y-60133792D01*
X79444922Y-60146375D01*
X79444920Y-60146376D01*
X79151892Y-60216208D01*
X79151883Y-60216210D01*
X78870783Y-60324474D01*
X78870768Y-60324481D01*
X78606604Y-60469248D01*
X78606598Y-60469252D01*
X78364088Y-60647935D01*
X78147548Y-60857355D01*
X78147542Y-60857362D01*
X77960854Y-61093768D01*
X77807342Y-61352948D01*
X77807333Y-61352966D01*
X77689739Y-61630283D01*
X77689734Y-61630300D01*
X77610151Y-61920826D01*
X77570000Y-62219383D01*
X77570000Y-63870000D01*
X78846589Y-63870000D01*
X78821466Y-63967030D01*
X78811114Y-64171165D01*
X78841574Y-64370000D01*
X77570000Y-64370000D01*
X77570000Y-65945236D01*
X71910000Y-65945236D01*
X71910000Y-64370000D01*
X70633411Y-64370000D01*
X70658534Y-64272970D01*
X70668886Y-64068835D01*
X70638426Y-63870000D01*
X71910000Y-63870000D01*
X71910000Y-62294764D01*
X71894915Y-62069435D01*
X71894913Y-62069426D01*
X71834916Y-61774241D01*
X71834912Y-61774226D01*
X71736098Y-61489656D01*
X71736096Y-61489653D01*
X71600240Y-61220801D01*
X71429745Y-60972435D01*
X71227685Y-60749028D01*
X70997638Y-60554535D01*
X70743728Y-60392445D01*
X70743726Y-60392444D01*
X70470485Y-60265648D01*
X70470471Y-60265643D01*
X70182765Y-60176394D01*
X69910000Y-60130384D01*
X69910000Y-63145374D01*
X69762199Y-63115000D01*
X69609033Y-63115000D01*
X69456652Y-63130496D01*
X69410000Y-63145132D01*
X69410000Y-60133792D01*
X69284922Y-60146375D01*
X69284920Y-60146376D01*
X68991892Y-60216208D01*
X68991883Y-60216210D01*
X68710783Y-60324474D01*
X68710768Y-60324481D01*
X68446604Y-60469248D01*
X68446598Y-60469252D01*
X68204088Y-60647935D01*
X67987548Y-60857355D01*
X67987542Y-60857362D01*
X67800854Y-61093768D01*
X67647342Y-61352948D01*
X67647333Y-61352966D01*
X67529739Y-61630283D01*
X67529734Y-61630300D01*
X67450151Y-61920826D01*
X67410000Y-62219383D01*
X67410000Y-63870000D01*
X68686589Y-63870000D01*
X68661466Y-63967030D01*
X68651114Y-64171165D01*
X68681574Y-64370000D01*
X67410000Y-64370000D01*
X67410000Y-65945236D01*
X59594604Y-65945236D01*
X57818729Y-64169361D01*
X57806949Y-64155730D01*
X57799482Y-64145701D01*
X57792612Y-64136472D01*
X57792610Y-64136470D01*
X57752587Y-64102886D01*
X57748612Y-64099244D01*
X57745690Y-64096322D01*
X57742780Y-64093411D01*
X57717040Y-64073059D01*
X57658209Y-64023694D01*
X57652180Y-64019729D01*
X57652212Y-64019680D01*
X57645853Y-64015628D01*
X57645822Y-64015679D01*
X57639680Y-64011891D01*
X57639678Y-64011890D01*
X57639677Y-64011889D01*
X57600474Y-63993608D01*
X57570058Y-63979424D01*
X57535894Y-63962267D01*
X57501433Y-63944960D01*
X57501431Y-63944959D01*
X57501430Y-63944959D01*
X57494645Y-63942489D01*
X57494665Y-63942433D01*
X57487549Y-63939959D01*
X57487531Y-63940015D01*
X57480671Y-63937742D01*
X57452841Y-63931996D01*
X57405434Y-63922207D01*
X57356472Y-63910603D01*
X57330719Y-63904499D01*
X57323547Y-63903661D01*
X57323553Y-63903601D01*
X57316055Y-63902835D01*
X57316050Y-63902895D01*
X57308860Y-63902265D01*
X57232083Y-63904500D01*
X55376994Y-63904500D01*
X55309955Y-63884815D01*
X55275419Y-63851623D01*
X55250376Y-63815858D01*
X55089472Y-63654954D01*
X54903065Y-63524432D01*
X54903063Y-63524431D01*
X54696828Y-63428261D01*
X54696819Y-63428258D01*
X54574297Y-63395429D01*
X54553193Y-63389774D01*
X54493533Y-63353410D01*
X54463004Y-63290563D01*
X54471299Y-63221188D01*
X54515784Y-63167310D01*
X54553193Y-63150225D01*
X54696827Y-63111739D01*
X54903065Y-63015568D01*
X55089470Y-62885047D01*
X55250378Y-62724139D01*
X55380899Y-62537734D01*
X55477070Y-62331496D01*
X55477071Y-62331488D01*
X55477074Y-62331483D01*
X55511431Y-62203258D01*
X55535966Y-62111692D01*
X55555799Y-61885000D01*
X55551528Y-61836188D01*
X55546109Y-61774241D01*
X55535966Y-61658308D01*
X55477070Y-61438504D01*
X55380899Y-61232266D01*
X55250378Y-61045861D01*
X55250376Y-61045858D01*
X55232281Y-61027763D01*
X59105787Y-61027763D01*
X59135413Y-61297013D01*
X59135415Y-61297024D01*
X59188493Y-61500050D01*
X59203928Y-61559088D01*
X59309870Y-61808390D01*
X59441722Y-62024437D01*
X59450979Y-62039605D01*
X59450986Y-62039615D01*
X59624253Y-62247819D01*
X59624259Y-62247824D01*
X59717629Y-62331483D01*
X59825998Y-62428582D01*
X60051910Y-62578044D01*
X60297176Y-62693020D01*
X60297183Y-62693022D01*
X60297185Y-62693023D01*
X60556557Y-62771057D01*
X60556564Y-62771058D01*
X60556569Y-62771060D01*
X60824561Y-62810500D01*
X60824566Y-62810500D01*
X61027636Y-62810500D01*
X61079133Y-62806730D01*
X61230156Y-62795677D01*
X61342758Y-62770593D01*
X61494546Y-62736782D01*
X61494548Y-62736781D01*
X61494553Y-62736780D01*
X61747558Y-62640014D01*
X61983777Y-62507441D01*
X62198177Y-62341888D01*
X62386186Y-62146881D01*
X62543799Y-61926579D01*
X62646544Y-61726739D01*
X62667649Y-61685690D01*
X62667651Y-61685684D01*
X62667656Y-61685675D01*
X62755118Y-61429305D01*
X62804319Y-61162933D01*
X62814212Y-60892235D01*
X62784586Y-60622982D01*
X62716072Y-60360912D01*
X62610130Y-60111610D01*
X62469018Y-59880390D01*
X62419478Y-59820861D01*
X62295746Y-59672180D01*
X62295740Y-59672175D01*
X62094002Y-59491418D01*
X61868092Y-59341957D01*
X61868090Y-59341956D01*
X61622824Y-59226980D01*
X61622819Y-59226978D01*
X61622814Y-59226976D01*
X61363442Y-59148942D01*
X61363428Y-59148939D01*
X61247791Y-59131921D01*
X61095439Y-59109500D01*
X60892369Y-59109500D01*
X60892364Y-59109500D01*
X60689844Y-59124323D01*
X60689831Y-59124325D01*
X60425453Y-59183217D01*
X60425446Y-59183220D01*
X60172439Y-59279987D01*
X59936226Y-59412557D01*
X59721822Y-59578112D01*
X59533822Y-59773109D01*
X59533816Y-59773116D01*
X59376202Y-59993419D01*
X59376199Y-59993424D01*
X59252350Y-60234309D01*
X59252343Y-60234327D01*
X59164884Y-60490685D01*
X59164881Y-60490699D01*
X59115681Y-60757068D01*
X59115680Y-60757075D01*
X59105787Y-61027763D01*
X55232281Y-61027763D01*
X55089472Y-60884954D01*
X54903065Y-60754432D01*
X54903063Y-60754431D01*
X54696828Y-60658261D01*
X54691733Y-60656407D01*
X54692490Y-60654325D01*
X54640948Y-60622908D01*
X54610419Y-60560061D01*
X54618714Y-60490686D01*
X54663200Y-60436808D01*
X54729752Y-60415534D01*
X54732702Y-60415499D01*
X55098202Y-60415499D01*
X55098203Y-60415499D01*
X55157814Y-60409091D01*
X55292662Y-60358796D01*
X55407877Y-60272546D01*
X55494127Y-60157331D01*
X55544422Y-60022483D01*
X55550831Y-59962873D01*
X55550830Y-58267128D01*
X55544422Y-58207517D01*
X55494127Y-58072669D01*
X55494126Y-58072668D01*
X55494124Y-58072664D01*
X55407878Y-57957455D01*
X55407875Y-57957452D01*
X55292666Y-57871206D01*
X55292659Y-57871202D01*
X55157813Y-57820908D01*
X55157814Y-57820908D01*
X55098214Y-57814501D01*
X55098212Y-57814500D01*
X55098204Y-57814500D01*
X55098196Y-57814500D01*
X55048416Y-57814500D01*
X54981377Y-57794815D01*
X54939464Y-57746829D01*
X54938942Y-57747152D01*
X54937007Y-57744015D01*
X54936030Y-57742897D01*
X54935147Y-57741003D01*
X54935145Y-57740997D01*
X54935141Y-57740991D01*
X54932089Y-57734444D01*
X54932144Y-57734418D01*
X54928864Y-57727644D01*
X54928811Y-57727671D01*
X54925566Y-57721211D01*
X54883359Y-57657039D01*
X54843041Y-57591673D01*
X54838565Y-57586013D01*
X54838612Y-57585975D01*
X54833850Y-57580130D01*
X54833805Y-57580169D01*
X54829165Y-57574640D01*
X54829163Y-57574638D01*
X54829161Y-57574635D01*
X54798392Y-57545606D01*
X54773296Y-57521928D01*
X53661729Y-56410361D01*
X53649949Y-56396730D01*
X53642482Y-56386701D01*
X53635612Y-56377472D01*
X53635610Y-56377470D01*
X53595587Y-56343886D01*
X53591612Y-56340244D01*
X53588690Y-56337322D01*
X53585780Y-56334411D01*
X53560040Y-56314059D01*
X53501209Y-56264694D01*
X53495180Y-56260729D01*
X53495212Y-56260680D01*
X53488853Y-56256628D01*
X53488822Y-56256679D01*
X53482680Y-56252891D01*
X53482678Y-56252890D01*
X53482677Y-56252889D01*
X53443474Y-56234608D01*
X53413058Y-56220424D01*
X53378894Y-56203267D01*
X53344433Y-56185960D01*
X53344431Y-56185959D01*
X53344430Y-56185959D01*
X53337645Y-56183489D01*
X53337665Y-56183433D01*
X53330549Y-56180959D01*
X53330531Y-56181015D01*
X53323671Y-56178742D01*
X53295841Y-56172996D01*
X53248434Y-56163207D01*
X53199472Y-56151603D01*
X53173719Y-56145499D01*
X53166547Y-56144661D01*
X53166553Y-56144601D01*
X53159046Y-56143834D01*
X53159041Y-56143894D01*
X53151854Y-56143264D01*
X53075083Y-56145500D01*
X50863705Y-56145500D01*
X50845735Y-56144191D01*
X50821972Y-56140710D01*
X50776890Y-56144655D01*
X50769933Y-56145264D01*
X50764532Y-56145500D01*
X50756288Y-56145500D01*
X50723707Y-56149308D01*
X50647199Y-56156001D01*
X50640133Y-56157461D01*
X50640121Y-56157404D01*
X50632754Y-56159038D01*
X50632768Y-56159094D01*
X50625751Y-56160756D01*
X50553573Y-56187026D01*
X50480662Y-56211187D01*
X50474119Y-56214238D01*
X50474094Y-56214186D01*
X50467314Y-56217468D01*
X50467340Y-56217520D01*
X50460881Y-56220764D01*
X50396709Y-56262970D01*
X50331345Y-56303288D01*
X50325677Y-56307770D01*
X50325641Y-56307724D01*
X50319798Y-56312484D01*
X50319835Y-56312528D01*
X50314310Y-56317164D01*
X50261597Y-56373035D01*
X46758358Y-59876272D01*
X46744729Y-59888051D01*
X46725468Y-59902390D01*
X46691898Y-59942397D01*
X46688253Y-59946376D01*
X46682409Y-59952222D01*
X46662059Y-59977959D01*
X46612695Y-60036789D01*
X46608729Y-60042819D01*
X46608682Y-60042788D01*
X46604630Y-60049147D01*
X46604679Y-60049177D01*
X46600889Y-60055321D01*
X46568424Y-60124941D01*
X46533960Y-60193566D01*
X46531488Y-60200357D01*
X46531432Y-60200336D01*
X46528960Y-60207450D01*
X46529015Y-60207469D01*
X46526742Y-60214327D01*
X46522613Y-60234327D01*
X46511207Y-60289565D01*
X46504627Y-60317331D01*
X46493498Y-60364286D01*
X46492661Y-60371454D01*
X46492601Y-60371447D01*
X46491835Y-60378945D01*
X46491895Y-60378951D01*
X46491265Y-60386140D01*
X46493500Y-60462916D01*
X46493500Y-108140294D01*
X46492191Y-108158263D01*
X46488710Y-108182025D01*
X46492577Y-108226215D01*
X46492684Y-108227442D01*
X46493264Y-108234064D01*
X46493500Y-108239470D01*
X46493500Y-108247709D01*
X46497306Y-108280274D01*
X46504000Y-108356791D01*
X46505461Y-108363867D01*
X46505403Y-108363878D01*
X46507034Y-108371237D01*
X46507092Y-108371224D01*
X46508757Y-108378250D01*
X46535025Y-108450424D01*
X46559185Y-108523331D01*
X46562236Y-108529874D01*
X46562182Y-108529898D01*
X46565470Y-108536688D01*
X46565521Y-108536663D01*
X46568761Y-108543113D01*
X46568762Y-108543114D01*
X46568763Y-108543117D01*
X46610965Y-108607282D01*
X46610965Y-108607283D01*
X46651287Y-108672655D01*
X46655766Y-108678319D01*
X46655719Y-108678356D01*
X46660482Y-108684202D01*
X46660528Y-108684164D01*
X46665173Y-108689700D01*
X46697434Y-108720136D01*
X46721018Y-108742386D01*
X48419100Y-110440468D01*
X49546087Y-111567454D01*
X49579572Y-111628777D01*
X49574588Y-111698469D01*
X49532716Y-111754402D01*
X49467252Y-111778819D01*
X49458028Y-111779134D01*
X43304122Y-111760377D01*
X43237143Y-111740489D01*
X43191549Y-111687545D01*
X43180500Y-111636378D01*
X43180500Y-56004189D01*
X43200185Y-55937150D01*
X43252989Y-55891395D01*
X43304684Y-55880190D01*
X53152584Y-55895198D01*
G37*
%TD.AperFunction*%
%TA.AperFunction,Conductor*%
G36*
X53116767Y-88523132D02*
G01*
X53155637Y-88549440D01*
X53218984Y-88612787D01*
X53252469Y-88674110D01*
X53247485Y-88743802D01*
X53232878Y-88771591D01*
X53120199Y-88932512D01*
X53120197Y-88932516D01*
X53024065Y-89138673D01*
X53024061Y-89138682D01*
X52965191Y-89358389D01*
X52965189Y-89358400D01*
X52945365Y-89584997D01*
X52945365Y-89585002D01*
X52965189Y-89811599D01*
X52965191Y-89811610D01*
X53024061Y-90031317D01*
X53024065Y-90031326D01*
X53120196Y-90237481D01*
X53120197Y-90237483D01*
X53171304Y-90310471D01*
X53171304Y-90310472D01*
X53767253Y-89714522D01*
X53790838Y-89794844D01*
X53868570Y-89915798D01*
X53977231Y-90009952D01*
X54108016Y-90069680D01*
X54117797Y-90071086D01*
X53524857Y-90664025D01*
X53524857Y-90664026D01*
X53597843Y-90715131D01*
X53597847Y-90715133D01*
X53804004Y-90811265D01*
X53804010Y-90811268D01*
X53949399Y-90850225D01*
X54009059Y-90886590D01*
X54039588Y-90949437D01*
X54031293Y-91018813D01*
X53986808Y-91072690D01*
X53949399Y-91089775D01*
X53804010Y-91128731D01*
X53804004Y-91128734D01*
X53597844Y-91224868D01*
X53524858Y-91275972D01*
X53524857Y-91275973D01*
X54117798Y-91868913D01*
X54108016Y-91870320D01*
X53977231Y-91930048D01*
X53868570Y-92024202D01*
X53790838Y-92145156D01*
X53767254Y-92225476D01*
X53171304Y-91629526D01*
X53171303Y-91629527D01*
X53120199Y-91702513D01*
X53024065Y-91908673D01*
X53024061Y-91908682D01*
X52965191Y-92128389D01*
X52965189Y-92128400D01*
X52945365Y-92354997D01*
X52945365Y-92355002D01*
X52965189Y-92581599D01*
X52965191Y-92581610D01*
X53024061Y-92801317D01*
X53024065Y-92801326D01*
X53120196Y-93007481D01*
X53120197Y-93007483D01*
X53171304Y-93080471D01*
X53171305Y-93080472D01*
X53767253Y-92484523D01*
X53790838Y-92564844D01*
X53868570Y-92685798D01*
X53977231Y-92779952D01*
X54108016Y-92839680D01*
X54117797Y-92841086D01*
X53524857Y-93434025D01*
X53524857Y-93434026D01*
X53597843Y-93485131D01*
X53597847Y-93485133D01*
X53804004Y-93581265D01*
X53804010Y-93581268D01*
X53949399Y-93620225D01*
X54009059Y-93656590D01*
X54039588Y-93719437D01*
X54031293Y-93788813D01*
X53986808Y-93842690D01*
X53949399Y-93859775D01*
X53804010Y-93898731D01*
X53804004Y-93898734D01*
X53597844Y-93994868D01*
X53524858Y-94045972D01*
X53524857Y-94045973D01*
X54117798Y-94638913D01*
X54108016Y-94640320D01*
X53977231Y-94700048D01*
X53868570Y-94794202D01*
X53790838Y-94915156D01*
X53767254Y-94995476D01*
X53171304Y-94399526D01*
X53171303Y-94399527D01*
X53120199Y-94472513D01*
X53024065Y-94678673D01*
X53024061Y-94678682D01*
X52965191Y-94898389D01*
X52965189Y-94898400D01*
X52945365Y-95124997D01*
X52945365Y-95125002D01*
X52965189Y-95351599D01*
X52965191Y-95351610D01*
X53024061Y-95571317D01*
X53024065Y-95571326D01*
X53120196Y-95777481D01*
X53120197Y-95777483D01*
X53171304Y-95850471D01*
X53171305Y-95850472D01*
X53767253Y-95254523D01*
X53790838Y-95334844D01*
X53868570Y-95455798D01*
X53977231Y-95549952D01*
X54108016Y-95609680D01*
X54117797Y-95611086D01*
X53524857Y-96204025D01*
X53524857Y-96204026D01*
X53597843Y-96255131D01*
X53597847Y-96255133D01*
X53804004Y-96351265D01*
X53804013Y-96351269D01*
X53949398Y-96390224D01*
X54009058Y-96426589D01*
X54039588Y-96489435D01*
X54031294Y-96558811D01*
X53986809Y-96612689D01*
X53949399Y-96629774D01*
X53804011Y-96668731D01*
X53804004Y-96668734D01*
X53597844Y-96764868D01*
X53524858Y-96815972D01*
X53524857Y-96815973D01*
X54117798Y-97408913D01*
X54108016Y-97410320D01*
X53977231Y-97470048D01*
X53868570Y-97564202D01*
X53790838Y-97685156D01*
X53767254Y-97765476D01*
X53171304Y-97169526D01*
X53171303Y-97169527D01*
X53120199Y-97242513D01*
X53024065Y-97448673D01*
X53024061Y-97448682D01*
X52965191Y-97668389D01*
X52965189Y-97668400D01*
X52945365Y-97894997D01*
X52945365Y-97895002D01*
X52965189Y-98121599D01*
X52965191Y-98121610D01*
X53024061Y-98341317D01*
X53024065Y-98341326D01*
X53120196Y-98547481D01*
X53120197Y-98547483D01*
X53171304Y-98620471D01*
X53171305Y-98620472D01*
X53767253Y-98024523D01*
X53790838Y-98104844D01*
X53868570Y-98225798D01*
X53977231Y-98319952D01*
X54108016Y-98379680D01*
X54117797Y-98381086D01*
X53524857Y-98974025D01*
X53524857Y-98974026D01*
X53597843Y-99025131D01*
X53597847Y-99025133D01*
X53804004Y-99121265D01*
X53804010Y-99121268D01*
X53949399Y-99160225D01*
X54009059Y-99196590D01*
X54039588Y-99259437D01*
X54031293Y-99328813D01*
X53986808Y-99382690D01*
X53949399Y-99399775D01*
X53804010Y-99438731D01*
X53804004Y-99438734D01*
X53597844Y-99534868D01*
X53524858Y-99585972D01*
X53524857Y-99585973D01*
X54117798Y-100178913D01*
X54108016Y-100180320D01*
X53977231Y-100240048D01*
X53868570Y-100334202D01*
X53790838Y-100455156D01*
X53767254Y-100535476D01*
X53171304Y-99939526D01*
X53171303Y-99939527D01*
X53120199Y-100012513D01*
X53024065Y-100218673D01*
X53024061Y-100218682D01*
X52965191Y-100438389D01*
X52965189Y-100438400D01*
X52945365Y-100664997D01*
X52945365Y-100665002D01*
X52965189Y-100891599D01*
X52965191Y-100891610D01*
X53024061Y-101111317D01*
X53024065Y-101111326D01*
X53120196Y-101317481D01*
X53120197Y-101317483D01*
X53171304Y-101390471D01*
X53171305Y-101390472D01*
X53767253Y-100794523D01*
X53790838Y-100874844D01*
X53868570Y-100995798D01*
X53977231Y-101089952D01*
X54108016Y-101149680D01*
X54117797Y-101151086D01*
X53524857Y-101744025D01*
X53524857Y-101744026D01*
X53597843Y-101795131D01*
X53597847Y-101795133D01*
X53804004Y-101891265D01*
X53804013Y-101891269D01*
X53948432Y-101929966D01*
X54008093Y-101966331D01*
X54038622Y-102029178D01*
X54030327Y-102098553D01*
X53985842Y-102152431D01*
X53948433Y-102169516D01*
X53803839Y-102208259D01*
X53803833Y-102208261D01*
X53597598Y-102304431D01*
X53597596Y-102304432D01*
X53411189Y-102434954D01*
X53250285Y-102595858D01*
X53119763Y-102782265D01*
X53119762Y-102782267D01*
X53023592Y-102988502D01*
X53023589Y-102988511D01*
X52964697Y-103208302D01*
X52964695Y-103208313D01*
X52944863Y-103434998D01*
X52944863Y-103435001D01*
X52964695Y-103661686D01*
X52964697Y-103661697D01*
X53023588Y-103881483D01*
X53023592Y-103881497D01*
X53119762Y-104087732D01*
X53119763Y-104087734D01*
X53250285Y-104274141D01*
X53411189Y-104435045D01*
X53411192Y-104435047D01*
X53597597Y-104565568D01*
X53803835Y-104661739D01*
X53803840Y-104661740D01*
X53803842Y-104661741D01*
X53947467Y-104700225D01*
X54007128Y-104736590D01*
X54037657Y-104799437D01*
X54029362Y-104868812D01*
X53984877Y-104922690D01*
X53947467Y-104939775D01*
X53803842Y-104978258D01*
X53803833Y-104978261D01*
X53597598Y-105074431D01*
X53597596Y-105074432D01*
X53411189Y-105204954D01*
X53250285Y-105365858D01*
X53119763Y-105552265D01*
X53119762Y-105552267D01*
X53023592Y-105758502D01*
X53023589Y-105758511D01*
X52964697Y-105978302D01*
X52964695Y-105978313D01*
X52944863Y-106204998D01*
X52944863Y-106205001D01*
X52964695Y-106431686D01*
X52964697Y-106431697D01*
X53023589Y-106651488D01*
X53023592Y-106651497D01*
X53119762Y-106857732D01*
X53119763Y-106857734D01*
X53250285Y-107044141D01*
X53411189Y-107205045D01*
X53411192Y-107205047D01*
X53597597Y-107335568D01*
X53803835Y-107431739D01*
X53803840Y-107431740D01*
X53803842Y-107431741D01*
X53947467Y-107470225D01*
X54007128Y-107506590D01*
X54037657Y-107569437D01*
X54029362Y-107638812D01*
X53984877Y-107692690D01*
X53947467Y-107709775D01*
X53803842Y-107748258D01*
X53803833Y-107748261D01*
X53597598Y-107844431D01*
X53597596Y-107844432D01*
X53411189Y-107974954D01*
X53250285Y-108135858D01*
X53119763Y-108322265D01*
X53119762Y-108322267D01*
X53023592Y-108528502D01*
X53023589Y-108528511D01*
X52964697Y-108748302D01*
X52964695Y-108748313D01*
X52944863Y-108974998D01*
X52944863Y-108975001D01*
X52964695Y-109201686D01*
X52964697Y-109201697D01*
X53023589Y-109421488D01*
X53023592Y-109421497D01*
X53119762Y-109627732D01*
X53119763Y-109627734D01*
X53239247Y-109798377D01*
X53261574Y-109864584D01*
X53244563Y-109932351D01*
X53193615Y-109980163D01*
X53137672Y-109993500D01*
X52178229Y-109993500D01*
X52111190Y-109973815D01*
X52090548Y-109957181D01*
X51161797Y-109028429D01*
X51128312Y-108967106D01*
X51133296Y-108897414D01*
X51175168Y-108841481D01*
X51240632Y-108817064D01*
X51281572Y-108820973D01*
X51483724Y-108875140D01*
X51483731Y-108875141D01*
X51710329Y-108894966D01*
X51710333Y-108894966D01*
X51936930Y-108875141D01*
X51936941Y-108875139D01*
X52156648Y-108816269D01*
X52156662Y-108816264D01*
X52362809Y-108720136D01*
X52435803Y-108669025D01*
X51842864Y-108076086D01*
X51852646Y-108074680D01*
X51983431Y-108014952D01*
X52092092Y-107920798D01*
X52169824Y-107799844D01*
X52193408Y-107719523D01*
X52789356Y-108315472D01*
X52840467Y-108242478D01*
X52936595Y-108036331D01*
X52936600Y-108036317D01*
X52995470Y-107816610D01*
X52995472Y-107816599D01*
X53015297Y-107590002D01*
X53015297Y-107589997D01*
X52995472Y-107363400D01*
X52995470Y-107363389D01*
X52936600Y-107143682D01*
X52936596Y-107143673D01*
X52840464Y-106937516D01*
X52840462Y-106937512D01*
X52789357Y-106864526D01*
X52789356Y-106864526D01*
X52193407Y-107460474D01*
X52169824Y-107380156D01*
X52092092Y-107259202D01*
X51983431Y-107165048D01*
X51852646Y-107105320D01*
X51842864Y-107103913D01*
X52435803Y-106510974D01*
X52435802Y-106510973D01*
X52362814Y-106459866D01*
X52362812Y-106459865D01*
X52156657Y-106363734D01*
X52156650Y-106363731D01*
X52012228Y-106325033D01*
X51952568Y-106288668D01*
X51922039Y-106225821D01*
X51930334Y-106156445D01*
X51974819Y-106102567D01*
X52012225Y-106085484D01*
X52156827Y-106046739D01*
X52363065Y-105950568D01*
X52549470Y-105820047D01*
X52710378Y-105659139D01*
X52840899Y-105472734D01*
X52937070Y-105266496D01*
X52937071Y-105266488D01*
X52937074Y-105266483D01*
X52972958Y-105132559D01*
X52995966Y-105046692D01*
X53015799Y-104820000D01*
X53011528Y-104771188D01*
X53005320Y-104700225D01*
X52995966Y-104593308D01*
X52937070Y-104373504D01*
X52840899Y-104167266D01*
X52710378Y-103980861D01*
X52710376Y-103980858D01*
X52549472Y-103819954D01*
X52363065Y-103689432D01*
X52363063Y-103689431D01*
X52156828Y-103593261D01*
X52156821Y-103593259D01*
X52013193Y-103554774D01*
X51953533Y-103518409D01*
X51923004Y-103455562D01*
X51931299Y-103386186D01*
X51975784Y-103332308D01*
X52013190Y-103315226D01*
X52118458Y-103287019D01*
X52156817Y-103276742D01*
X52156820Y-103276740D01*
X52156827Y-103276739D01*
X52363065Y-103180568D01*
X52549470Y-103050047D01*
X52710378Y-102889139D01*
X52840899Y-102702734D01*
X52937070Y-102496496D01*
X52937071Y-102496488D01*
X52937074Y-102496483D01*
X52972854Y-102362948D01*
X52995966Y-102276692D01*
X53015799Y-102050000D01*
X52995966Y-101823308D01*
X52944322Y-101630568D01*
X52937072Y-101603511D01*
X52937069Y-101603502D01*
X52915508Y-101557265D01*
X52840899Y-101397266D01*
X52710378Y-101210861D01*
X52710376Y-101210858D01*
X52549472Y-101049954D01*
X52363065Y-100919432D01*
X52363063Y-100919431D01*
X52156828Y-100823261D01*
X52156819Y-100823258D01*
X52034297Y-100790429D01*
X52013193Y-100784774D01*
X51953533Y-100748410D01*
X51923004Y-100685563D01*
X51931299Y-100616188D01*
X51975784Y-100562310D01*
X52013193Y-100545225D01*
X52156827Y-100506739D01*
X52363065Y-100410568D01*
X52549470Y-100280047D01*
X52710378Y-100119139D01*
X52840899Y-99932734D01*
X52937070Y-99726496D01*
X52995966Y-99506692D01*
X53015799Y-99280000D01*
X53011528Y-99231188D01*
X53005320Y-99160225D01*
X52995966Y-99053308D01*
X52937070Y-98833504D01*
X52840899Y-98627266D01*
X52728721Y-98467058D01*
X52710376Y-98440858D01*
X52549472Y-98279954D01*
X52363065Y-98149432D01*
X52363063Y-98149431D01*
X52156828Y-98053261D01*
X52156819Y-98053258D01*
X52034297Y-98020429D01*
X52013193Y-98014774D01*
X51953533Y-97978410D01*
X51923004Y-97915563D01*
X51931299Y-97846188D01*
X51975784Y-97792310D01*
X52013193Y-97775225D01*
X52156827Y-97736739D01*
X52363065Y-97640568D01*
X52549470Y-97510047D01*
X52710378Y-97349139D01*
X52840899Y-97162734D01*
X52937070Y-96956496D01*
X52995966Y-96736692D01*
X53015799Y-96510000D01*
X53011528Y-96461188D01*
X53005034Y-96386955D01*
X52995966Y-96283308D01*
X52937070Y-96063504D01*
X52840899Y-95857266D01*
X52710378Y-95670861D01*
X52710376Y-95670858D01*
X52549472Y-95509954D01*
X52363065Y-95379432D01*
X52363063Y-95379431D01*
X52156828Y-95283261D01*
X52156819Y-95283258D01*
X52019617Y-95246496D01*
X52013193Y-95244774D01*
X51953533Y-95208410D01*
X51923004Y-95145563D01*
X51931299Y-95076188D01*
X51975784Y-95022310D01*
X52013193Y-95005225D01*
X52156827Y-94966739D01*
X52363065Y-94870568D01*
X52549470Y-94740047D01*
X52710378Y-94579139D01*
X52840899Y-94392734D01*
X52937070Y-94186496D01*
X52995966Y-93966692D01*
X53015799Y-93740000D01*
X52995966Y-93513308D01*
X52937070Y-93293504D01*
X52840899Y-93087266D01*
X52710378Y-92900861D01*
X52710376Y-92900858D01*
X52549472Y-92739954D01*
X52363065Y-92609432D01*
X52363063Y-92609431D01*
X52156828Y-92513261D01*
X52156819Y-92513258D01*
X52021629Y-92477035D01*
X52013193Y-92474774D01*
X51953533Y-92438410D01*
X51923004Y-92375563D01*
X51931299Y-92306188D01*
X51975784Y-92252310D01*
X52013193Y-92235225D01*
X52156827Y-92196739D01*
X52363065Y-92100568D01*
X52549470Y-91970047D01*
X52710378Y-91809139D01*
X52840899Y-91622734D01*
X52937070Y-91416496D01*
X52995966Y-91196692D01*
X53015799Y-90970000D01*
X53011528Y-90921188D01*
X53001912Y-90811269D01*
X52995966Y-90743308D01*
X52937070Y-90523504D01*
X52840899Y-90317266D01*
X52710378Y-90130861D01*
X52710376Y-90130858D01*
X52549472Y-89969954D01*
X52363065Y-89839432D01*
X52363063Y-89839431D01*
X52156828Y-89743261D01*
X52156819Y-89743258D01*
X52034297Y-89710429D01*
X52013193Y-89704774D01*
X51953533Y-89668410D01*
X51923004Y-89605563D01*
X51931299Y-89536188D01*
X51975784Y-89482310D01*
X52013193Y-89465225D01*
X52156827Y-89426739D01*
X52363065Y-89330568D01*
X52549470Y-89200047D01*
X52710378Y-89039139D01*
X52840899Y-88852734D01*
X52937070Y-88646496D01*
X52945546Y-88614865D01*
X52948181Y-88605029D01*
X52984545Y-88545368D01*
X53047391Y-88514838D01*
X53116767Y-88523132D01*
G37*
%TD.AperFunction*%
%TA.AperFunction,Conductor*%
G36*
X48899703Y-85448953D02*
G01*
X48906181Y-85454985D01*
X50616834Y-87165638D01*
X50628615Y-87179270D01*
X50642954Y-87198530D01*
X50646625Y-87201610D01*
X50669922Y-87221159D01*
X50708624Y-87279330D01*
X50709732Y-87349191D01*
X50691791Y-87387271D01*
X50579763Y-87547265D01*
X50579762Y-87547267D01*
X50483592Y-87753502D01*
X50483589Y-87753511D01*
X50424697Y-87973302D01*
X50424695Y-87973313D01*
X50404863Y-88199998D01*
X50404863Y-88200001D01*
X50424695Y-88426686D01*
X50424697Y-88426697D01*
X50483589Y-88646488D01*
X50483592Y-88646497D01*
X50579762Y-88852732D01*
X50579763Y-88852734D01*
X50710285Y-89039141D01*
X50871189Y-89200045D01*
X50871192Y-89200047D01*
X51057597Y-89330568D01*
X51263835Y-89426739D01*
X51263837Y-89426739D01*
X51263844Y-89426742D01*
X51334269Y-89445611D01*
X51407467Y-89465225D01*
X51467127Y-89501588D01*
X51497657Y-89564435D01*
X51489363Y-89633811D01*
X51444878Y-89687689D01*
X51407468Y-89704774D01*
X51263840Y-89743259D01*
X51263833Y-89743261D01*
X51057598Y-89839431D01*
X51057596Y-89839432D01*
X50871189Y-89969954D01*
X50710285Y-90130858D01*
X50579763Y-90317265D01*
X50579762Y-90317267D01*
X50483592Y-90523502D01*
X50483589Y-90523511D01*
X50424697Y-90743302D01*
X50424695Y-90743313D01*
X50404863Y-90969998D01*
X50404863Y-90970001D01*
X50424695Y-91196686D01*
X50424697Y-91196697D01*
X50483589Y-91416488D01*
X50483592Y-91416497D01*
X50579762Y-91622732D01*
X50579763Y-91622734D01*
X50710285Y-91809141D01*
X50871189Y-91970045D01*
X50871192Y-91970047D01*
X51057597Y-92100568D01*
X51263835Y-92196739D01*
X51263840Y-92196740D01*
X51263842Y-92196741D01*
X51407467Y-92235225D01*
X51467128Y-92271590D01*
X51497657Y-92334437D01*
X51489362Y-92403812D01*
X51444877Y-92457690D01*
X51407467Y-92474775D01*
X51263842Y-92513258D01*
X51263833Y-92513261D01*
X51057598Y-92609431D01*
X51057596Y-92609432D01*
X50871189Y-92739954D01*
X50710285Y-92900858D01*
X50579763Y-93087265D01*
X50579762Y-93087267D01*
X50483592Y-93293502D01*
X50483589Y-93293511D01*
X50424697Y-93513302D01*
X50424695Y-93513313D01*
X50404863Y-93739998D01*
X50404863Y-93740001D01*
X50424695Y-93966686D01*
X50424697Y-93966697D01*
X50483589Y-94186488D01*
X50483592Y-94186497D01*
X50579762Y-94392732D01*
X50579763Y-94392734D01*
X50710285Y-94579141D01*
X50871189Y-94740045D01*
X50871192Y-94740047D01*
X51057597Y-94870568D01*
X51263835Y-94966739D01*
X51263840Y-94966740D01*
X51263842Y-94966741D01*
X51407467Y-95005225D01*
X51467128Y-95041590D01*
X51497657Y-95104437D01*
X51489362Y-95173812D01*
X51444877Y-95227690D01*
X51407467Y-95244775D01*
X51263842Y-95283258D01*
X51263833Y-95283261D01*
X51057598Y-95379431D01*
X51057596Y-95379432D01*
X50871189Y-95509954D01*
X50710285Y-95670858D01*
X50579763Y-95857265D01*
X50579762Y-95857267D01*
X50483592Y-96063502D01*
X50483589Y-96063511D01*
X50424697Y-96283302D01*
X50424695Y-96283313D01*
X50404863Y-96509998D01*
X50404863Y-96510001D01*
X50424695Y-96736686D01*
X50424697Y-96736697D01*
X50483589Y-96956488D01*
X50483592Y-96956497D01*
X50579762Y-97162732D01*
X50579763Y-97162734D01*
X50710285Y-97349141D01*
X50871189Y-97510045D01*
X50871192Y-97510047D01*
X51057597Y-97640568D01*
X51263835Y-97736739D01*
X51263840Y-97736740D01*
X51263842Y-97736741D01*
X51407467Y-97775225D01*
X51467128Y-97811590D01*
X51497657Y-97874437D01*
X51489362Y-97943812D01*
X51444877Y-97997690D01*
X51407467Y-98014775D01*
X51263842Y-98053258D01*
X51263833Y-98053261D01*
X51057598Y-98149431D01*
X51057596Y-98149432D01*
X50871189Y-98279954D01*
X50710285Y-98440858D01*
X50579763Y-98627265D01*
X50579762Y-98627267D01*
X50483592Y-98833502D01*
X50483589Y-98833511D01*
X50424697Y-99053302D01*
X50424695Y-99053313D01*
X50404863Y-99279998D01*
X50404863Y-99280001D01*
X50424695Y-99506686D01*
X50424697Y-99506697D01*
X50483589Y-99726488D01*
X50483592Y-99726497D01*
X50579762Y-99932732D01*
X50579763Y-99932734D01*
X50710285Y-100119141D01*
X50871189Y-100280045D01*
X50871192Y-100280047D01*
X51057597Y-100410568D01*
X51263835Y-100506739D01*
X51263840Y-100506740D01*
X51263842Y-100506741D01*
X51407467Y-100545225D01*
X51467128Y-100581590D01*
X51497657Y-100644437D01*
X51489362Y-100713812D01*
X51444877Y-100767690D01*
X51407467Y-100784775D01*
X51263842Y-100823258D01*
X51263833Y-100823261D01*
X51057598Y-100919431D01*
X51057596Y-100919432D01*
X50871189Y-101049954D01*
X50710285Y-101210858D01*
X50579763Y-101397265D01*
X50579762Y-101397267D01*
X50483592Y-101603502D01*
X50483589Y-101603511D01*
X50424697Y-101823302D01*
X50424695Y-101823313D01*
X50404863Y-102049998D01*
X50404863Y-102050001D01*
X50424695Y-102276686D01*
X50424697Y-102276697D01*
X50483588Y-102496483D01*
X50483592Y-102496497D01*
X50579762Y-102702732D01*
X50579763Y-102702734D01*
X50710285Y-102889141D01*
X50871189Y-103050045D01*
X50871192Y-103050047D01*
X51057597Y-103180568D01*
X51263835Y-103276739D01*
X51263837Y-103276739D01*
X51263844Y-103276742D01*
X51334269Y-103295611D01*
X51407467Y-103315225D01*
X51467127Y-103351588D01*
X51497657Y-103414435D01*
X51489363Y-103483811D01*
X51444878Y-103537689D01*
X51407468Y-103554774D01*
X51263840Y-103593259D01*
X51263833Y-103593261D01*
X51057598Y-103689431D01*
X51057596Y-103689432D01*
X50871189Y-103819954D01*
X50710285Y-103980858D01*
X50579763Y-104167265D01*
X50579762Y-104167267D01*
X50483592Y-104373502D01*
X50483589Y-104373511D01*
X50424697Y-104593302D01*
X50424695Y-104593313D01*
X50404863Y-104819998D01*
X50404863Y-104820001D01*
X50424695Y-105046686D01*
X50424697Y-105046697D01*
X50483588Y-105266483D01*
X50483592Y-105266497D01*
X50579762Y-105472732D01*
X50579763Y-105472734D01*
X50710285Y-105659141D01*
X50871189Y-105820045D01*
X50887706Y-105831610D01*
X51057597Y-105950568D01*
X51263835Y-106046739D01*
X51408433Y-106085483D01*
X51468092Y-106121848D01*
X51498622Y-106184694D01*
X51490328Y-106254070D01*
X51445843Y-106307948D01*
X51408433Y-106325033D01*
X51264011Y-106363731D01*
X51264004Y-106363734D01*
X51057844Y-106459868D01*
X50984858Y-106510972D01*
X50984857Y-106510973D01*
X51577798Y-107103913D01*
X51568016Y-107105320D01*
X51437231Y-107165048D01*
X51328570Y-107259202D01*
X51250838Y-107380156D01*
X51227254Y-107460476D01*
X50631304Y-106864526D01*
X50580199Y-106937513D01*
X50484065Y-107143673D01*
X50484061Y-107143682D01*
X50425191Y-107363389D01*
X50425189Y-107363400D01*
X50405365Y-107589997D01*
X50405365Y-107590002D01*
X50425189Y-107816599D01*
X50425191Y-107816610D01*
X50479356Y-108018759D01*
X50477693Y-108088609D01*
X50438530Y-108146471D01*
X50374302Y-108173975D01*
X50305399Y-108162388D01*
X50271901Y-108138534D01*
X48730819Y-106597451D01*
X48697334Y-106536128D01*
X48694500Y-106509770D01*
X48694500Y-85542666D01*
X48714185Y-85475627D01*
X48766989Y-85429872D01*
X48836147Y-85419928D01*
X48899703Y-85448953D01*
G37*
%TD.AperFunction*%
%TA.AperFunction,Conductor*%
G36*
X63924809Y-79275185D02*
G01*
X63945451Y-79291819D01*
X66106114Y-81452482D01*
X68091452Y-83437819D01*
X68124937Y-83499142D01*
X68119953Y-83568834D01*
X68078081Y-83624767D01*
X68012617Y-83649184D01*
X68003771Y-83649500D01*
X58092229Y-83649500D01*
X58025190Y-83629815D01*
X58004548Y-83613181D01*
X57221182Y-82829815D01*
X56430729Y-82039361D01*
X56418949Y-82025730D01*
X56407751Y-82010689D01*
X56404612Y-82006472D01*
X56404610Y-82006470D01*
X56364587Y-81972886D01*
X56360612Y-81969244D01*
X56357690Y-81966322D01*
X56354780Y-81963411D01*
X56329040Y-81943059D01*
X56270209Y-81893694D01*
X56264180Y-81889729D01*
X56264212Y-81889680D01*
X56257853Y-81885628D01*
X56257822Y-81885679D01*
X56251680Y-81881891D01*
X56251678Y-81881890D01*
X56251677Y-81881889D01*
X56204634Y-81859952D01*
X56182058Y-81849424D01*
X56129404Y-81822981D01*
X56113433Y-81814960D01*
X56113431Y-81814959D01*
X56113430Y-81814959D01*
X56106645Y-81812489D01*
X56106665Y-81812433D01*
X56099549Y-81809959D01*
X56099531Y-81810015D01*
X56092671Y-81807742D01*
X56064841Y-81801996D01*
X56017434Y-81792207D01*
X55968472Y-81780603D01*
X55942719Y-81774499D01*
X55935547Y-81773661D01*
X55935553Y-81773601D01*
X55928055Y-81772835D01*
X55928050Y-81772895D01*
X55920860Y-81772265D01*
X55844083Y-81774500D01*
X55623950Y-81774500D01*
X55556911Y-81754815D01*
X55511156Y-81702011D01*
X55501212Y-81632853D01*
X55504175Y-81618407D01*
X55535470Y-81501609D01*
X55535472Y-81501599D01*
X55555297Y-81275002D01*
X55555297Y-81274997D01*
X55535472Y-81048400D01*
X55535470Y-81048389D01*
X55476600Y-80828682D01*
X55476596Y-80828673D01*
X55380464Y-80622516D01*
X55380462Y-80622512D01*
X55329356Y-80549526D01*
X54733407Y-81145474D01*
X54709824Y-81065156D01*
X54632092Y-80944202D01*
X54523431Y-80850048D01*
X54392646Y-80790320D01*
X54382864Y-80788913D01*
X54975803Y-80195974D01*
X54975802Y-80195973D01*
X54902814Y-80144866D01*
X54902812Y-80144865D01*
X54696657Y-80048734D01*
X54696650Y-80048731D01*
X54552228Y-80010033D01*
X54492568Y-79973668D01*
X54462039Y-79910821D01*
X54470334Y-79841445D01*
X54514819Y-79787567D01*
X54552225Y-79770484D01*
X54696827Y-79731739D01*
X54903065Y-79635568D01*
X55089470Y-79505047D01*
X55250378Y-79344139D01*
X55275417Y-79308377D01*
X55329996Y-79264752D01*
X55376994Y-79255500D01*
X63857770Y-79255500D01*
X63924809Y-79275185D01*
G37*
%TD.AperFunction*%
%TA.AperFunction,Conductor*%
G36*
X53190707Y-76505185D02*
G01*
X53225243Y-76538377D01*
X53250285Y-76574141D01*
X53411189Y-76735045D01*
X53411192Y-76735047D01*
X53597597Y-76865568D01*
X53803835Y-76961739D01*
X53803840Y-76961740D01*
X53803842Y-76961741D01*
X53947467Y-77000225D01*
X54007128Y-77036590D01*
X54037657Y-77099437D01*
X54029362Y-77168812D01*
X53984877Y-77222690D01*
X53947467Y-77239775D01*
X53803842Y-77278258D01*
X53803833Y-77278261D01*
X53597598Y-77374431D01*
X53597596Y-77374432D01*
X53411189Y-77504954D01*
X53250285Y-77665858D01*
X53119763Y-77852265D01*
X53119762Y-77852267D01*
X53023592Y-78058502D01*
X53023589Y-78058511D01*
X52964697Y-78278302D01*
X52964695Y-78278313D01*
X52944863Y-78504998D01*
X52944863Y-78505001D01*
X52964695Y-78731686D01*
X52964697Y-78731697D01*
X53023589Y-78951488D01*
X53023592Y-78951497D01*
X53119762Y-79157732D01*
X53119763Y-79157734D01*
X53250285Y-79344141D01*
X53411189Y-79505045D01*
X53411192Y-79505047D01*
X53597597Y-79635568D01*
X53803835Y-79731739D01*
X53948433Y-79770483D01*
X54008092Y-79806848D01*
X54038622Y-79869694D01*
X54030328Y-79939070D01*
X53985843Y-79992948D01*
X53948433Y-80010033D01*
X53804011Y-80048731D01*
X53804004Y-80048734D01*
X53597844Y-80144868D01*
X53524858Y-80195972D01*
X53524857Y-80195973D01*
X54117798Y-80788913D01*
X54108016Y-80790320D01*
X53977231Y-80850048D01*
X53868570Y-80944202D01*
X53790838Y-81065156D01*
X53767253Y-81145476D01*
X53171304Y-80549527D01*
X53120196Y-80622517D01*
X53117491Y-80627203D01*
X53115328Y-80625954D01*
X53075856Y-80670468D01*
X53008596Y-80689384D01*
X52941786Y-80668933D01*
X52910550Y-80639437D01*
X52897173Y-80621468D01*
X52892701Y-80616728D01*
X52861013Y-80554458D01*
X52868021Y-80484940D01*
X52870504Y-80479245D01*
X52937070Y-80336496D01*
X52995966Y-80116692D01*
X53015799Y-79890000D01*
X53014022Y-79869694D01*
X53005730Y-79774910D01*
X52995966Y-79663308D01*
X52937070Y-79443504D01*
X52840899Y-79237266D01*
X52710378Y-79050861D01*
X52710376Y-79050858D01*
X52549472Y-78889954D01*
X52363065Y-78759432D01*
X52363063Y-78759431D01*
X52156828Y-78663261D01*
X52156819Y-78663258D01*
X52034297Y-78630429D01*
X52013193Y-78624774D01*
X51953533Y-78588410D01*
X51923004Y-78525563D01*
X51931299Y-78456188D01*
X51975784Y-78402310D01*
X52013193Y-78385225D01*
X52156827Y-78346739D01*
X52363065Y-78250568D01*
X52549470Y-78120047D01*
X52710378Y-77959139D01*
X52840899Y-77772734D01*
X52937070Y-77566496D01*
X52937071Y-77566488D01*
X52937074Y-77566483D01*
X52971431Y-77438258D01*
X52995966Y-77346692D01*
X53015799Y-77120000D01*
X53011528Y-77071188D01*
X53005320Y-77000225D01*
X52995966Y-76893308D01*
X52937070Y-76673504D01*
X52931660Y-76661904D01*
X52921169Y-76592828D01*
X52949688Y-76529044D01*
X53008165Y-76490804D01*
X53044043Y-76485500D01*
X53123668Y-76485500D01*
X53190707Y-76505185D01*
G37*
%TD.AperFunction*%
%TD*%
M02*
