M48
; DRILL file {KiCad 7.0.6} date Tue Aug 22 16:48:16 2023
; FORMAT={-:-/ absolute / inch / decimal}
; #@! TF.CreationDate,2023-08-22T16:48:16+01:00
; #@! TF.GenerationSoftware,Kicad,Pcbnew,7.0.6
; #@! TF.FileFunction,Plated,1,2,PTH
FMAT,2
INCH
; #@! TA.AperFunction,Plated,PTH,ComponentDrill
T1C0.0315
; #@! TA.AperFunction,Plated,PTH,ComponentDrill
T2C0.0350
; #@! TA.AperFunction,Plated,PTH,ComponentDrill
T3C0.0394
; #@! TA.AperFunction,Plated,PTH,ComponentDrill
T4C0.0791
%
G90
G05
T1
X2.7362Y-3.7323
X2.7382Y-3.1791
X3.2362Y-3.7323
X3.2382Y-3.1791
X3.3386Y-3.1811
X3.3386Y-3.7323
X3.8386Y-3.1811
X3.8386Y-3.7323
T2
X2.8425Y-2.7244
X2.9425Y-2.7244
X2.9449Y-3.939
X3.0449Y-3.939
X3.5118Y-2.7244
X3.6118Y-2.7244
X3.6142Y-3.939
X3.7142Y-3.939
T3
X2.0358Y-2.3819
X2.0358Y-2.4909
X2.0358Y-2.6
X2.0358Y-2.7091
X2.0358Y-2.8181
X2.0358Y-2.9272
X2.0358Y-3.0362
X2.0358Y-3.1453
X2.0358Y-3.2543
X2.0358Y-3.3634
X2.0358Y-3.4724
X2.0358Y-3.5815
X2.0358Y-3.6906
X2.0358Y-3.7996
X2.0358Y-3.9087
X2.0358Y-4.0177
X2.0358Y-4.1268
X2.0358Y-4.2358
X2.1358Y-2.3274
X2.1358Y-2.4364
X2.1358Y-2.5455
X2.1358Y-2.6545
X2.1358Y-2.7636
X2.1358Y-2.8726
X2.1358Y-2.9817
X2.1358Y-3.0907
X2.1358Y-3.1998
X2.1358Y-3.3089
X2.1358Y-3.4179
X2.1358Y-3.527
X2.1358Y-3.636
X2.1358Y-3.7451
X2.1358Y-3.8541
X2.1358Y-3.9632
X2.1358Y-4.0722
X2.1358Y-4.1813
X2.1358Y-4.2904
X4.4Y-2.3337
X4.4Y-2.4427
X4.4Y-2.5518
X4.4Y-2.6608
X4.4Y-2.7699
X4.4Y-2.8789
X4.4Y-2.988
X4.4Y-3.097
X4.4Y-3.2061
X4.4Y-3.3152
X4.4Y-3.4242
X4.4Y-3.5333
X4.4Y-3.6423
X4.4Y-3.7514
X4.4Y-3.8604
X4.4Y-3.9695
X4.4Y-4.0785
X4.4Y-4.1876
X4.4Y-4.2967
X4.5Y-2.3882
X4.5Y-2.4972
X4.5Y-2.6063
X4.5Y-2.7154
X4.5Y-2.8244
X4.5Y-2.9335
X4.5Y-3.0425
X4.5Y-3.1516
X4.5Y-3.2606
X4.5Y-3.3697
X4.5Y-3.4787
X4.5Y-3.5878
X4.5Y-3.6969
X4.5Y-3.8059
X4.5Y-3.915
X4.5Y-4.024
X4.5Y-4.1331
X4.5Y-4.2421
T4
X2.7425Y-2.5244
X2.7449Y-4.139
X3.1425Y-2.5244
X3.1449Y-4.139
X3.4118Y-2.5244
X3.4142Y-4.139
X3.8118Y-2.5244
X3.8142Y-4.139
T0
M30
